solid ascii
  facet normal 0.000000e+000 -1.000000e+000 0.000000e+000
    outer loop
      vertex   5.109500e+001 1.268000e+002 3.075000e+000
      vertex   9.984500e+001 1.268000e+002 1.800000e+000
      vertex   9.984500e+001 1.268000e+002 4.350000e+000
    endloop
  endfacet
  facet normal 0.000000e+000 -1.000000e+000 0.000000e+000
    outer loop
      vertex   5.109500e+001 6.350000e+001 3.075000e+000
      vertex   -1.655000e+000 6.350000e+001 4.350000e+000
      vertex   -1.655000e+000 6.350000e+001 1.800000e+000
    endloop
  endfacet
  facet normal 0.000000e+000 -1.000000e+000 0.000000e+000
    outer loop
      vertex   5.109500e+001 6.350000e+001 3.075000e+000
      vertex   -1.655000e+000 6.350000e+001 1.800000e+000
      vertex   1.038450e+002 6.350000e+001 1.800000e+000
    endloop
  endfacet
  facet normal 0.000000e+000 -1.000000e+000 0.000000e+000
    outer loop
      vertex   5.109500e+001 6.350000e+001 3.075000e+000
      vertex   1.038450e+002 6.350000e+001 1.800000e+000
      vertex   1.038450e+002 6.350000e+001 4.350000e+000
    endloop
  endfacet
  facet normal 0.000000e+000 1.000000e+000 0.000000e+000
    outer loop
      vertex   5.109500e+001 6.750000e+001 3.075000e+000
      vertex   9.984500e+001 6.750000e+001 4.350000e+000
      vertex   9.984500e+001 6.750000e+001 1.800000e+000
    endloop
  endfacet
  facet normal 1.000000e+000 0.000000e+000 0.000000e+000
    outer loop
      vertex   2.345000e+000 9.715000e+001 3.075000e+000
      vertex   2.345000e+000 6.750000e+001 4.350000e+000
      vertex   2.345000e+000 6.750000e+001 1.800000e+000
    endloop
  endfacet
  facet normal 1.000000e+000 0.000000e+000 0.000000e+000
    outer loop
      vertex   2.345000e+000 9.715000e+001 3.075000e+000
      vertex   2.345000e+000 6.750000e+001 1.800000e+000
      vertex   2.345000e+000 1.268000e+002 1.800000e+000
    endloop
  endfacet
  facet normal 1.000000e+000 0.000000e+000 -0.000000e+000
    outer loop
      vertex   2.345000e+000 9.715000e+001 3.075000e+000
      vertex   2.345000e+000 1.268000e+002 1.800000e+000
      vertex   2.345000e+000 1.268000e+002 4.350000e+000
    endloop
  endfacet
  facet normal 0.000000e+000 1.000000e+000 0.000000e+000
    outer loop
      vertex   5.109500e+001 6.750000e+001 3.075000e+000
      vertex   2.345000e+000 6.750000e+001 1.800000e+000
      vertex   2.345000e+000 6.750000e+001 4.350000e+000
    endloop
  endfacet
  facet normal -1.000000e+000 0.000000e+000 -0.000000e+000
    outer loop
      vertex   9.984500e+001 9.715000e+001 3.075000e+000
      vertex   9.984500e+001 1.268000e+002 4.350000e+000
      vertex   9.984500e+001 1.268000e+002 1.800000e+000
    endloop
  endfacet
  facet normal -1.000000e+000 0.000000e+000 0.000000e+000
    outer loop
      vertex   9.984500e+001 9.715000e+001 3.075000e+000
      vertex   9.984500e+001 1.268000e+002 1.800000e+000
      vertex   9.984500e+001 6.750000e+001 1.800000e+000
    endloop
  endfacet
  facet normal -1.000000e+000 0.000000e+000 0.000000e+000
    outer loop
      vertex   9.984500e+001 9.715000e+001 3.075000e+000
      vertex   9.984500e+001 6.750000e+001 1.800000e+000
      vertex   9.984500e+001 6.750000e+001 4.350000e+000
    endloop
  endfacet
  facet normal 0.000000e+000 1.000000e+000 0.000000e+000
    outer loop
      vertex   5.109500e+001 1.308000e+002 3.075000e+000
      vertex   1.038450e+002 1.308000e+002 4.350000e+000
      vertex   1.038450e+002 1.308000e+002 1.800000e+000
    endloop
  endfacet
  facet normal -1.000000e+000 0.000000e+000 -0.000000e+000
    outer loop
      vertex   -1.655000e+000 9.715000e+001 3.075000e+000
      vertex   -1.655000e+000 1.308000e+002 4.350000e+000
      vertex   -1.655000e+000 1.308000e+002 1.800000e+000
    endloop
  endfacet
  facet normal -1.000000e+000 0.000000e+000 0.000000e+000
    outer loop
      vertex   -1.655000e+000 9.715000e+001 3.075000e+000
      vertex   -1.655000e+000 1.308000e+002 1.800000e+000
      vertex   -1.655000e+000 6.350000e+001 1.800000e+000
    endloop
  endfacet
  facet normal -1.000000e+000 0.000000e+000 0.000000e+000
    outer loop
      vertex   -1.655000e+000 9.715000e+001 3.075000e+000
      vertex   -1.655000e+000 6.350000e+001 1.800000e+000
      vertex   -1.655000e+000 6.350000e+001 4.350000e+000
    endloop
  endfacet
  facet normal 0.000000e+000 1.000000e+000 0.000000e+000
    outer loop
      vertex   5.109500e+001 1.308000e+002 3.075000e+000
      vertex   -1.655000e+000 1.308000e+002 1.800000e+000
      vertex   -1.655000e+000 1.308000e+002 4.350000e+000
    endloop
  endfacet
  facet normal 0.000000e+000 -1.000000e+000 0.000000e+000
    outer loop
      vertex   5.109500e+001 1.268000e+002 3.075000e+000
      vertex   2.345000e+000 1.268000e+002 4.350000e+000
      vertex   2.345000e+000 1.268000e+002 1.800000e+000
    endloop
  endfacet
  facet normal 0.000000e+000 -1.000000e+000 0.000000e+000
    outer loop
      vertex   5.109500e+001 1.268000e+002 3.075000e+000
      vertex   2.345000e+000 1.268000e+002 1.800000e+000
      vertex   9.984500e+001 1.268000e+002 1.800000e+000
    endloop
  endfacet
  facet normal -0.000000e+000 0.000000e+000 -1.000000e+000
    outer loop
      vertex   -1.655000e+000 1.308000e+002 1.800000e+000
      vertex   2.345000e+000 6.750000e+001 1.800000e+000
      vertex   -1.655000e+000 6.350000e+001 1.800000e+000
    endloop
  endfacet
  facet normal 1.000000e+000 0.000000e+000 0.000000e+000
    outer loop
      vertex   1.038450e+002 9.715000e+001 3.075000e+000
      vertex   1.038450e+002 6.350000e+001 4.350000e+000
      vertex   1.038450e+002 6.350000e+001 1.800000e+000
    endloop
  endfacet
  facet normal 1.000000e+000 0.000000e+000 0.000000e+000
    outer loop
      vertex   1.038450e+002 9.715000e+001 3.075000e+000
      vertex   1.038450e+002 6.350000e+001 1.800000e+000
      vertex   1.038450e+002 1.308000e+002 1.800000e+000
    endloop
  endfacet
  facet normal 0.000000e+000 1.000000e+000 0.000000e+000
    outer loop
      vertex   5.109500e+001 6.750000e+001 3.075000e+000
      vertex   9.984500e+001 6.750000e+001 1.800000e+000
      vertex   2.345000e+000 6.750000e+001 1.800000e+000
    endloop
  endfacet
  facet normal 1.000000e+000 0.000000e+000 -0.000000e+000
    outer loop
      vertex   1.038450e+002 9.715000e+001 3.075000e+000
      vertex   1.038450e+002 1.308000e+002 1.800000e+000
      vertex   1.038450e+002 1.308000e+002 4.350000e+000
    endloop
  endfacet
  facet normal 0.000000e+000 0.000000e+000 -1.000000e+000
    outer loop
      vertex   9.984500e+001 6.750000e+001 1.800000e+000
      vertex   -1.655000e+000 6.350000e+001 1.800000e+000
      vertex   2.345000e+000 6.750000e+001 1.800000e+000
    endloop
  endfacet
  facet normal 0.000000e+000 0.000000e+000 -1.000000e+000
    outer loop
      vertex   1.038450e+002 6.350000e+001 1.800000e+000
      vertex   -1.655000e+000 6.350000e+001 1.800000e+000
      vertex   9.984500e+001 6.750000e+001 1.800000e+000
    endloop
  endfacet
  facet normal 0.000000e+000 1.000000e+000 0.000000e+000
    outer loop
      vertex   5.109500e+001 1.308000e+002 3.075000e+000
      vertex   1.038450e+002 1.308000e+002 1.800000e+000
      vertex   -1.655000e+000 1.308000e+002 1.800000e+000
    endloop
  endfacet
  facet normal 0.000000e+000 0.000000e+000 -1.000000e+000
    outer loop
      vertex   2.345000e+000 1.268000e+002 1.800000e+000
      vertex   2.345000e+000 6.750000e+001 1.800000e+000
      vertex   -1.655000e+000 1.308000e+002 1.800000e+000
    endloop
  endfacet
  facet normal 0.000000e+000 0.000000e+000 -1.000000e+000
    outer loop
      vertex   9.984500e+001 1.268000e+002 1.800000e+000
      vertex   1.038450e+002 6.350000e+001 1.800000e+000
      vertex   9.984500e+001 6.750000e+001 1.800000e+000
    endloop
  endfacet
  facet normal 0.000000e+000 0.000000e+000 -1.000000e+000
    outer loop
      vertex   1.038450e+002 1.308000e+002 1.800000e+000
      vertex   1.038450e+002 6.350000e+001 1.800000e+000
      vertex   9.984500e+001 1.268000e+002 1.800000e+000
    endloop
  endfacet
  facet normal 0.000000e+000 0.000000e+000 -1.000000e+000
    outer loop
      vertex   1.038450e+002 1.308000e+002 1.800000e+000
      vertex   9.984500e+001 1.268000e+002 1.800000e+000
      vertex   -1.655000e+000 1.308000e+002 1.800000e+000
    endloop
  endfacet
  facet normal 0.000000e+000 0.000000e+000 -1.000000e+000
    outer loop
      vertex   9.984500e+001 1.268000e+002 1.800000e+000
      vertex   2.345000e+000 1.268000e+002 1.800000e+000
      vertex   -1.655000e+000 1.308000e+002 1.800000e+000
    endloop
  endfacet
  facet normal -0.000000e+000 -1.000000e+000 0.000000e+000
    outer loop
      vertex   5.109500e+001 1.268000e+002 3.075000e+000
      vertex   9.984500e+001 1.268000e+002 4.350000e+000
      vertex   2.345000e+000 1.268000e+002 4.350000e+000
    endloop
  endfacet
  facet normal -1.000000e+000 0.000000e+000 0.000000e+000
    outer loop
      vertex   -1.655000e+000 9.715000e+001 3.075000e+000
      vertex   -1.655000e+000 6.350000e+001 4.350000e+000
      vertex   -1.655000e+000 1.308000e+002 4.350000e+000
    endloop
  endfacet
  facet normal -0.000000e+000 1.000000e+000 0.000000e+000
    outer loop
      vertex   5.109500e+001 6.750000e+001 3.075000e+000
      vertex   2.345000e+000 6.750000e+001 4.350000e+000
      vertex   9.984500e+001 6.750000e+001 4.350000e+000
    endloop
  endfacet
  facet normal 1.000000e+000 0.000000e+000 0.000000e+000
    outer loop
      vertex   1.038450e+002 9.715000e+001 3.075000e+000
      vertex   1.038450e+002 1.308000e+002 4.350000e+000
      vertex   1.038450e+002 6.350000e+001 4.350000e+000
    endloop
  endfacet
  facet normal 1.000000e+000 0.000000e+000 0.000000e+000
    outer loop
      vertex   2.345000e+000 9.715000e+001 3.075000e+000
      vertex   2.345000e+000 1.268000e+002 4.350000e+000
      vertex   2.345000e+000 6.750000e+001 4.350000e+000
    endloop
  endfacet
  facet normal -0.000000e+000 -1.000000e+000 0.000000e+000
    outer loop
      vertex   5.109500e+001 6.350000e+001 3.075000e+000
      vertex   1.038450e+002 6.350000e+001 4.350000e+000
      vertex   -1.655000e+000 6.350000e+001 4.350000e+000
    endloop
  endfacet
  facet normal -1.000000e+000 0.000000e+000 0.000000e+000
    outer loop
      vertex   9.984500e+001 9.715000e+001 3.075000e+000
      vertex   9.984500e+001 6.750000e+001 4.350000e+000
      vertex   9.984500e+001 1.268000e+002 4.350000e+000
    endloop
  endfacet
  facet normal -0.000000e+000 1.000000e+000 0.000000e+000
    outer loop
      vertex   5.109500e+001 1.308000e+002 3.075000e+000
      vertex   -1.655000e+000 1.308000e+002 4.350000e+000
      vertex   1.038450e+002 1.308000e+002 4.350000e+000
    endloop
  endfacet
  facet normal -0.000000e+000 0.000000e+000 1.000000e+000
    outer loop
      vertex   1.038450e+002 1.308000e+002 4.350000e+000
      vertex   -1.655000e+000 1.308000e+002 4.350000e+000
      vertex   9.984500e+001 1.268000e+002 4.350000e+000
    endloop
  endfacet
  facet normal 0.000000e+000 0.000000e+000 1.000000e+000
    outer loop
      vertex   9.984500e+001 1.268000e+002 4.350000e+000
      vertex   -1.655000e+000 1.308000e+002 4.350000e+000
      vertex   2.345000e+000 1.268000e+002 4.350000e+000
    endloop
  endfacet
  facet normal -0.000000e+000 0.000000e+000 1.000000e+000
    outer loop
      vertex   9.984500e+001 1.268000e+002 4.350000e+000
      vertex   9.984500e+001 6.750000e+001 4.350000e+000
      vertex   1.038450e+002 6.350000e+001 4.350000e+000
    endloop
  endfacet
  facet normal 0.000000e+000 0.000000e+000 1.000000e+000
    outer loop
      vertex   1.038450e+002 6.350000e+001 4.350000e+000
      vertex   9.984500e+001 6.750000e+001 4.350000e+000
      vertex   -1.655000e+000 6.350000e+001 4.350000e+000
    endloop
  endfacet
  facet normal -0.000000e+000 0.000000e+000 1.000000e+000
    outer loop
      vertex   9.984500e+001 6.750000e+001 4.350000e+000
      vertex   2.345000e+000 6.750000e+001 4.350000e+000
      vertex   -1.655000e+000 6.350000e+001 4.350000e+000
    endloop
  endfacet
  facet normal 0.000000e+000 0.000000e+000 1.000000e+000
    outer loop
      vertex   2.345000e+000 1.268000e+002 4.350000e+000
      vertex   -1.655000e+000 1.308000e+002 4.350000e+000
      vertex   2.345000e+000 6.750000e+001 4.350000e+000
    endloop
  endfacet
  facet normal 0.000000e+000 0.000000e+000 1.000000e+000
    outer loop
      vertex   -1.655000e+000 1.308000e+002 4.350000e+000
      vertex   -1.655000e+000 6.350000e+001 4.350000e+000
      vertex   2.345000e+000 6.750000e+001 4.350000e+000
    endloop
  endfacet
  facet normal -0.000000e+000 0.000000e+000 1.000000e+000
    outer loop
      vertex   1.038450e+002 1.308000e+002 4.350000e+000
      vertex   9.984500e+001 1.268000e+002 4.350000e+000
      vertex   1.038450e+002 6.350000e+001 4.350000e+000
    endloop
  endfacet
endsolid
