M48
; DRILL file {KiCad (6.0.9)} date Fri Apr 26 19:01:16 2024
; FORMAT={-:-/ absolute / metric / decimal}
; #@! TF.CreationDate,2024-04-26T19:01:16+02:00
; #@! TF.GenerationSoftware,Kicad,Pcbnew,(6.0.9)
; #@! TF.FileFunction,Plated,1,2,PTH
FMAT,2
METRIC
; #@! TA.AperFunction,Plated,PTH,ViaDrill
T1C0.400
; #@! TA.AperFunction,Plated,PTH,ComponentDrill
T2C0.600
; #@! TA.AperFunction,Plated,PTH,ComponentDrill
T3C0.800
; #@! TA.AperFunction,Plated,PTH,ComponentDrill
T4C1.000
%
G90
G05
T1
X92.676Y-150.339
X107.104Y-73.619
X110.614Y-75.961
X114.189Y-72.949
X114.645Y-74.5
X116.345Y-73.237
X116.949Y-146.895
X117.83Y-75.961
X121.375Y-63.287
X123.662Y-66.675
X124.955Y-126.713
X124.96Y-128.199
X124.961Y-124.507
X125.718Y-119.55
X133.635Y-67.525
X136.62Y-123.107
X138.005Y-128.371
X141.25Y-117.942
T2
X99.6Y-76.2
X101.6Y-76.2
X107.22Y-76.2
X109.22Y-76.2
T3
X63.5Y-50.8
X63.5Y-71.12
X66.04Y-50.8
X66.04Y-71.12
X68.58Y-50.8
X68.58Y-71.12
X71.12Y-50.8
X71.12Y-71.12
X73.66Y-50.8
X73.66Y-71.12
X76.2Y-50.8
X76.2Y-71.12
X78.74Y-50.8
X78.74Y-71.12
X81.28Y-50.8
X81.28Y-71.12
X83.82Y-50.8
X83.82Y-71.12
X86.36Y-50.8
X86.36Y-71.12
X86.36Y-76.2
X88.9Y-50.8
X88.9Y-71.12
X91.44Y-50.8
X91.44Y-71.12
X93.98Y-50.8
X93.98Y-71.12
X93.98Y-76.2
X96.52Y-50.8
X96.52Y-71.12
X99.06Y-50.8
X99.06Y-71.12
X101.6Y-50.8
X101.6Y-71.12
X104.14Y-50.8
X104.14Y-71.12
X106.68Y-50.8
X106.68Y-71.12
X106.76Y-45.72
X109.22Y-50.8
X109.22Y-71.12
X111.76Y-45.72
X111.76Y-50.8
X111.76Y-71.12
X119.38Y-50.8
X119.38Y-53.34
X119.38Y-55.88
X119.38Y-58.42
X119.38Y-60.96
X119.38Y-63.5
X119.38Y-66.04
X119.38Y-68.58
X119.38Y-71.12
X119.38Y-73.66
X119.46Y-45.72
X124.46Y-45.72
X127.0Y-50.8
X127.0Y-53.34
X127.0Y-55.88
X127.0Y-58.42
X127.0Y-60.96
X127.0Y-63.5
X127.0Y-66.04
X127.0Y-68.58
X127.0Y-71.12
X127.0Y-73.66
X132.08Y-50.8
X132.08Y-53.34
X132.08Y-55.88
X132.08Y-58.42
X132.08Y-60.96
X132.08Y-63.5
X132.08Y-66.04
X132.08Y-68.58
X132.08Y-71.12
X132.08Y-73.66
X132.16Y-45.72
X137.16Y-45.72
X139.7Y-50.8
X139.7Y-53.34
X139.7Y-55.88
X139.7Y-58.42
X139.7Y-60.96
X139.7Y-63.5
X139.7Y-66.04
X139.7Y-68.58
X139.7Y-71.12
X139.7Y-73.66
X144.78Y-50.8
X144.78Y-53.34
X144.78Y-55.88
X144.78Y-58.42
X144.78Y-60.96
X144.78Y-63.5
X144.78Y-66.04
X144.78Y-68.58
X144.78Y-71.12
X144.78Y-73.66
X144.86Y-45.72
X149.86Y-45.72
X152.4Y-50.8
X152.4Y-53.34
X152.4Y-55.88
X152.4Y-58.42
X152.4Y-60.96
X152.4Y-63.5
X152.4Y-66.04
X152.4Y-68.58
X152.4Y-71.12
X152.4Y-73.66
T4
X91.44Y-137.16
X93.98Y-137.16
X111.76Y-106.68
X111.76Y-109.22
T0
M30
