G04 #@! TF.GenerationSoftware,KiCad,Pcbnew,(6.0.9)*
G04 #@! TF.CreationDate,2024-04-26T19:01:12+02:00*
G04 #@! TF.ProjectId,Cartucho_MSX_LCD_Tang_Nano_20k,43617274-7563-4686-9f5f-4d53585f4c43,rev?*
G04 #@! TF.SameCoordinates,Original*
G04 #@! TF.FileFunction,Copper,L1,Top*
G04 #@! TF.FilePolarity,Positive*
%FSLAX46Y46*%
G04 Gerber Fmt 4.6, Leading zero omitted, Abs format (unit mm)*
G04 Created by KiCad (PCBNEW (6.0.9)) date 2024-04-26 19:01:12*
%MOMM*%
%LPD*%
G01*
G04 APERTURE LIST*
G04 #@! TA.AperFunction,SMDPad,CuDef*
%ADD10R,1.270000X7.620000*%
G04 #@! TD*
G04 #@! TA.AperFunction,ComponentPad*
%ADD11C,1.600000*%
G04 #@! TD*
G04 #@! TA.AperFunction,ComponentPad*
%ADD12O,1.600000X1.600000*%
G04 #@! TD*
G04 #@! TA.AperFunction,ComponentPad*
%ADD13R,2.400000X1.600000*%
G04 #@! TD*
G04 #@! TA.AperFunction,ComponentPad*
%ADD14O,2.400000X1.600000*%
G04 #@! TD*
G04 #@! TA.AperFunction,ComponentPad*
%ADD15R,1.200000X1.200000*%
G04 #@! TD*
G04 #@! TA.AperFunction,ComponentPad*
%ADD16C,1.200000*%
G04 #@! TD*
G04 #@! TA.AperFunction,ComponentPad*
%ADD17R,1.700000X1.700000*%
G04 #@! TD*
G04 #@! TA.AperFunction,ComponentPad*
%ADD18O,1.700000X1.700000*%
G04 #@! TD*
G04 #@! TA.AperFunction,ComponentPad*
%ADD19R,1.600000X2.400000*%
G04 #@! TD*
G04 #@! TA.AperFunction,ComponentPad*
%ADD20O,1.600000X2.400000*%
G04 #@! TD*
G04 #@! TA.AperFunction,ViaPad*
%ADD21C,0.800000*%
G04 #@! TD*
G04 #@! TA.AperFunction,Conductor*
%ADD22C,0.450000*%
G04 #@! TD*
G04 #@! TA.AperFunction,Conductor*
%ADD23C,0.300000*%
G04 #@! TD*
G04 APERTURE END LIST*
D10*
X142240000Y-157480000D03*
X139700000Y-157480000D03*
X137160000Y-157480000D03*
X134620000Y-157480000D03*
X132080000Y-157480000D03*
X129540000Y-157480000D03*
X127000000Y-157480000D03*
X124460000Y-157480000D03*
X121920000Y-157480000D03*
X119380000Y-157480000D03*
X116840000Y-157480000D03*
X114300000Y-157480000D03*
X111760000Y-157480000D03*
X109220000Y-157480000D03*
X106680000Y-157480000D03*
X104140000Y-157480000D03*
X101600000Y-157480000D03*
X99060000Y-157480000D03*
X96520000Y-157480000D03*
X93980000Y-157480000D03*
X91440000Y-157480000D03*
X88900000Y-156210000D03*
X86360000Y-157480000D03*
X83820000Y-157480000D03*
X81280000Y-157480000D03*
D11*
X124460000Y-45720000D03*
X119460000Y-45720000D03*
X86360000Y-76200000D03*
D12*
X93980000Y-76200000D03*
D13*
X127000000Y-50800000D03*
D14*
X127000000Y-53340000D03*
X127000000Y-55880000D03*
X127000000Y-58420000D03*
X127000000Y-60960000D03*
X127000000Y-63500000D03*
X127000000Y-66040000D03*
X127000000Y-68580000D03*
X127000000Y-71120000D03*
X127000000Y-73660000D03*
X119380000Y-73660000D03*
X119380000Y-71120000D03*
X119380000Y-68580000D03*
X119380000Y-66040000D03*
X119380000Y-63500000D03*
X119380000Y-60960000D03*
X119380000Y-58420000D03*
X119380000Y-55880000D03*
X119380000Y-53340000D03*
X119380000Y-50800000D03*
D15*
X101600000Y-76200000D03*
D16*
X99600000Y-76200000D03*
D15*
X109220000Y-76200000D03*
D16*
X107220000Y-76200000D03*
D11*
X111760000Y-45720000D03*
X106760000Y-45720000D03*
X149860000Y-45720000D03*
X144860000Y-45720000D03*
D13*
X152400000Y-50800000D03*
D14*
X152400000Y-53340000D03*
X152400000Y-55880000D03*
X152400000Y-58420000D03*
X152400000Y-60960000D03*
X152400000Y-63500000D03*
X152400000Y-66040000D03*
X152400000Y-68580000D03*
X152400000Y-71120000D03*
X152400000Y-73660000D03*
X144780000Y-73660000D03*
X144780000Y-71120000D03*
X144780000Y-68580000D03*
X144780000Y-66040000D03*
X144780000Y-63500000D03*
X144780000Y-60960000D03*
X144780000Y-58420000D03*
X144780000Y-55880000D03*
X144780000Y-53340000D03*
X144780000Y-50800000D03*
D17*
X93980000Y-137160000D03*
D18*
X91440000Y-137160000D03*
D13*
X139700000Y-50800000D03*
D14*
X139700000Y-53340000D03*
X139700000Y-55880000D03*
X139700000Y-58420000D03*
X139700000Y-60960000D03*
X139700000Y-63500000D03*
X139700000Y-66040000D03*
X139700000Y-68580000D03*
X139700000Y-71120000D03*
X139700000Y-73660000D03*
X132080000Y-73660000D03*
X132080000Y-71120000D03*
X132080000Y-68580000D03*
X132080000Y-66040000D03*
X132080000Y-63500000D03*
X132080000Y-60960000D03*
X132080000Y-58420000D03*
X132080000Y-55880000D03*
X132080000Y-53340000D03*
X132080000Y-50800000D03*
D19*
X111760000Y-71120000D03*
D20*
X109220000Y-71120000D03*
X106680000Y-71120000D03*
X104140000Y-71120000D03*
X101600000Y-71120000D03*
X99060000Y-71120000D03*
X96520000Y-71120000D03*
X93980000Y-71120000D03*
X91440000Y-71120000D03*
X88900000Y-71120000D03*
X86360000Y-71120000D03*
X83820000Y-71120000D03*
X81280000Y-71120000D03*
X78740000Y-71120000D03*
X76200000Y-71120000D03*
X73660000Y-71120000D03*
X71120000Y-71120000D03*
X68580000Y-71120000D03*
X66040000Y-71120000D03*
X63500000Y-71120000D03*
X63500000Y-50800000D03*
X66040000Y-50800000D03*
X68580000Y-50800000D03*
X71120000Y-50800000D03*
X73660000Y-50800000D03*
X76200000Y-50800000D03*
X78740000Y-50800000D03*
X81280000Y-50800000D03*
X83820000Y-50800000D03*
X86360000Y-50800000D03*
X88900000Y-50800000D03*
X91440000Y-50800000D03*
X93980000Y-50800000D03*
X96520000Y-50800000D03*
X99060000Y-50800000D03*
X101600000Y-50800000D03*
X104140000Y-50800000D03*
X106680000Y-50800000D03*
X109220000Y-50800000D03*
X111760000Y-50800000D03*
D11*
X137160000Y-45720000D03*
X132160000Y-45720000D03*
D17*
X111760000Y-106680000D03*
D18*
X111760000Y-109220000D03*
D21*
X92675600Y-150339400D03*
X125717500Y-119550400D03*
X124960400Y-128198800D03*
X124954800Y-126713100D03*
X123661600Y-66675100D03*
X124961100Y-124507500D03*
X116948800Y-146895100D03*
X136620500Y-123106800D03*
X133635100Y-67525200D03*
X141250100Y-117942000D03*
X138005200Y-128370600D03*
X121375000Y-63287100D03*
X117829900Y-75961000D03*
X110614100Y-75961000D03*
X116345100Y-73237200D03*
X107104000Y-73618800D03*
X114644800Y-74499900D03*
X114188900Y-72948800D03*
D22*
X133705100Y-47265100D02*
X133705100Y-53340000D01*
X76200000Y-50800000D02*
X76200000Y-49174900D01*
X111760000Y-110495100D02*
X93980000Y-128275100D01*
X72390000Y-49925800D02*
X73140900Y-49174900D01*
X73140900Y-49174900D02*
X76200000Y-49174900D01*
X93980000Y-128275100D02*
X93980000Y-137160000D01*
X132160000Y-45720000D02*
X133705100Y-47265100D01*
X109220000Y-50800000D02*
X109220000Y-49174900D01*
X119460000Y-45720000D02*
X117754900Y-47425100D01*
X119380000Y-53340000D02*
X117754900Y-53340000D01*
X132080000Y-53340000D02*
X133705100Y-53340000D01*
X106760000Y-45720000D02*
X106760000Y-46714900D01*
X63500000Y-71120000D02*
X63500000Y-60620000D01*
X72390000Y-51730000D02*
X72390000Y-49925800D01*
X111760000Y-109220000D02*
X111760000Y-110495100D01*
X106760000Y-46714900D02*
X109220000Y-49174900D01*
X63500000Y-60620000D02*
X72390000Y-51730000D01*
X117754900Y-47425100D02*
X117754900Y-53340000D01*
D23*
X86360000Y-157480000D02*
X86360000Y-152622600D01*
X88900000Y-156210000D02*
X88900000Y-152049900D01*
X86932700Y-152049900D02*
X88900000Y-152049900D01*
X86360000Y-152622600D02*
X86932700Y-152049900D01*
X139700000Y-53340000D02*
X138149900Y-53340000D01*
X134912600Y-56577300D02*
X138149900Y-53340000D01*
X109220000Y-151387100D02*
X134912600Y-125694500D01*
X134912600Y-125694500D02*
X134912600Y-56577300D01*
X109220000Y-157480000D02*
X109220000Y-151387100D01*
X149052100Y-57677800D02*
X149052100Y-129826800D01*
X150849900Y-55880000D02*
X149052100Y-57677800D01*
X152400000Y-55880000D02*
X150849900Y-55880000D01*
X127000000Y-151878900D02*
X127000000Y-157480000D01*
X149052100Y-129826800D02*
X127000000Y-151878900D01*
X92675600Y-150339400D02*
X91440000Y-151575000D01*
X91440000Y-151575000D02*
X91440000Y-157480000D01*
X129588400Y-124631500D02*
X101600000Y-152619900D01*
X101600000Y-152619900D02*
X101600000Y-157480000D01*
X127000000Y-53340000D02*
X128550100Y-53340000D01*
X129276800Y-54066700D02*
X129276800Y-61333100D01*
X128550100Y-53340000D02*
X129276800Y-54066700D01*
X129588400Y-61644700D02*
X129588400Y-124631500D01*
X129276800Y-61333100D02*
X129588400Y-61644700D01*
X125717500Y-119550400D02*
X126000400Y-119267500D01*
X123919100Y-82825100D02*
X123919100Y-67478400D01*
X123919100Y-67478400D02*
X124411700Y-66985800D01*
X124411700Y-56918200D02*
X125449900Y-55880000D01*
X124411700Y-66985800D02*
X124411700Y-56918200D01*
X126000400Y-119267500D02*
X126000400Y-84906400D01*
X126000400Y-84906400D02*
X123919100Y-82825100D01*
X127000000Y-55880000D02*
X125449900Y-55880000D01*
X125411900Y-67400000D02*
X125411900Y-65601600D01*
X127000600Y-84492100D02*
X124932000Y-82423500D01*
X126091800Y-62110200D02*
X125449900Y-61468300D01*
X99060000Y-149347900D02*
X127000600Y-121407300D01*
X127000000Y-58420000D02*
X125449900Y-58420000D01*
X127000600Y-121407300D02*
X127000600Y-84492100D01*
X127823900Y-64770000D02*
X128556500Y-64037400D01*
X125411900Y-65601600D02*
X126243500Y-64770000D01*
X128556500Y-63016000D02*
X127650700Y-62110200D01*
X99060000Y-157480000D02*
X99060000Y-149347900D01*
X124932000Y-82423500D02*
X124932000Y-67879900D01*
X124932000Y-67879900D02*
X125411900Y-67400000D01*
X126243500Y-64770000D02*
X127823900Y-64770000D01*
X128556500Y-64037400D02*
X128556500Y-63016000D01*
X127650700Y-62110200D02*
X126091800Y-62110200D01*
X125449900Y-61468300D02*
X125449900Y-58420000D01*
X129065700Y-124093500D02*
X124960400Y-128198800D01*
X129065700Y-62182700D02*
X129065700Y-124093500D01*
X128550100Y-61667100D02*
X129065700Y-62182700D01*
X128550100Y-60960000D02*
X128550100Y-61667100D01*
X127000000Y-60960000D02*
X128550100Y-60960000D01*
X124431900Y-82630600D02*
X124431900Y-67672800D01*
X124431900Y-67672800D02*
X124911800Y-67192900D01*
X126500500Y-84699200D02*
X124431900Y-82630600D01*
X96520000Y-157480000D02*
X96520000Y-149810900D01*
X127000000Y-63500000D02*
X125449900Y-63500000D01*
X96520000Y-149810900D02*
X126500500Y-119830400D01*
X124911800Y-67192900D02*
X124911800Y-64038100D01*
X126500500Y-119830400D02*
X126500500Y-84699200D01*
X124911800Y-64038100D02*
X125449900Y-63500000D01*
X128550100Y-66040000D02*
X128550100Y-123117800D01*
X128550100Y-123117800D02*
X124954800Y-126713100D01*
X127000000Y-66040000D02*
X128550100Y-66040000D01*
X123418900Y-66917800D02*
X123418900Y-83281900D01*
X125500300Y-99462000D02*
X96019800Y-128942500D01*
X93980000Y-150228800D02*
X93980000Y-157480000D01*
X96019800Y-148189000D02*
X93980000Y-150228800D01*
X123661600Y-66675100D02*
X123418900Y-66917800D01*
X96019800Y-128942500D02*
X96019800Y-148189000D01*
X125500300Y-85363300D02*
X125500300Y-99462000D01*
X123418900Y-83281900D02*
X125500300Y-85363300D01*
X127500700Y-121967900D02*
X127500700Y-76878700D01*
X124961100Y-124507500D02*
X127500700Y-121967900D01*
X125449900Y-74827900D02*
X125449900Y-71120000D01*
X127500700Y-76878700D02*
X125449900Y-74827900D01*
X127000000Y-71120000D02*
X125449900Y-71120000D01*
X116948800Y-146895100D02*
X135870300Y-127973600D01*
X139700000Y-55880000D02*
X138149900Y-55880000D01*
X135870300Y-58159600D02*
X138149900Y-55880000D01*
X135870300Y-127973600D02*
X135870300Y-58159600D01*
X140585700Y-52181200D02*
X141250100Y-52845600D01*
X139700000Y-58420000D02*
X141250100Y-58420000D01*
X106680000Y-157480000D02*
X106680000Y-152525900D01*
X141250100Y-52845600D02*
X141250100Y-58420000D01*
X134412500Y-124793400D02*
X134412500Y-56370100D01*
X134412500Y-56370100D02*
X138601400Y-52181200D01*
X106680000Y-152525900D02*
X134412500Y-124793400D01*
X138601400Y-52181200D02*
X140585700Y-52181200D01*
X138149900Y-60960000D02*
X136620500Y-62489400D01*
X136620500Y-62489400D02*
X136620500Y-123106800D01*
X139700000Y-60960000D02*
X138149900Y-60960000D01*
X104140000Y-151476800D02*
X133635100Y-121981700D01*
X133635100Y-121981700D02*
X133635100Y-67525200D01*
X104140000Y-157480000D02*
X104140000Y-151476800D01*
X139700000Y-66040000D02*
X141250100Y-66040000D01*
X141250100Y-66040000D02*
X141250100Y-117942000D01*
X116840000Y-150727000D02*
X137255100Y-130311900D01*
X137370600Y-69359300D02*
X138149900Y-68580000D01*
X116840000Y-157480000D02*
X116840000Y-150727000D01*
X137370600Y-123417500D02*
X137370600Y-69359300D01*
X137255100Y-130311900D02*
X137255100Y-123533000D01*
X139700000Y-68580000D02*
X138149900Y-68580000D01*
X137255100Y-123533000D02*
X137370600Y-123417500D01*
X138005200Y-71264700D02*
X138005200Y-128370600D01*
X139700000Y-71120000D02*
X138149900Y-71120000D01*
X138149900Y-71120000D02*
X138005200Y-71264700D01*
X106847400Y-43994100D02*
X112423900Y-43994100D01*
X121375000Y-55831700D02*
X121375000Y-63287100D01*
X116021200Y-47591400D02*
X116021200Y-52463400D01*
X106680000Y-49249900D02*
X105582700Y-48152600D01*
X116021200Y-52463400D02*
X118167800Y-54610000D01*
X105582700Y-45258800D02*
X106847400Y-43994100D01*
X106680000Y-50800000D02*
X106680000Y-49249900D01*
X120153300Y-54610000D02*
X121375000Y-55831700D01*
X105582700Y-48152600D02*
X105582700Y-45258800D01*
X112423900Y-43994100D02*
X116021200Y-47591400D01*
X118167800Y-54610000D02*
X120153300Y-54610000D01*
X132080000Y-63500000D02*
X130529900Y-63500000D01*
X123866700Y-43494000D02*
X99735900Y-43494000D01*
X99735900Y-43494000D02*
X93980000Y-49249900D01*
X129812400Y-60740300D02*
X129812400Y-49439700D01*
X129812400Y-49439700D02*
X123866700Y-43494000D01*
X93980000Y-50800000D02*
X93980000Y-49249900D01*
X130529900Y-61457800D02*
X129812400Y-60740300D01*
X130529900Y-63500000D02*
X130529900Y-61457800D01*
X107657100Y-72868700D02*
X106374600Y-72868700D01*
X104689300Y-69569900D02*
X99060000Y-69569900D01*
X110614100Y-75825700D02*
X107657100Y-72868700D01*
X117829900Y-68580000D02*
X117829900Y-75961000D01*
X110614100Y-75961000D02*
X110614100Y-75825700D01*
X119380000Y-68580000D02*
X117829900Y-68580000D01*
X106374600Y-72868700D02*
X105410000Y-71904100D01*
X105410000Y-70290600D02*
X104689300Y-69569900D01*
X99060000Y-71120000D02*
X99060000Y-69569900D01*
X105410000Y-71904100D02*
X105410000Y-70290600D01*
X96520000Y-72670100D02*
X97468700Y-73618800D01*
X116345100Y-67524800D02*
X117829900Y-66040000D01*
X96520000Y-71120000D02*
X96520000Y-72670100D01*
X119380000Y-66040000D02*
X117829900Y-66040000D01*
X97468700Y-73618800D02*
X107104000Y-73618800D01*
X116345100Y-73237200D02*
X116345100Y-67524800D01*
X115205800Y-73938900D02*
X115205800Y-63584100D01*
X114644800Y-74499900D02*
X115205800Y-73938900D01*
X119380000Y-60960000D02*
X117829900Y-60960000D01*
X115205800Y-63584100D02*
X117829900Y-60960000D01*
X119380000Y-58420000D02*
X117829900Y-58420000D01*
X114188900Y-72948800D02*
X114188900Y-62061000D01*
X114188900Y-62061000D02*
X117829900Y-58420000D01*
X110397400Y-51656000D02*
X110397400Y-45453600D01*
X68580000Y-71120000D02*
X68580000Y-69569900D01*
X112215600Y-44549000D02*
X115521000Y-47854400D01*
X119380000Y-55880000D02*
X117829900Y-55880000D01*
X68580000Y-69569900D02*
X92483500Y-69569900D01*
X111302000Y-44549000D02*
X112215600Y-44549000D01*
X115521100Y-53571200D02*
X117829900Y-55880000D01*
X92483500Y-69569900D02*
X110397400Y-51656000D01*
X110397400Y-45453600D02*
X111302000Y-44549000D01*
X115521000Y-53571200D02*
X115521100Y-53571200D01*
X115521000Y-47854400D02*
X115521000Y-53571200D01*
D22*
X126187500Y-50800000D02*
X124460000Y-50800000D01*
X130454900Y-45676200D02*
X131639700Y-44491400D01*
X139700000Y-50800000D02*
X138074900Y-50800000D01*
X149860000Y-47345100D02*
X149860000Y-45720000D01*
X73660000Y-50800000D02*
X73660000Y-61874900D01*
X152400000Y-50800000D02*
X150774900Y-50800000D01*
X150774900Y-50800000D02*
X148590000Y-48615100D01*
X138074900Y-46634900D02*
X138074900Y-50800000D01*
X132080000Y-50800000D02*
X130454900Y-50800000D01*
X139700000Y-50800000D02*
X144780000Y-50800000D01*
X148590000Y-48615100D02*
X149860000Y-47345100D01*
X144780000Y-50800000D02*
X146405100Y-50800000D01*
X137160000Y-45720000D02*
X138074900Y-46634900D01*
X127000000Y-50800000D02*
X126187500Y-50800000D01*
X124460000Y-50800000D02*
X119380000Y-50800000D01*
X130454900Y-50800000D02*
X130454900Y-45676200D01*
X73660000Y-61874900D02*
X66040000Y-69494900D01*
X124460000Y-50800000D02*
X124460000Y-45720000D01*
X146405100Y-50800000D02*
X148590000Y-48615100D01*
X131639700Y-44491400D02*
X135931400Y-44491400D01*
X135931400Y-44491400D02*
X137160000Y-45720000D01*
X66040000Y-71120000D02*
X66040000Y-69494900D01*
D23*
X86360000Y-71120000D02*
X86360000Y-76200000D01*
D22*
X112843200Y-103219900D02*
X91440000Y-124623100D01*
X111760000Y-45720000D02*
X111760000Y-50800000D01*
X113017700Y-53682800D02*
X113017700Y-74315100D01*
X120901400Y-103219900D02*
X112843200Y-103219900D01*
X91440000Y-124623100D02*
X91440000Y-137160000D01*
X124925100Y-99196200D02*
X120901400Y-103219900D01*
X113017700Y-74315100D02*
X124925100Y-86222500D01*
X124925100Y-86222500D02*
X124925100Y-99196200D01*
X111760000Y-50800000D02*
X111760000Y-52425100D01*
X111760000Y-52425100D02*
X113017700Y-53682800D01*
D23*
X107676100Y-75249900D02*
X103500200Y-75249900D01*
X108269900Y-75843700D02*
X107676100Y-75249900D01*
X109220000Y-76200000D02*
X108269900Y-76200000D01*
X101600000Y-76200000D02*
X102550100Y-76200000D01*
X108269900Y-76200000D02*
X108269900Y-75843700D01*
X103500200Y-75249900D02*
X102550100Y-76200000D01*
M02*
