G04 #@! TF.GenerationSoftware,KiCad,Pcbnew,(6.0.9)*
G04 #@! TF.CreationDate,2024-04-26T19:01:12+02:00*
G04 #@! TF.ProjectId,Cartucho_MSX_LCD_Tang_Nano_20k,43617274-7563-4686-9f5f-4d53585f4c43,rev?*
G04 #@! TF.SameCoordinates,Original*
G04 #@! TF.FileFunction,Legend,Bot*
G04 #@! TF.FilePolarity,Positive*
%FSLAX46Y46*%
G04 Gerber Fmt 4.6, Leading zero omitted, Abs format (unit mm)*
G04 Created by KiCad (PCBNEW (6.0.9)) date 2024-04-26 19:01:12*
%MOMM*%
%LPD*%
G01*
G04 APERTURE LIST*
%ADD10C,0.150000*%
%ADD11C,0.096520*%
%ADD12C,0.120000*%
%ADD13C,0.100000*%
%ADD14C,4.900000*%
%ADD15R,1.270000X7.620000*%
%ADD16C,1.600000*%
%ADD17O,1.600000X1.600000*%
%ADD18R,2.400000X1.600000*%
%ADD19O,2.400000X1.600000*%
%ADD20R,1.200000X1.200000*%
%ADD21C,1.200000*%
%ADD22R,1.700000X1.700000*%
%ADD23O,1.700000X1.700000*%
%ADD24R,1.600000X2.400000*%
%ADD25O,1.600000X2.400000*%
G04 APERTURE END LIST*
D10*
X141954285Y-152217380D02*
X142525714Y-152217380D01*
X142240000Y-152217380D02*
X142240000Y-151217380D01*
X142335238Y-151360238D01*
X142430476Y-151455476D01*
X142525714Y-151503095D01*
X131627619Y-150159404D02*
X132627619Y-150159404D01*
X131913333Y-149826071D01*
X132627619Y-149492738D01*
X131627619Y-149492738D01*
X131627619Y-148492738D02*
X131627619Y-149064166D01*
X131627619Y-148778452D02*
X132627619Y-148778452D01*
X132484761Y-148873690D01*
X132389523Y-148968928D01*
X132341904Y-149064166D01*
X103973333Y-150207023D02*
X103973333Y-149730833D01*
X103687619Y-150302261D02*
X104687619Y-149968928D01*
X103687619Y-149635595D01*
X104687619Y-148826071D02*
X104687619Y-149302261D01*
X104211428Y-149349880D01*
X104259047Y-149302261D01*
X104306666Y-149207023D01*
X104306666Y-148968928D01*
X104259047Y-148873690D01*
X104211428Y-148826071D01*
X104116190Y-148778452D01*
X103878095Y-148778452D01*
X103782857Y-148826071D01*
X103735238Y-148873690D01*
X103687619Y-148968928D01*
X103687619Y-149207023D01*
X103735238Y-149302261D01*
X103782857Y-149349880D01*
X115061904Y-151312619D02*
X115014285Y-151265000D01*
X114919047Y-151217380D01*
X114680952Y-151217380D01*
X114585714Y-151265000D01*
X114538095Y-151312619D01*
X114490476Y-151407857D01*
X114490476Y-151503095D01*
X114538095Y-151645952D01*
X115109523Y-152217380D01*
X114490476Y-152217380D01*
X114157142Y-151217380D02*
X113538095Y-151217380D01*
X113871428Y-151598333D01*
X113728571Y-151598333D01*
X113633333Y-151645952D01*
X113585714Y-151693571D01*
X113538095Y-151788809D01*
X113538095Y-152026904D01*
X113585714Y-152122142D01*
X113633333Y-152169761D01*
X113728571Y-152217380D01*
X114014285Y-152217380D01*
X114109523Y-152169761D01*
X114157142Y-152122142D01*
X98607619Y-150159404D02*
X99607619Y-150159404D01*
X99607619Y-149921309D01*
X99560000Y-149778452D01*
X99464761Y-149683214D01*
X99369523Y-149635595D01*
X99179047Y-149587976D01*
X99036190Y-149587976D01*
X98845714Y-149635595D01*
X98750476Y-149683214D01*
X98655238Y-149778452D01*
X98607619Y-149921309D01*
X98607619Y-150159404D01*
X99607619Y-149254642D02*
X99607619Y-148635595D01*
X99226666Y-148968928D01*
X99226666Y-148826071D01*
X99179047Y-148730833D01*
X99131428Y-148683214D01*
X99036190Y-148635595D01*
X98798095Y-148635595D01*
X98702857Y-148683214D01*
X98655238Y-148730833D01*
X98607619Y-148826071D01*
X98607619Y-149111785D01*
X98655238Y-149207023D01*
X98702857Y-149254642D01*
X83748571Y-150159404D02*
X83748571Y-149397500D01*
X83367619Y-149778452D02*
X84129523Y-149778452D01*
X84367619Y-148445119D02*
X84367619Y-148921309D01*
X83891428Y-148968928D01*
X83939047Y-148921309D01*
X83986666Y-148826071D01*
X83986666Y-148587976D01*
X83939047Y-148492738D01*
X83891428Y-148445119D01*
X83796190Y-148397500D01*
X83558095Y-148397500D01*
X83462857Y-148445119D01*
X83415238Y-148492738D01*
X83367619Y-148587976D01*
X83367619Y-148826071D01*
X83415238Y-148921309D01*
X83462857Y-148968928D01*
X132270476Y-152217380D02*
X132080000Y-152217380D01*
X131984761Y-152169761D01*
X131937142Y-152122142D01*
X131841904Y-151979285D01*
X131794285Y-151788809D01*
X131794285Y-151407857D01*
X131841904Y-151312619D01*
X131889523Y-151265000D01*
X131984761Y-151217380D01*
X132175238Y-151217380D01*
X132270476Y-151265000D01*
X132318095Y-151312619D01*
X132365714Y-151407857D01*
X132365714Y-151645952D01*
X132318095Y-151741190D01*
X132270476Y-151788809D01*
X132175238Y-151836428D01*
X131984761Y-151836428D01*
X131889523Y-151788809D01*
X131841904Y-151741190D01*
X131794285Y-151645952D01*
X88828571Y-138445714D02*
X88828571Y-137683809D01*
X88447619Y-138064761D02*
X89209523Y-138064761D01*
X89447619Y-136731428D02*
X89447619Y-137207619D01*
X88971428Y-137255238D01*
X89019047Y-137207619D01*
X89066666Y-137112380D01*
X89066666Y-136874285D01*
X89019047Y-136779047D01*
X88971428Y-136731428D01*
X88876190Y-136683809D01*
X88638095Y-136683809D01*
X88542857Y-136731428D01*
X88495238Y-136779047D01*
X88447619Y-136874285D01*
X88447619Y-137112380D01*
X88495238Y-137207619D01*
X88542857Y-137255238D01*
X89447619Y-136398095D02*
X88447619Y-136064761D01*
X89447619Y-135731428D01*
X112521904Y-111260000D02*
X112617142Y-111212380D01*
X112760000Y-111212380D01*
X112902857Y-111260000D01*
X112998095Y-111355238D01*
X113045714Y-111450476D01*
X113093333Y-111640952D01*
X113093333Y-111783809D01*
X113045714Y-111974285D01*
X112998095Y-112069523D01*
X112902857Y-112164761D01*
X112760000Y-112212380D01*
X112664761Y-112212380D01*
X112521904Y-112164761D01*
X112474285Y-112117142D01*
X112474285Y-111783809D01*
X112664761Y-111783809D01*
X112045714Y-112212380D02*
X112045714Y-111212380D01*
X111474285Y-112212380D01*
X111474285Y-111212380D01*
X110998095Y-112212380D02*
X110998095Y-111212380D01*
X110760000Y-111212380D01*
X110617142Y-111260000D01*
X110521904Y-111355238D01*
X110474285Y-111450476D01*
X110426666Y-111640952D01*
X110426666Y-111783809D01*
X110474285Y-111974285D01*
X110521904Y-112069523D01*
X110617142Y-112164761D01*
X110760000Y-112212380D01*
X110998095Y-112212380D01*
X96067619Y-150159404D02*
X97067619Y-150159404D01*
X97067619Y-149921309D01*
X97020000Y-149778452D01*
X96924761Y-149683214D01*
X96829523Y-149635595D01*
X96639047Y-149587976D01*
X96496190Y-149587976D01*
X96305714Y-149635595D01*
X96210476Y-149683214D01*
X96115238Y-149778452D01*
X96067619Y-149921309D01*
X96067619Y-150159404D01*
X97067619Y-148683214D02*
X97067619Y-149159404D01*
X96591428Y-149207023D01*
X96639047Y-149159404D01*
X96686666Y-149064166D01*
X96686666Y-148826071D01*
X96639047Y-148730833D01*
X96591428Y-148683214D01*
X96496190Y-148635595D01*
X96258095Y-148635595D01*
X96162857Y-148683214D01*
X96115238Y-148730833D01*
X96067619Y-148826071D01*
X96067619Y-149064166D01*
X96115238Y-149159404D01*
X96162857Y-149207023D01*
X136921904Y-151217380D02*
X137398095Y-151217380D01*
X137445714Y-151693571D01*
X137398095Y-151645952D01*
X137302857Y-151598333D01*
X137064761Y-151598333D01*
X136969523Y-151645952D01*
X136921904Y-151693571D01*
X136874285Y-151788809D01*
X136874285Y-152026904D01*
X136921904Y-152122142D01*
X136969523Y-152169761D01*
X137064761Y-152217380D01*
X137302857Y-152217380D01*
X137398095Y-152169761D01*
X137445714Y-152122142D01*
X80875238Y-150207023D02*
X80827619Y-150064166D01*
X80827619Y-149826071D01*
X80875238Y-149730833D01*
X80922857Y-149683214D01*
X81018095Y-149635595D01*
X81113333Y-149635595D01*
X81208571Y-149683214D01*
X81256190Y-149730833D01*
X81303809Y-149826071D01*
X81351428Y-150016547D01*
X81399047Y-150111785D01*
X81446666Y-150159404D01*
X81541904Y-150207023D01*
X81637142Y-150207023D01*
X81732380Y-150159404D01*
X81780000Y-150111785D01*
X81827619Y-150016547D01*
X81827619Y-149778452D01*
X81780000Y-149635595D01*
X80827619Y-149207023D02*
X81827619Y-149207023D01*
X80827619Y-148635595D01*
X81827619Y-148635595D01*
X80827619Y-148159404D02*
X81827619Y-148159404D01*
X81827619Y-147921309D01*
X81780000Y-147778452D01*
X81684761Y-147683214D01*
X81589523Y-147635595D01*
X81399047Y-147587976D01*
X81256190Y-147587976D01*
X81065714Y-147635595D01*
X80970476Y-147683214D01*
X80875238Y-147778452D01*
X80827619Y-147921309D01*
X80827619Y-148159404D01*
X121753333Y-150207023D02*
X121753333Y-149730833D01*
X121467619Y-150302261D02*
X122467619Y-149968928D01*
X121467619Y-149635595D01*
X121467619Y-149254642D02*
X121467619Y-149064166D01*
X121515238Y-148968928D01*
X121562857Y-148921309D01*
X121705714Y-148826071D01*
X121896190Y-148778452D01*
X122277142Y-148778452D01*
X122372380Y-148826071D01*
X122420000Y-148873690D01*
X122467619Y-148968928D01*
X122467619Y-149159404D01*
X122420000Y-149254642D01*
X122372380Y-149302261D01*
X122277142Y-149349880D01*
X122039047Y-149349880D01*
X121943809Y-149302261D01*
X121896190Y-149254642D01*
X121848571Y-149159404D01*
X121848571Y-148968928D01*
X121896190Y-148873690D01*
X121943809Y-148826071D01*
X122039047Y-148778452D01*
X124007619Y-149587976D02*
X124483809Y-149921309D01*
X124007619Y-150159404D02*
X125007619Y-150159404D01*
X125007619Y-149778452D01*
X124960000Y-149683214D01*
X124912380Y-149635595D01*
X124817142Y-149587976D01*
X124674285Y-149587976D01*
X124579047Y-149635595D01*
X124531428Y-149683214D01*
X124483809Y-149778452D01*
X124483809Y-150159404D01*
X124055238Y-149207023D02*
X124007619Y-149064166D01*
X124007619Y-148826071D01*
X124055238Y-148730833D01*
X124102857Y-148683214D01*
X124198095Y-148635595D01*
X124293333Y-148635595D01*
X124388571Y-148683214D01*
X124436190Y-148730833D01*
X124483809Y-148826071D01*
X124531428Y-149016547D01*
X124579047Y-149111785D01*
X124626666Y-149159404D01*
X124721904Y-149207023D01*
X124817142Y-149207023D01*
X124912380Y-149159404D01*
X124960000Y-149111785D01*
X125007619Y-149016547D01*
X125007619Y-148778452D01*
X124960000Y-148635595D01*
X125007619Y-148349880D02*
X125007619Y-147778452D01*
X124007619Y-148064166D02*
X125007619Y-148064166D01*
X139342857Y-149587976D02*
X139295238Y-149635595D01*
X139247619Y-149778452D01*
X139247619Y-149873690D01*
X139295238Y-150016547D01*
X139390476Y-150111785D01*
X139485714Y-150159404D01*
X139676190Y-150207023D01*
X139819047Y-150207023D01*
X140009523Y-150159404D01*
X140104761Y-150111785D01*
X140200000Y-150016547D01*
X140247619Y-149873690D01*
X140247619Y-149778452D01*
X140200000Y-149635595D01*
X140152380Y-149587976D01*
X139295238Y-149207023D02*
X139247619Y-149064166D01*
X139247619Y-148826071D01*
X139295238Y-148730833D01*
X139342857Y-148683214D01*
X139438095Y-148635595D01*
X139533333Y-148635595D01*
X139628571Y-148683214D01*
X139676190Y-148730833D01*
X139723809Y-148826071D01*
X139771428Y-149016547D01*
X139819047Y-149111785D01*
X139866666Y-149159404D01*
X139961904Y-149207023D01*
X140057142Y-149207023D01*
X140152380Y-149159404D01*
X140200000Y-149111785D01*
X140247619Y-149016547D01*
X140247619Y-148778452D01*
X140200000Y-148635595D01*
X139247619Y-147683214D02*
X139247619Y-148254642D01*
X139247619Y-147968928D02*
X140247619Y-147968928D01*
X140104761Y-148064166D01*
X140009523Y-148159404D01*
X139961904Y-148254642D01*
X140152380Y-147302261D02*
X140200000Y-147254642D01*
X140247619Y-147159404D01*
X140247619Y-146921309D01*
X140200000Y-146826071D01*
X140152380Y-146778452D01*
X140057142Y-146730833D01*
X139961904Y-146730833D01*
X139819047Y-146778452D01*
X139247619Y-147349880D01*
X139247619Y-146730833D01*
X101147619Y-150159404D02*
X102147619Y-150159404D01*
X102147619Y-149921309D01*
X102100000Y-149778452D01*
X102004761Y-149683214D01*
X101909523Y-149635595D01*
X101719047Y-149587976D01*
X101576190Y-149587976D01*
X101385714Y-149635595D01*
X101290476Y-149683214D01*
X101195238Y-149778452D01*
X101147619Y-149921309D01*
X101147619Y-150159404D01*
X101147619Y-148635595D02*
X101147619Y-149207023D01*
X101147619Y-148921309D02*
X102147619Y-148921309D01*
X102004761Y-149016547D01*
X101909523Y-149111785D01*
X101861904Y-149207023D01*
X117601904Y-151312619D02*
X117554285Y-151265000D01*
X117459047Y-151217380D01*
X117220952Y-151217380D01*
X117125714Y-151265000D01*
X117078095Y-151312619D01*
X117030476Y-151407857D01*
X117030476Y-151503095D01*
X117078095Y-151645952D01*
X117649523Y-152217380D01*
X117030476Y-152217380D01*
X116078095Y-152217380D02*
X116649523Y-152217380D01*
X116363809Y-152217380D02*
X116363809Y-151217380D01*
X116459047Y-151360238D01*
X116554285Y-151455476D01*
X116649523Y-151503095D01*
X91725714Y-151550714D02*
X91725714Y-152217380D01*
X91963809Y-151169761D02*
X92201904Y-151884047D01*
X91582857Y-151884047D01*
X90678095Y-152217380D02*
X91249523Y-152217380D01*
X90963809Y-152217380D02*
X90963809Y-151217380D01*
X91059047Y-151360238D01*
X91154285Y-151455476D01*
X91249523Y-151503095D01*
X94789523Y-151217380D02*
X94170476Y-151217380D01*
X94503809Y-151598333D01*
X94360952Y-151598333D01*
X94265714Y-151645952D01*
X94218095Y-151693571D01*
X94170476Y-151788809D01*
X94170476Y-152026904D01*
X94218095Y-152122142D01*
X94265714Y-152169761D01*
X94360952Y-152217380D01*
X94646666Y-152217380D01*
X94741904Y-152169761D01*
X94789523Y-152122142D01*
X93694285Y-152217380D02*
X93503809Y-152217380D01*
X93408571Y-152169761D01*
X93360952Y-152122142D01*
X93265714Y-151979285D01*
X93218095Y-151788809D01*
X93218095Y-151407857D01*
X93265714Y-151312619D01*
X93313333Y-151265000D01*
X93408571Y-151217380D01*
X93599047Y-151217380D01*
X93694285Y-151265000D01*
X93741904Y-151312619D01*
X93789523Y-151407857D01*
X93789523Y-151645952D01*
X93741904Y-151741190D01*
X93694285Y-151788809D01*
X93599047Y-151836428D01*
X93408571Y-151836428D01*
X93313333Y-151788809D01*
X93265714Y-151741190D01*
X93218095Y-151645952D01*
X127547619Y-150254642D02*
X126547619Y-150016547D01*
X127261904Y-149826071D01*
X126547619Y-149635595D01*
X127547619Y-149397500D01*
X126547619Y-148445119D02*
X127023809Y-148778452D01*
X126547619Y-149016547D02*
X127547619Y-149016547D01*
X127547619Y-148635595D01*
X127500000Y-148540357D01*
X127452380Y-148492738D01*
X127357142Y-148445119D01*
X127214285Y-148445119D01*
X127119047Y-148492738D01*
X127071428Y-148540357D01*
X127023809Y-148635595D01*
X127023809Y-149016547D01*
X140033333Y-151217380D02*
X139414285Y-151217380D01*
X139747619Y-151598333D01*
X139604761Y-151598333D01*
X139509523Y-151645952D01*
X139461904Y-151693571D01*
X139414285Y-151788809D01*
X139414285Y-152026904D01*
X139461904Y-152122142D01*
X139509523Y-152169761D01*
X139604761Y-152217380D01*
X139890476Y-152217380D01*
X139985714Y-152169761D01*
X140033333Y-152122142D01*
X124650476Y-152217380D02*
X125221904Y-152217380D01*
X124936190Y-152217380D02*
X124936190Y-151217380D01*
X125031428Y-151360238D01*
X125126666Y-151455476D01*
X125221904Y-151503095D01*
X123745714Y-151217380D02*
X124221904Y-151217380D01*
X124269523Y-151693571D01*
X124221904Y-151645952D01*
X124126666Y-151598333D01*
X123888571Y-151598333D01*
X123793333Y-151645952D01*
X123745714Y-151693571D01*
X123698095Y-151788809D01*
X123698095Y-152026904D01*
X123745714Y-152122142D01*
X123793333Y-152169761D01*
X123888571Y-152217380D01*
X124126666Y-152217380D01*
X124221904Y-152169761D01*
X124269523Y-152122142D01*
X112521904Y-151312619D02*
X112474285Y-151265000D01*
X112379047Y-151217380D01*
X112140952Y-151217380D01*
X112045714Y-151265000D01*
X111998095Y-151312619D01*
X111950476Y-151407857D01*
X111950476Y-151503095D01*
X111998095Y-151645952D01*
X112569523Y-152217380D01*
X111950476Y-152217380D01*
X111045714Y-151217380D02*
X111521904Y-151217380D01*
X111569523Y-151693571D01*
X111521904Y-151645952D01*
X111426666Y-151598333D01*
X111188571Y-151598333D01*
X111093333Y-151645952D01*
X111045714Y-151693571D01*
X110998095Y-151788809D01*
X110998095Y-152026904D01*
X111045714Y-152122142D01*
X111093333Y-152169761D01*
X111188571Y-152217380D01*
X111426666Y-152217380D01*
X111521904Y-152169761D01*
X111569523Y-152122142D01*
X106513333Y-150207023D02*
X106513333Y-149730833D01*
X106227619Y-150302261D02*
X107227619Y-149968928D01*
X106227619Y-149635595D01*
X107227619Y-149397500D02*
X107227619Y-148778452D01*
X106846666Y-149111785D01*
X106846666Y-148968928D01*
X106799047Y-148873690D01*
X106751428Y-148826071D01*
X106656190Y-148778452D01*
X106418095Y-148778452D01*
X106322857Y-148826071D01*
X106275238Y-148873690D01*
X106227619Y-148968928D01*
X106227619Y-149254642D01*
X106275238Y-149349880D01*
X106322857Y-149397500D01*
X113783809Y-104306666D02*
X113307619Y-104306666D01*
X113879047Y-104592380D02*
X113545714Y-103592380D01*
X113212380Y-104592380D01*
X112879047Y-103592380D02*
X112879047Y-104401904D01*
X112831428Y-104497142D01*
X112783809Y-104544761D01*
X112688571Y-104592380D01*
X112498095Y-104592380D01*
X112402857Y-104544761D01*
X112355238Y-104497142D01*
X112307619Y-104401904D01*
X112307619Y-103592380D01*
X111831428Y-104592380D02*
X111831428Y-103592380D01*
X111593333Y-103592380D01*
X111450476Y-103640000D01*
X111355238Y-103735238D01*
X111307619Y-103830476D01*
X111260000Y-104020952D01*
X111260000Y-104163809D01*
X111307619Y-104354285D01*
X111355238Y-104449523D01*
X111450476Y-104544761D01*
X111593333Y-104592380D01*
X111831428Y-104592380D01*
X110831428Y-104592380D02*
X110831428Y-103592380D01*
X110164761Y-103592380D02*
X109974285Y-103592380D01*
X109879047Y-103640000D01*
X109783809Y-103735238D01*
X109736190Y-103925714D01*
X109736190Y-104259047D01*
X109783809Y-104449523D01*
X109879047Y-104544761D01*
X109974285Y-104592380D01*
X110164761Y-104592380D01*
X110260000Y-104544761D01*
X110355238Y-104449523D01*
X110402857Y-104259047D01*
X110402857Y-103925714D01*
X110355238Y-103735238D01*
X110260000Y-103640000D01*
X110164761Y-103592380D01*
X127190476Y-152217380D02*
X127761904Y-152217380D01*
X127476190Y-152217380D02*
X127476190Y-151217380D01*
X127571428Y-151360238D01*
X127666666Y-151455476D01*
X127761904Y-151503095D01*
X126857142Y-151217380D02*
X126238095Y-151217380D01*
X126571428Y-151598333D01*
X126428571Y-151598333D01*
X126333333Y-151645952D01*
X126285714Y-151693571D01*
X126238095Y-151788809D01*
X126238095Y-152026904D01*
X126285714Y-152122142D01*
X126333333Y-152169761D01*
X126428571Y-152217380D01*
X126714285Y-152217380D01*
X126809523Y-152169761D01*
X126857142Y-152122142D01*
X89400000Y-149635595D02*
X89447619Y-149730833D01*
X89447619Y-149873690D01*
X89400000Y-150016547D01*
X89304761Y-150111785D01*
X89209523Y-150159404D01*
X89019047Y-150207023D01*
X88876190Y-150207023D01*
X88685714Y-150159404D01*
X88590476Y-150111785D01*
X88495238Y-150016547D01*
X88447619Y-149873690D01*
X88447619Y-149778452D01*
X88495238Y-149635595D01*
X88542857Y-149587976D01*
X88876190Y-149587976D01*
X88876190Y-149778452D01*
X88447619Y-149159404D02*
X89447619Y-149159404D01*
X88447619Y-148587976D01*
X89447619Y-148587976D01*
X88447619Y-148111785D02*
X89447619Y-148111785D01*
X89447619Y-147873690D01*
X89400000Y-147730833D01*
X89304761Y-147635595D01*
X89209523Y-147587976D01*
X89019047Y-147540357D01*
X88876190Y-147540357D01*
X88685714Y-147587976D01*
X88590476Y-147635595D01*
X88495238Y-147730833D01*
X88447619Y-147873690D01*
X88447619Y-148111785D01*
X141882857Y-149587976D02*
X141835238Y-149635595D01*
X141787619Y-149778452D01*
X141787619Y-149873690D01*
X141835238Y-150016547D01*
X141930476Y-150111785D01*
X142025714Y-150159404D01*
X142216190Y-150207023D01*
X142359047Y-150207023D01*
X142549523Y-150159404D01*
X142644761Y-150111785D01*
X142740000Y-150016547D01*
X142787619Y-149873690D01*
X142787619Y-149778452D01*
X142740000Y-149635595D01*
X142692380Y-149587976D01*
X141835238Y-149207023D02*
X141787619Y-149064166D01*
X141787619Y-148826071D01*
X141835238Y-148730833D01*
X141882857Y-148683214D01*
X141978095Y-148635595D01*
X142073333Y-148635595D01*
X142168571Y-148683214D01*
X142216190Y-148730833D01*
X142263809Y-148826071D01*
X142311428Y-149016547D01*
X142359047Y-149111785D01*
X142406666Y-149159404D01*
X142501904Y-149207023D01*
X142597142Y-149207023D01*
X142692380Y-149159404D01*
X142740000Y-149111785D01*
X142787619Y-149016547D01*
X142787619Y-148778452D01*
X142740000Y-148635595D01*
X141787619Y-147683214D02*
X141787619Y-148254642D01*
X141787619Y-147968928D02*
X142787619Y-147968928D01*
X142644761Y-148064166D01*
X142549523Y-148159404D01*
X142501904Y-148254642D01*
X116673333Y-150207023D02*
X116673333Y-149730833D01*
X116387619Y-150302261D02*
X117387619Y-149968928D01*
X116387619Y-149635595D01*
X117387619Y-149397500D02*
X117387619Y-148730833D01*
X116387619Y-149159404D01*
X86645714Y-151550714D02*
X86645714Y-152217380D01*
X86883809Y-151169761D02*
X87121904Y-151884047D01*
X86502857Y-151884047D01*
X85645714Y-151217380D02*
X86121904Y-151217380D01*
X86169523Y-151693571D01*
X86121904Y-151645952D01*
X86026666Y-151598333D01*
X85788571Y-151598333D01*
X85693333Y-151645952D01*
X85645714Y-151693571D01*
X85598095Y-151788809D01*
X85598095Y-152026904D01*
X85645714Y-152122142D01*
X85693333Y-152169761D01*
X85788571Y-152217380D01*
X86026666Y-152217380D01*
X86121904Y-152169761D01*
X86169523Y-152122142D01*
X134953333Y-151217380D02*
X134286666Y-151217380D01*
X134715238Y-152217380D01*
X129087619Y-150159404D02*
X130087619Y-150159404D01*
X129087619Y-149111785D02*
X129563809Y-149445119D01*
X129087619Y-149683214D02*
X130087619Y-149683214D01*
X130087619Y-149302261D01*
X130040000Y-149207023D01*
X129992380Y-149159404D01*
X129897142Y-149111785D01*
X129754285Y-149111785D01*
X129659047Y-149159404D01*
X129611428Y-149207023D01*
X129563809Y-149302261D01*
X129563809Y-149683214D01*
X128992380Y-148016547D02*
X129040000Y-148111785D01*
X129135238Y-148207023D01*
X129278095Y-148349880D01*
X129325714Y-148445119D01*
X129325714Y-148540357D01*
X129087619Y-148492738D02*
X129135238Y-148587976D01*
X129230476Y-148683214D01*
X129420952Y-148730833D01*
X129754285Y-148730833D01*
X129944761Y-148683214D01*
X130040000Y-148587976D01*
X130087619Y-148492738D01*
X130087619Y-148302261D01*
X130040000Y-148207023D01*
X129944761Y-148111785D01*
X129754285Y-148064166D01*
X129420952Y-148064166D01*
X129230476Y-148111785D01*
X129135238Y-148207023D01*
X129087619Y-148302261D01*
X129087619Y-148492738D01*
X104949523Y-151217380D02*
X104330476Y-151217380D01*
X104663809Y-151598333D01*
X104520952Y-151598333D01*
X104425714Y-151645952D01*
X104378095Y-151693571D01*
X104330476Y-151788809D01*
X104330476Y-152026904D01*
X104378095Y-152122142D01*
X104425714Y-152169761D01*
X104520952Y-152217380D01*
X104806666Y-152217380D01*
X104901904Y-152169761D01*
X104949523Y-152122142D01*
X103378095Y-152217380D02*
X103949523Y-152217380D01*
X103663809Y-152217380D02*
X103663809Y-151217380D01*
X103759047Y-151360238D01*
X103854285Y-151455476D01*
X103949523Y-151503095D01*
X111593333Y-150207023D02*
X111593333Y-149730833D01*
X111307619Y-150302261D02*
X112307619Y-149968928D01*
X111307619Y-149635595D01*
X111307619Y-148778452D02*
X111307619Y-149349880D01*
X111307619Y-149064166D02*
X112307619Y-149064166D01*
X112164761Y-149159404D01*
X112069523Y-149254642D01*
X112021904Y-149349880D01*
X111974285Y-147921309D02*
X111307619Y-147921309D01*
X112355238Y-148159404D02*
X111640952Y-148397500D01*
X111640952Y-147778452D01*
X114133333Y-150207023D02*
X114133333Y-149730833D01*
X113847619Y-150302261D02*
X114847619Y-149968928D01*
X113847619Y-149635595D01*
X113847619Y-148778452D02*
X113847619Y-149349880D01*
X113847619Y-149064166D02*
X114847619Y-149064166D01*
X114704761Y-149159404D01*
X114609523Y-149254642D01*
X114561904Y-149349880D01*
X114752380Y-148397500D02*
X114800000Y-148349880D01*
X114847619Y-148254642D01*
X114847619Y-148016547D01*
X114800000Y-147921309D01*
X114752380Y-147873690D01*
X114657142Y-147826071D01*
X114561904Y-147826071D01*
X114419047Y-147873690D01*
X113847619Y-148445119D01*
X113847619Y-147826071D01*
X109053333Y-150207023D02*
X109053333Y-149730833D01*
X108767619Y-150302261D02*
X109767619Y-149968928D01*
X108767619Y-149635595D01*
X108767619Y-148778452D02*
X108767619Y-149349880D01*
X108767619Y-149064166D02*
X109767619Y-149064166D01*
X109624761Y-149159404D01*
X109529523Y-149254642D01*
X109481904Y-149349880D01*
X91940000Y-149635595D02*
X91987619Y-149730833D01*
X91987619Y-149873690D01*
X91940000Y-150016547D01*
X91844761Y-150111785D01*
X91749523Y-150159404D01*
X91559047Y-150207023D01*
X91416190Y-150207023D01*
X91225714Y-150159404D01*
X91130476Y-150111785D01*
X91035238Y-150016547D01*
X90987619Y-149873690D01*
X90987619Y-149778452D01*
X91035238Y-149635595D01*
X91082857Y-149587976D01*
X91416190Y-149587976D01*
X91416190Y-149778452D01*
X90987619Y-149159404D02*
X91987619Y-149159404D01*
X90987619Y-148587976D01*
X91987619Y-148587976D01*
X90987619Y-148111785D02*
X91987619Y-148111785D01*
X91987619Y-147873690D01*
X91940000Y-147730833D01*
X91844761Y-147635595D01*
X91749523Y-147587976D01*
X91559047Y-147540357D01*
X91416190Y-147540357D01*
X91225714Y-147587976D01*
X91130476Y-147635595D01*
X91035238Y-147730833D01*
X90987619Y-147873690D01*
X90987619Y-148111785D01*
X102409523Y-151217380D02*
X101790476Y-151217380D01*
X102123809Y-151598333D01*
X101980952Y-151598333D01*
X101885714Y-151645952D01*
X101838095Y-151693571D01*
X101790476Y-151788809D01*
X101790476Y-152026904D01*
X101838095Y-152122142D01*
X101885714Y-152169761D01*
X101980952Y-152217380D01*
X102266666Y-152217380D01*
X102361904Y-152169761D01*
X102409523Y-152122142D01*
X101457142Y-151217380D02*
X100838095Y-151217380D01*
X101171428Y-151598333D01*
X101028571Y-151598333D01*
X100933333Y-151645952D01*
X100885714Y-151693571D01*
X100838095Y-151788809D01*
X100838095Y-152026904D01*
X100885714Y-152122142D01*
X100933333Y-152169761D01*
X101028571Y-152217380D01*
X101314285Y-152217380D01*
X101409523Y-152169761D01*
X101457142Y-152122142D01*
X97020000Y-137921904D02*
X97067619Y-138017142D01*
X97067619Y-138160000D01*
X97020000Y-138302857D01*
X96924761Y-138398095D01*
X96829523Y-138445714D01*
X96639047Y-138493333D01*
X96496190Y-138493333D01*
X96305714Y-138445714D01*
X96210476Y-138398095D01*
X96115238Y-138302857D01*
X96067619Y-138160000D01*
X96067619Y-138064761D01*
X96115238Y-137921904D01*
X96162857Y-137874285D01*
X96496190Y-137874285D01*
X96496190Y-138064761D01*
X96067619Y-137445714D02*
X97067619Y-137445714D01*
X96067619Y-136874285D01*
X97067619Y-136874285D01*
X96067619Y-136398095D02*
X97067619Y-136398095D01*
X97067619Y-136160000D01*
X97020000Y-136017142D01*
X96924761Y-135921904D01*
X96829523Y-135874285D01*
X96639047Y-135826666D01*
X96496190Y-135826666D01*
X96305714Y-135874285D01*
X96210476Y-135921904D01*
X96115238Y-136017142D01*
X96067619Y-136160000D01*
X96067619Y-136398095D01*
X99869523Y-151217380D02*
X99250476Y-151217380D01*
X99583809Y-151598333D01*
X99440952Y-151598333D01*
X99345714Y-151645952D01*
X99298095Y-151693571D01*
X99250476Y-151788809D01*
X99250476Y-152026904D01*
X99298095Y-152122142D01*
X99345714Y-152169761D01*
X99440952Y-152217380D01*
X99726666Y-152217380D01*
X99821904Y-152169761D01*
X99869523Y-152122142D01*
X98345714Y-151217380D02*
X98821904Y-151217380D01*
X98869523Y-151693571D01*
X98821904Y-151645952D01*
X98726666Y-151598333D01*
X98488571Y-151598333D01*
X98393333Y-151645952D01*
X98345714Y-151693571D01*
X98298095Y-151788809D01*
X98298095Y-152026904D01*
X98345714Y-152122142D01*
X98393333Y-152169761D01*
X98488571Y-152217380D01*
X98726666Y-152217380D01*
X98821904Y-152169761D01*
X98869523Y-152122142D01*
X97329523Y-151217380D02*
X96710476Y-151217380D01*
X97043809Y-151598333D01*
X96900952Y-151598333D01*
X96805714Y-151645952D01*
X96758095Y-151693571D01*
X96710476Y-151788809D01*
X96710476Y-152026904D01*
X96758095Y-152122142D01*
X96805714Y-152169761D01*
X96900952Y-152217380D01*
X97186666Y-152217380D01*
X97281904Y-152169761D01*
X97329523Y-152122142D01*
X96377142Y-151217380D02*
X95710476Y-151217380D01*
X96139047Y-152217380D01*
X119213333Y-150207023D02*
X119213333Y-149730833D01*
X118927619Y-150302261D02*
X119927619Y-149968928D01*
X118927619Y-149635595D01*
X118927619Y-148778452D02*
X118927619Y-149349880D01*
X118927619Y-149064166D02*
X119927619Y-149064166D01*
X119784761Y-149159404D01*
X119689523Y-149254642D01*
X119641904Y-149349880D01*
X118927619Y-147826071D02*
X118927619Y-148397500D01*
X118927619Y-148111785D02*
X119927619Y-148111785D01*
X119784761Y-148207023D01*
X119689523Y-148302261D01*
X119641904Y-148397500D01*
X135167619Y-150254642D02*
X134167619Y-150016547D01*
X134881904Y-149826071D01*
X134167619Y-149635595D01*
X135167619Y-149397500D01*
X134453333Y-149064166D02*
X134453333Y-148587976D01*
X134167619Y-149159404D02*
X135167619Y-148826071D01*
X134167619Y-148492738D01*
X134167619Y-148159404D02*
X135167619Y-148159404D01*
X135167619Y-147826071D02*
X135167619Y-147254642D01*
X134167619Y-147540357D02*
X135167619Y-147540357D01*
X129730476Y-152217380D02*
X130301904Y-152217380D01*
X130016190Y-152217380D02*
X130016190Y-151217380D01*
X130111428Y-151360238D01*
X130206666Y-151455476D01*
X130301904Y-151503095D01*
X128778095Y-152217380D02*
X129349523Y-152217380D01*
X129063809Y-152217380D02*
X129063809Y-151217380D01*
X129159047Y-151360238D01*
X129254285Y-151455476D01*
X129349523Y-151503095D01*
X84105714Y-151550714D02*
X84105714Y-152217380D01*
X84343809Y-151169761D02*
X84581904Y-151884047D01*
X83962857Y-151884047D01*
X83677142Y-151217380D02*
X83010476Y-151217380D01*
X83439047Y-152217380D01*
X122110476Y-152217380D02*
X122681904Y-152217380D01*
X122396190Y-152217380D02*
X122396190Y-151217380D01*
X122491428Y-151360238D01*
X122586666Y-151455476D01*
X122681904Y-151503095D01*
X121777142Y-151217380D02*
X121110476Y-151217380D01*
X121539047Y-152217380D01*
X119570476Y-152217380D02*
X120141904Y-152217380D01*
X119856190Y-152217380D02*
X119856190Y-151217380D01*
X119951428Y-151360238D01*
X120046666Y-151455476D01*
X120141904Y-151503095D01*
X119094285Y-152217380D02*
X118903809Y-152217380D01*
X118808571Y-152169761D01*
X118760952Y-152122142D01*
X118665714Y-151979285D01*
X118618095Y-151788809D01*
X118618095Y-151407857D01*
X118665714Y-151312619D01*
X118713333Y-151265000D01*
X118808571Y-151217380D01*
X118999047Y-151217380D01*
X119094285Y-151265000D01*
X119141904Y-151312619D01*
X119189523Y-151407857D01*
X119189523Y-151645952D01*
X119141904Y-151741190D01*
X119094285Y-151788809D01*
X118999047Y-151836428D01*
X118808571Y-151836428D01*
X118713333Y-151788809D01*
X118665714Y-151741190D01*
X118618095Y-151645952D01*
X86288571Y-150159404D02*
X86288571Y-149397500D01*
X85907619Y-149778452D02*
X86669523Y-149778452D01*
X86907619Y-148445119D02*
X86907619Y-148921309D01*
X86431428Y-148968928D01*
X86479047Y-148921309D01*
X86526666Y-148826071D01*
X86526666Y-148587976D01*
X86479047Y-148492738D01*
X86431428Y-148445119D01*
X86336190Y-148397500D01*
X86098095Y-148397500D01*
X86002857Y-148445119D01*
X85955238Y-148492738D01*
X85907619Y-148587976D01*
X85907619Y-148826071D01*
X85955238Y-148921309D01*
X86002857Y-148968928D01*
X81565714Y-151550714D02*
X81565714Y-152217380D01*
X81803809Y-151169761D02*
X82041904Y-151884047D01*
X81422857Y-151884047D01*
X80994285Y-152217380D02*
X80803809Y-152217380D01*
X80708571Y-152169761D01*
X80660952Y-152122142D01*
X80565714Y-151979285D01*
X80518095Y-151788809D01*
X80518095Y-151407857D01*
X80565714Y-151312619D01*
X80613333Y-151265000D01*
X80708571Y-151217380D01*
X80899047Y-151217380D01*
X80994285Y-151265000D01*
X81041904Y-151312619D01*
X81089523Y-151407857D01*
X81089523Y-151645952D01*
X81041904Y-151741190D01*
X80994285Y-151788809D01*
X80899047Y-151836428D01*
X80708571Y-151836428D01*
X80613333Y-151788809D01*
X80565714Y-151741190D01*
X80518095Y-151645952D01*
X109981904Y-151312619D02*
X109934285Y-151265000D01*
X109839047Y-151217380D01*
X109600952Y-151217380D01*
X109505714Y-151265000D01*
X109458095Y-151312619D01*
X109410476Y-151407857D01*
X109410476Y-151503095D01*
X109458095Y-151645952D01*
X110029523Y-152217380D01*
X109410476Y-152217380D01*
X109077142Y-151217380D02*
X108410476Y-151217380D01*
X108839047Y-152217380D01*
X107441904Y-151312619D02*
X107394285Y-151265000D01*
X107299047Y-151217380D01*
X107060952Y-151217380D01*
X106965714Y-151265000D01*
X106918095Y-151312619D01*
X106870476Y-151407857D01*
X106870476Y-151503095D01*
X106918095Y-151645952D01*
X107489523Y-152217380D01*
X106870476Y-152217380D01*
X106394285Y-152217380D02*
X106203809Y-152217380D01*
X106108571Y-152169761D01*
X106060952Y-152122142D01*
X105965714Y-151979285D01*
X105918095Y-151788809D01*
X105918095Y-151407857D01*
X105965714Y-151312619D01*
X106013333Y-151265000D01*
X106108571Y-151217380D01*
X106299047Y-151217380D01*
X106394285Y-151265000D01*
X106441904Y-151312619D01*
X106489523Y-151407857D01*
X106489523Y-151645952D01*
X106441904Y-151741190D01*
X106394285Y-151788809D01*
X106299047Y-151836428D01*
X106108571Y-151836428D01*
X106013333Y-151788809D01*
X105965714Y-151741190D01*
X105918095Y-151645952D01*
X93527619Y-150159404D02*
X94527619Y-150159404D01*
X94527619Y-149921309D01*
X94480000Y-149778452D01*
X94384761Y-149683214D01*
X94289523Y-149635595D01*
X94099047Y-149587976D01*
X93956190Y-149587976D01*
X93765714Y-149635595D01*
X93670476Y-149683214D01*
X93575238Y-149778452D01*
X93527619Y-149921309D01*
X93527619Y-150159404D01*
X94527619Y-149254642D02*
X94527619Y-148587976D01*
X93527619Y-149016547D01*
D11*
X122176503Y-43062434D02*
X122222465Y-43108396D01*
X122360351Y-43154358D01*
X122452275Y-43154358D01*
X122590160Y-43108396D01*
X122682084Y-43016472D01*
X122728046Y-42924548D01*
X122774008Y-42740700D01*
X122774008Y-42602815D01*
X122728046Y-42418967D01*
X122682084Y-42327043D01*
X122590160Y-42235120D01*
X122452275Y-42189158D01*
X122360351Y-42189158D01*
X122222465Y-42235120D01*
X122176503Y-42281081D01*
X121808808Y-42281081D02*
X121762846Y-42235120D01*
X121670922Y-42189158D01*
X121441113Y-42189158D01*
X121349189Y-42235120D01*
X121303227Y-42281081D01*
X121257265Y-42373005D01*
X121257265Y-42464929D01*
X121303227Y-42602815D01*
X121854770Y-43154358D01*
X121257265Y-43154358D01*
D10*
X90336666Y-76652380D02*
X90670000Y-76176190D01*
X90908095Y-76652380D02*
X90908095Y-75652380D01*
X90527142Y-75652380D01*
X90431904Y-75700000D01*
X90384285Y-75747619D01*
X90336666Y-75842857D01*
X90336666Y-75985714D01*
X90384285Y-76080952D01*
X90431904Y-76128571D01*
X90527142Y-76176190D01*
X90908095Y-76176190D01*
X89384285Y-76652380D02*
X89955714Y-76652380D01*
X89670000Y-76652380D02*
X89670000Y-75652380D01*
X89765238Y-75795238D01*
X89860476Y-75890476D01*
X89955714Y-75938095D01*
X123951904Y-47922380D02*
X123951904Y-48731904D01*
X123904285Y-48827142D01*
X123856666Y-48874761D01*
X123761428Y-48922380D01*
X123570952Y-48922380D01*
X123475714Y-48874761D01*
X123428095Y-48827142D01*
X123380476Y-48731904D01*
X123380476Y-47922380D01*
X122951904Y-48017619D02*
X122904285Y-47970000D01*
X122809047Y-47922380D01*
X122570952Y-47922380D01*
X122475714Y-47970000D01*
X122428095Y-48017619D01*
X122380476Y-48112857D01*
X122380476Y-48208095D01*
X122428095Y-48350952D01*
X122999523Y-48922380D01*
X122380476Y-48922380D01*
X103036666Y-79351142D02*
X103084285Y-79398761D01*
X103227142Y-79446380D01*
X103322380Y-79446380D01*
X103465238Y-79398761D01*
X103560476Y-79303523D01*
X103608095Y-79208285D01*
X103655714Y-79017809D01*
X103655714Y-78874952D01*
X103608095Y-78684476D01*
X103560476Y-78589238D01*
X103465238Y-78494000D01*
X103322380Y-78446380D01*
X103227142Y-78446380D01*
X103084285Y-78494000D01*
X103036666Y-78541619D01*
X102131904Y-78446380D02*
X102608095Y-78446380D01*
X102655714Y-78922571D01*
X102608095Y-78874952D01*
X102512857Y-78827333D01*
X102274761Y-78827333D01*
X102179523Y-78874952D01*
X102131904Y-78922571D01*
X102084285Y-79017809D01*
X102084285Y-79255904D01*
X102131904Y-79351142D01*
X102179523Y-79398761D01*
X102274761Y-79446380D01*
X102512857Y-79446380D01*
X102608095Y-79398761D01*
X102655714Y-79351142D01*
X110910666Y-79351142D02*
X110958285Y-79398761D01*
X111101142Y-79446380D01*
X111196380Y-79446380D01*
X111339238Y-79398761D01*
X111434476Y-79303523D01*
X111482095Y-79208285D01*
X111529714Y-79017809D01*
X111529714Y-78874952D01*
X111482095Y-78684476D01*
X111434476Y-78589238D01*
X111339238Y-78494000D01*
X111196380Y-78446380D01*
X111101142Y-78446380D01*
X110958285Y-78494000D01*
X110910666Y-78541619D01*
X110053523Y-78446380D02*
X110244000Y-78446380D01*
X110339238Y-78494000D01*
X110386857Y-78541619D01*
X110482095Y-78684476D01*
X110529714Y-78874952D01*
X110529714Y-79255904D01*
X110482095Y-79351142D01*
X110434476Y-79398761D01*
X110339238Y-79446380D01*
X110148761Y-79446380D01*
X110053523Y-79398761D01*
X110005904Y-79351142D01*
X109958285Y-79255904D01*
X109958285Y-79017809D01*
X110005904Y-78922571D01*
X110053523Y-78874952D01*
X110148761Y-78827333D01*
X110339238Y-78827333D01*
X110434476Y-78874952D01*
X110482095Y-78922571D01*
X110529714Y-79017809D01*
D11*
X109623823Y-46090114D02*
X109669785Y-46136076D01*
X109807671Y-46182038D01*
X109899595Y-46182038D01*
X110037480Y-46136076D01*
X110129404Y-46044152D01*
X110175366Y-45952228D01*
X110221328Y-45768380D01*
X110221328Y-45630495D01*
X110175366Y-45446647D01*
X110129404Y-45354723D01*
X110037480Y-45262800D01*
X109899595Y-45216838D01*
X109807671Y-45216838D01*
X109669785Y-45262800D01*
X109623823Y-45308761D01*
X108796509Y-45538571D02*
X108796509Y-46182038D01*
X109026318Y-45170876D02*
X109256128Y-45860304D01*
X108658623Y-45860304D01*
X147576503Y-43062434D02*
X147622465Y-43108396D01*
X147760351Y-43154358D01*
X147852275Y-43154358D01*
X147990160Y-43108396D01*
X148082084Y-43016472D01*
X148128046Y-42924548D01*
X148174008Y-42740700D01*
X148174008Y-42602815D01*
X148128046Y-42418967D01*
X148082084Y-42327043D01*
X147990160Y-42235120D01*
X147852275Y-42189158D01*
X147760351Y-42189158D01*
X147622465Y-42235120D01*
X147576503Y-42281081D01*
X147254770Y-42189158D02*
X146657265Y-42189158D01*
X146978998Y-42556853D01*
X146841113Y-42556853D01*
X146749189Y-42602815D01*
X146703227Y-42648777D01*
X146657265Y-42740700D01*
X146657265Y-42970510D01*
X146703227Y-43062434D01*
X146749189Y-43108396D01*
X146841113Y-43154358D01*
X147116884Y-43154358D01*
X147208808Y-43108396D01*
X147254770Y-43062434D01*
D10*
X149351904Y-47922380D02*
X149351904Y-48731904D01*
X149304285Y-48827142D01*
X149256666Y-48874761D01*
X149161428Y-48922380D01*
X148970952Y-48922380D01*
X148875714Y-48874761D01*
X148828095Y-48827142D01*
X148780476Y-48731904D01*
X148780476Y-47922380D01*
X148399523Y-47922380D02*
X147780476Y-47922380D01*
X148113809Y-48303333D01*
X147970952Y-48303333D01*
X147875714Y-48350952D01*
X147828095Y-48398571D01*
X147780476Y-48493809D01*
X147780476Y-48731904D01*
X147828095Y-48827142D01*
X147875714Y-48874761D01*
X147970952Y-48922380D01*
X148256666Y-48922380D01*
X148351904Y-48874761D01*
X148399523Y-48827142D01*
X96583333Y-132227380D02*
X96583333Y-132941666D01*
X96630952Y-133084523D01*
X96726190Y-133179761D01*
X96869047Y-133227380D01*
X96964285Y-133227380D01*
X95583333Y-133227380D02*
X96154761Y-133227380D01*
X95869047Y-133227380D02*
X95869047Y-132227380D01*
X95964285Y-132370238D01*
X96059523Y-132465476D01*
X96154761Y-132513095D01*
X136651904Y-47922380D02*
X136651904Y-48731904D01*
X136604285Y-48827142D01*
X136556666Y-48874761D01*
X136461428Y-48922380D01*
X136270952Y-48922380D01*
X136175714Y-48874761D01*
X136128095Y-48827142D01*
X136080476Y-48731904D01*
X136080476Y-47922380D01*
X135080476Y-48922380D02*
X135651904Y-48922380D01*
X135366190Y-48922380D02*
X135366190Y-47922380D01*
X135461428Y-48065238D01*
X135556666Y-48160476D01*
X135651904Y-48208095D01*
X108672380Y-61468095D02*
X109481904Y-61468095D01*
X109577142Y-61515714D01*
X109624761Y-61563333D01*
X109672380Y-61658571D01*
X109672380Y-61849047D01*
X109624761Y-61944285D01*
X109577142Y-61991904D01*
X109481904Y-62039523D01*
X108672380Y-62039523D01*
X109005714Y-62944285D02*
X109672380Y-62944285D01*
X108624761Y-62706190D02*
X109339047Y-62468095D01*
X109339047Y-63087142D01*
D11*
X134876503Y-43062434D02*
X134922465Y-43108396D01*
X135060351Y-43154358D01*
X135152275Y-43154358D01*
X135290160Y-43108396D01*
X135382084Y-43016472D01*
X135428046Y-42924548D01*
X135474008Y-42740700D01*
X135474008Y-42602815D01*
X135428046Y-42418967D01*
X135382084Y-42327043D01*
X135290160Y-42235120D01*
X135152275Y-42189158D01*
X135060351Y-42189158D01*
X134922465Y-42235120D01*
X134876503Y-42281081D01*
X133957265Y-43154358D02*
X134508808Y-43154358D01*
X134233037Y-43154358D02*
X134233037Y-42189158D01*
X134324960Y-42327043D01*
X134416884Y-42418967D01*
X134508808Y-42464929D01*
D10*
X107708333Y-103862380D02*
X107708333Y-104576666D01*
X107755952Y-104719523D01*
X107851190Y-104814761D01*
X107994047Y-104862380D01*
X108089285Y-104862380D01*
X107279761Y-103957619D02*
X107232142Y-103910000D01*
X107136904Y-103862380D01*
X106898809Y-103862380D01*
X106803571Y-103910000D01*
X106755952Y-103957619D01*
X106708333Y-104052857D01*
X106708333Y-104148095D01*
X106755952Y-104290952D01*
X107327380Y-104862380D01*
X106708333Y-104862380D01*
D12*
X124230000Y-46775000D02*
X124230000Y-46790000D01*
X124230000Y-44650000D02*
X119690000Y-44650000D01*
X124230000Y-44650000D02*
X124230000Y-44665000D01*
X124230000Y-46790000D02*
X119690000Y-46790000D01*
X119690000Y-46775000D02*
X119690000Y-46790000D01*
X119690000Y-44650000D02*
X119690000Y-44665000D01*
X86900000Y-77240000D02*
X86900000Y-77570000D01*
X93440000Y-74830000D02*
X93440000Y-75160000D01*
X86900000Y-75160000D02*
X86900000Y-74830000D01*
X86900000Y-74830000D02*
X93440000Y-74830000D01*
X93440000Y-77570000D02*
X93440000Y-77240000D01*
X86900000Y-77570000D02*
X93440000Y-77570000D01*
X120940000Y-49470000D02*
X122190000Y-49470000D01*
X125440000Y-49470000D02*
X125440000Y-74990000D01*
X124190000Y-49470000D02*
X125440000Y-49470000D01*
X125440000Y-74990000D02*
X120940000Y-74990000D01*
X120940000Y-74990000D02*
X120940000Y-49470000D01*
X122190000Y-49470000D02*
G75*
G03*
X124190000Y-49470000I1000000J0D01*
G01*
X99799000Y-74276000D02*
X99799000Y-75360000D01*
X99159000Y-74684000D02*
X99159000Y-75360000D01*
X99399000Y-77040000D02*
X99399000Y-77908000D01*
X98959000Y-77040000D02*
X98959000Y-77504000D01*
X98799000Y-77040000D02*
X98799000Y-77280000D01*
X99479000Y-74440000D02*
X99479000Y-75360000D01*
X100160000Y-77040000D02*
X100160000Y-78234000D01*
X98999000Y-77040000D02*
X98999000Y-77551000D01*
X100320000Y-74138000D02*
X100320000Y-75360000D01*
X100480000Y-74123000D02*
X100480000Y-78277000D01*
X99519000Y-74415000D02*
X99519000Y-75360000D01*
X99079000Y-77040000D02*
X99079000Y-77638000D01*
X99039000Y-74804000D02*
X99039000Y-75360000D01*
X99239000Y-74613000D02*
X99239000Y-75360000D01*
X100000000Y-74206000D02*
X100000000Y-75360000D01*
X99079000Y-74762000D02*
X99079000Y-75360000D01*
X99199000Y-77040000D02*
X99199000Y-77752000D01*
X99119000Y-77040000D02*
X99119000Y-77678000D01*
X99639000Y-74349000D02*
X99639000Y-75360000D01*
X98879000Y-77040000D02*
X98879000Y-77400000D01*
X98519000Y-75830000D02*
X98519000Y-76570000D01*
X102869801Y-75005000D02*
X102469801Y-75005000D01*
X99399000Y-74492000D02*
X99399000Y-75360000D01*
X99559000Y-77040000D02*
X99559000Y-78008000D01*
X100000000Y-77040000D02*
X100000000Y-78194000D01*
X100120000Y-77040000D02*
X100120000Y-78225000D01*
X99879000Y-74246000D02*
X99879000Y-75360000D01*
X99439000Y-77040000D02*
X99439000Y-77935000D01*
X99319000Y-74550000D02*
X99319000Y-75360000D01*
X100040000Y-74195000D02*
X100040000Y-75360000D01*
X99679000Y-77040000D02*
X99679000Y-78070000D01*
X99119000Y-74722000D02*
X99119000Y-75360000D01*
X98839000Y-75058000D02*
X98839000Y-75360000D01*
X99960000Y-77040000D02*
X99960000Y-78182000D01*
X99639000Y-77040000D02*
X99639000Y-78051000D01*
X100080000Y-77040000D02*
X100080000Y-78216000D01*
X98919000Y-74946000D02*
X98919000Y-75360000D01*
X100040000Y-77040000D02*
X100040000Y-78205000D01*
X98879000Y-75000000D02*
X98879000Y-75360000D01*
X99759000Y-74293000D02*
X99759000Y-75360000D01*
X98799000Y-75120000D02*
X98799000Y-75360000D01*
X98959000Y-74896000D02*
X98959000Y-75360000D01*
X99839000Y-77040000D02*
X99839000Y-78140000D01*
X99839000Y-74260000D02*
X99839000Y-75360000D01*
X99479000Y-77040000D02*
X99479000Y-77960000D01*
X100440000Y-74126000D02*
X100440000Y-78274000D01*
X99039000Y-77040000D02*
X99039000Y-77596000D01*
X100320000Y-77040000D02*
X100320000Y-78262000D01*
X100360000Y-74133000D02*
X100360000Y-75360000D01*
X100560000Y-74120000D02*
X100560000Y-78280000D01*
X98999000Y-74849000D02*
X98999000Y-75360000D01*
X100240000Y-77040000D02*
X100240000Y-78250000D01*
X99759000Y-77040000D02*
X99759000Y-78107000D01*
X102669801Y-74805000D02*
X102669801Y-75205000D01*
X99159000Y-77040000D02*
X99159000Y-77716000D01*
X100200000Y-74158000D02*
X100200000Y-75360000D01*
X98679000Y-75341000D02*
X98679000Y-77059000D01*
X100520000Y-74121000D02*
X100520000Y-78279000D01*
X100120000Y-74175000D02*
X100120000Y-75360000D01*
X99199000Y-74648000D02*
X99199000Y-75360000D01*
X100400000Y-77040000D02*
X100400000Y-78271000D01*
X98639000Y-75432000D02*
X98639000Y-76968000D01*
X100160000Y-74166000D02*
X100160000Y-75360000D01*
X100200000Y-77040000D02*
X100200000Y-78242000D01*
X98559000Y-75663000D02*
X98559000Y-76737000D01*
X99439000Y-74465000D02*
X99439000Y-75360000D01*
X99359000Y-74520000D02*
X99359000Y-75360000D01*
X100360000Y-77040000D02*
X100360000Y-78267000D01*
X100280000Y-77040000D02*
X100280000Y-78256000D01*
X100080000Y-74184000D02*
X100080000Y-75360000D01*
X100400000Y-74129000D02*
X100400000Y-75360000D01*
X98599000Y-75536000D02*
X98599000Y-76864000D01*
X99279000Y-77040000D02*
X99279000Y-77819000D01*
X100240000Y-74150000D02*
X100240000Y-75360000D01*
X99559000Y-74392000D02*
X99559000Y-75360000D01*
X99799000Y-77040000D02*
X99799000Y-78124000D01*
X99599000Y-77040000D02*
X99599000Y-78030000D01*
X98759000Y-75187000D02*
X98759000Y-77213000D01*
X99679000Y-74330000D02*
X99679000Y-75360000D01*
X98839000Y-77040000D02*
X98839000Y-77342000D01*
X99879000Y-77040000D02*
X99879000Y-78154000D01*
X98919000Y-77040000D02*
X98919000Y-77454000D01*
X100600000Y-74120000D02*
X100600000Y-78280000D01*
X99519000Y-77040000D02*
X99519000Y-77985000D01*
X100280000Y-74144000D02*
X100280000Y-75360000D01*
X99239000Y-77040000D02*
X99239000Y-77787000D01*
X99719000Y-77040000D02*
X99719000Y-78089000D01*
X99920000Y-74232000D02*
X99920000Y-75360000D01*
X99279000Y-74581000D02*
X99279000Y-75360000D01*
X99960000Y-74218000D02*
X99960000Y-75360000D01*
X99719000Y-74311000D02*
X99719000Y-75360000D01*
X99319000Y-77040000D02*
X99319000Y-77850000D01*
X99920000Y-77040000D02*
X99920000Y-78168000D01*
X99359000Y-77040000D02*
X99359000Y-77880000D01*
X99599000Y-74370000D02*
X99599000Y-75360000D01*
X98719000Y-75260000D02*
X98719000Y-77140000D01*
X102720000Y-76200000D02*
G75*
G03*
X102720000Y-76200000I-2120000J0D01*
G01*
X107860000Y-74150000D02*
X107860000Y-75360000D01*
X106939000Y-77040000D02*
X106939000Y-77850000D01*
X107900000Y-74144000D02*
X107900000Y-75360000D01*
X107099000Y-77040000D02*
X107099000Y-77960000D01*
X106899000Y-74581000D02*
X106899000Y-75360000D01*
X107660000Y-77040000D02*
X107660000Y-78205000D01*
X106459000Y-77040000D02*
X106459000Y-77342000D01*
X107780000Y-74166000D02*
X107780000Y-75360000D01*
X106819000Y-74648000D02*
X106819000Y-75360000D01*
X106819000Y-77040000D02*
X106819000Y-77752000D01*
X106659000Y-77040000D02*
X106659000Y-77596000D01*
X107620000Y-74206000D02*
X107620000Y-75360000D01*
X107660000Y-74195000D02*
X107660000Y-75360000D01*
X106539000Y-77040000D02*
X106539000Y-77454000D01*
X106339000Y-75260000D02*
X106339000Y-77140000D01*
X106179000Y-75663000D02*
X106179000Y-76737000D01*
X107299000Y-74330000D02*
X107299000Y-75360000D01*
X106219000Y-75536000D02*
X106219000Y-76864000D01*
X110289801Y-74805000D02*
X110289801Y-75205000D01*
X107860000Y-77040000D02*
X107860000Y-78250000D01*
X108140000Y-74121000D02*
X108140000Y-78279000D01*
X107700000Y-74184000D02*
X107700000Y-75360000D01*
X106499000Y-77040000D02*
X106499000Y-77400000D01*
X107780000Y-77040000D02*
X107780000Y-78234000D01*
X107219000Y-74370000D02*
X107219000Y-75360000D01*
X107499000Y-74246000D02*
X107499000Y-75360000D01*
X107900000Y-77040000D02*
X107900000Y-78256000D01*
X107740000Y-74175000D02*
X107740000Y-75360000D01*
X107740000Y-77040000D02*
X107740000Y-78225000D01*
X107499000Y-77040000D02*
X107499000Y-78154000D01*
X108220000Y-74120000D02*
X108220000Y-78280000D01*
X106979000Y-77040000D02*
X106979000Y-77880000D01*
X106579000Y-74896000D02*
X106579000Y-75360000D01*
X107419000Y-74276000D02*
X107419000Y-75360000D01*
X106659000Y-74804000D02*
X106659000Y-75360000D01*
X107940000Y-77040000D02*
X107940000Y-78262000D01*
X106739000Y-74722000D02*
X106739000Y-75360000D01*
X106979000Y-74520000D02*
X106979000Y-75360000D01*
X108060000Y-74126000D02*
X108060000Y-78274000D01*
X106419000Y-77040000D02*
X106419000Y-77280000D01*
X106619000Y-74849000D02*
X106619000Y-75360000D01*
X107459000Y-74260000D02*
X107459000Y-75360000D01*
X107059000Y-77040000D02*
X107059000Y-77935000D01*
X107259000Y-77040000D02*
X107259000Y-78051000D01*
X108020000Y-74129000D02*
X108020000Y-75360000D01*
X107059000Y-74465000D02*
X107059000Y-75360000D01*
X107980000Y-77040000D02*
X107980000Y-78267000D01*
X107019000Y-77040000D02*
X107019000Y-77908000D01*
X107139000Y-77040000D02*
X107139000Y-77985000D01*
X107139000Y-74415000D02*
X107139000Y-75360000D01*
X106779000Y-77040000D02*
X106779000Y-77716000D01*
X107379000Y-77040000D02*
X107379000Y-78107000D01*
X107259000Y-74349000D02*
X107259000Y-75360000D01*
X106859000Y-77040000D02*
X106859000Y-77787000D01*
X108020000Y-77040000D02*
X108020000Y-78271000D01*
X107700000Y-77040000D02*
X107700000Y-78216000D01*
X106699000Y-77040000D02*
X106699000Y-77638000D01*
X107540000Y-74232000D02*
X107540000Y-75360000D01*
X106419000Y-75120000D02*
X106419000Y-75360000D01*
X106539000Y-74946000D02*
X106539000Y-75360000D01*
X110489801Y-75005000D02*
X110089801Y-75005000D01*
X108100000Y-74123000D02*
X108100000Y-78277000D01*
X106139000Y-75830000D02*
X106139000Y-76570000D01*
X106939000Y-74550000D02*
X106939000Y-75360000D01*
X106499000Y-75000000D02*
X106499000Y-75360000D01*
X107419000Y-77040000D02*
X107419000Y-78124000D01*
X107019000Y-74492000D02*
X107019000Y-75360000D01*
X107540000Y-77040000D02*
X107540000Y-78168000D01*
X106779000Y-74684000D02*
X106779000Y-75360000D01*
X107459000Y-77040000D02*
X107459000Y-78140000D01*
X106739000Y-77040000D02*
X106739000Y-77678000D01*
X106859000Y-74613000D02*
X106859000Y-75360000D01*
X108180000Y-74120000D02*
X108180000Y-78280000D01*
X107379000Y-74293000D02*
X107379000Y-75360000D01*
X106899000Y-77040000D02*
X106899000Y-77819000D01*
X107339000Y-77040000D02*
X107339000Y-78089000D01*
X107580000Y-74218000D02*
X107580000Y-75360000D01*
X106459000Y-75058000D02*
X106459000Y-75360000D01*
X107980000Y-74133000D02*
X107980000Y-75360000D01*
X106379000Y-75187000D02*
X106379000Y-77213000D01*
X107179000Y-74392000D02*
X107179000Y-75360000D01*
X106259000Y-75432000D02*
X106259000Y-76968000D01*
X106299000Y-75341000D02*
X106299000Y-77059000D01*
X107820000Y-74158000D02*
X107820000Y-75360000D01*
X107219000Y-77040000D02*
X107219000Y-78030000D01*
X107099000Y-74440000D02*
X107099000Y-75360000D01*
X106579000Y-77040000D02*
X106579000Y-77504000D01*
X107299000Y-77040000D02*
X107299000Y-78070000D01*
X106619000Y-77040000D02*
X106619000Y-77551000D01*
X107580000Y-77040000D02*
X107580000Y-78182000D01*
X107820000Y-77040000D02*
X107820000Y-78242000D01*
X107339000Y-74311000D02*
X107339000Y-75360000D01*
X107620000Y-77040000D02*
X107620000Y-78194000D01*
X107179000Y-77040000D02*
X107179000Y-78008000D01*
X107940000Y-74138000D02*
X107940000Y-75360000D01*
X106699000Y-74762000D02*
X106699000Y-75360000D01*
X110340000Y-76200000D02*
G75*
G03*
X110340000Y-76200000I-2120000J0D01*
G01*
X106990000Y-44650000D02*
X106990000Y-44665000D01*
X111530000Y-44650000D02*
X111530000Y-44665000D01*
X111530000Y-46775000D02*
X111530000Y-46790000D01*
X111530000Y-46790000D02*
X106990000Y-46790000D01*
X111530000Y-44650000D02*
X106990000Y-44650000D01*
X106990000Y-46775000D02*
X106990000Y-46790000D01*
X149630000Y-44650000D02*
X145090000Y-44650000D01*
X149630000Y-46775000D02*
X149630000Y-46790000D01*
X149630000Y-46790000D02*
X145090000Y-46790000D01*
X145090000Y-44650000D02*
X145090000Y-44665000D01*
X149630000Y-44650000D02*
X149630000Y-44665000D01*
X145090000Y-46775000D02*
X145090000Y-46790000D01*
X146340000Y-74990000D02*
X146340000Y-49470000D01*
X150840000Y-74990000D02*
X146340000Y-74990000D01*
X150840000Y-49470000D02*
X150840000Y-74990000D01*
X149590000Y-49470000D02*
X150840000Y-49470000D01*
X146340000Y-49470000D02*
X147590000Y-49470000D01*
X147590000Y-49470000D02*
G75*
G03*
X149590000Y-49470000I1000000J0D01*
G01*
X92710000Y-135720000D02*
X92710000Y-133060000D01*
X91820000Y-133060000D02*
X91820000Y-127060000D01*
X91060000Y-136117071D02*
X91060000Y-135720000D01*
X93600000Y-136050000D02*
X93600000Y-135720000D01*
X94180000Y-133060000D02*
X94180000Y-127060000D01*
X94360000Y-136050000D02*
X94360000Y-135720000D01*
X95310000Y-133060000D02*
X95310000Y-135720000D01*
X94300000Y-133060000D02*
X94300000Y-127060000D01*
X93980000Y-138430000D02*
X95250000Y-138430000D01*
X95250000Y-138430000D02*
X95250000Y-137160000D01*
X90110000Y-133060000D02*
X95310000Y-133060000D01*
X91060000Y-127060000D02*
X91060000Y-133060000D01*
X91820000Y-136117071D02*
X91820000Y-135720000D01*
X93940000Y-133060000D02*
X93940000Y-127060000D01*
X91820000Y-127060000D02*
X91060000Y-127060000D01*
X93700000Y-133060000D02*
X93700000Y-127060000D01*
X94360000Y-133060000D02*
X94360000Y-127060000D01*
X94060000Y-133060000D02*
X94060000Y-127060000D01*
X93600000Y-127060000D02*
X93600000Y-133060000D01*
X94360000Y-127060000D02*
X93600000Y-127060000D01*
X95310000Y-135720000D02*
X90110000Y-135720000D01*
X90110000Y-135720000D02*
X90110000Y-133060000D01*
X93820000Y-133060000D02*
X93820000Y-127060000D01*
X133640000Y-49470000D02*
X134890000Y-49470000D01*
X136890000Y-49470000D02*
X138140000Y-49470000D01*
X138140000Y-49470000D02*
X138140000Y-74990000D01*
X133640000Y-74990000D02*
X133640000Y-49470000D01*
X138140000Y-74990000D02*
X133640000Y-74990000D01*
X134890000Y-49470000D02*
G75*
G03*
X136890000Y-49470000I1000000J0D01*
G01*
X113090000Y-52360000D02*
X113090000Y-57420000D01*
X114300000Y-58420000D02*
X113157000Y-58420000D01*
X114300000Y-63500000D02*
X114300000Y-58420000D01*
X113150000Y-49360000D02*
X113150000Y-72560000D01*
X113150000Y-72560000D02*
X60960000Y-72560000D01*
X60960000Y-49360000D02*
X113150000Y-49360000D01*
X113090000Y-54610000D02*
X113090000Y-69560000D01*
X58420000Y-53340000D02*
X60960000Y-53340000D01*
X58420000Y-68580000D02*
X58420000Y-53340000D01*
X113090000Y-63500000D02*
X114300000Y-63500000D01*
X62230000Y-52360000D02*
X113090000Y-52360000D01*
X113090000Y-69560000D02*
X62230000Y-69560000D01*
X60960000Y-72560000D02*
X60960000Y-49360000D01*
D13*
X62230000Y-72390000D02*
X62230000Y-49530000D01*
D12*
X60960000Y-68580000D02*
X58420000Y-68580000D01*
X136930000Y-44650000D02*
X136930000Y-44665000D01*
X132390000Y-44650000D02*
X132390000Y-44665000D01*
X136930000Y-44650000D02*
X132390000Y-44650000D01*
X136930000Y-46790000D02*
X132390000Y-46790000D01*
X132390000Y-46775000D02*
X132390000Y-46790000D01*
X136930000Y-46775000D02*
X136930000Y-46790000D01*
X101660000Y-107060000D02*
X107660000Y-107060000D01*
X110717071Y-108840000D02*
X110320000Y-108840000D01*
X110717071Y-109600000D02*
X110320000Y-109600000D01*
X107660000Y-106720000D02*
X101660000Y-106720000D01*
X107660000Y-106840000D02*
X101660000Y-106840000D01*
X101660000Y-106300000D02*
X101660000Y-107060000D01*
X107660000Y-106960000D02*
X101660000Y-106960000D01*
X107660000Y-106480000D02*
X101660000Y-106480000D01*
X101660000Y-108840000D02*
X101660000Y-109600000D01*
X107660000Y-106600000D02*
X101660000Y-106600000D01*
X110650000Y-106300000D02*
X110320000Y-106300000D01*
X110650000Y-107060000D02*
X110320000Y-107060000D01*
X110320000Y-110550000D02*
X107660000Y-110550000D01*
X107660000Y-106300000D02*
X101660000Y-106300000D01*
X110320000Y-107950000D02*
X107660000Y-107950000D01*
X113030000Y-105410000D02*
X111760000Y-105410000D01*
X107660000Y-105350000D02*
X110320000Y-105350000D01*
X110320000Y-105350000D02*
X110320000Y-110550000D01*
X113030000Y-106680000D02*
X113030000Y-105410000D01*
X107660000Y-110550000D02*
X107660000Y-105350000D01*
X101660000Y-109600000D02*
X107660000Y-109600000D01*
X107660000Y-108840000D02*
X101660000Y-108840000D01*
X107660000Y-106360000D02*
X101660000Y-106360000D01*
%LPC*%
D14*
X139860000Y-145345000D03*
X83660000Y-140245000D03*
D15*
X142240000Y-157480000D03*
X139700000Y-157480000D03*
X137160000Y-157480000D03*
X134620000Y-157480000D03*
X132080000Y-157480000D03*
X129540000Y-157480000D03*
X127000000Y-157480000D03*
X124460000Y-157480000D03*
X121920000Y-157480000D03*
X119380000Y-157480000D03*
X116840000Y-157480000D03*
X114300000Y-157480000D03*
X111760000Y-157480000D03*
X109220000Y-157480000D03*
X106680000Y-157480000D03*
X104140000Y-157480000D03*
X101600000Y-157480000D03*
X99060000Y-157480000D03*
X96520000Y-157480000D03*
X93980000Y-157480000D03*
X91440000Y-157480000D03*
X88900000Y-157480000D03*
X86360000Y-157480000D03*
X83820000Y-157480000D03*
X81280000Y-157480000D03*
D16*
X124460000Y-45720000D03*
X119460000Y-45720000D03*
X86360000Y-76200000D03*
D17*
X93980000Y-76200000D03*
D18*
X127000000Y-50800000D03*
D19*
X127000000Y-53340000D03*
X127000000Y-55880000D03*
X127000000Y-58420000D03*
X127000000Y-60960000D03*
X127000000Y-63500000D03*
X127000000Y-66040000D03*
X127000000Y-68580000D03*
X127000000Y-71120000D03*
X127000000Y-73660000D03*
X119380000Y-73660000D03*
X119380000Y-71120000D03*
X119380000Y-68580000D03*
X119380000Y-66040000D03*
X119380000Y-63500000D03*
X119380000Y-60960000D03*
X119380000Y-58420000D03*
X119380000Y-55880000D03*
X119380000Y-53340000D03*
X119380000Y-50800000D03*
D20*
X101600000Y-76200000D03*
D21*
X99600000Y-76200000D03*
D20*
X109220000Y-76200000D03*
D21*
X107220000Y-76200000D03*
D16*
X111760000Y-45720000D03*
X106760000Y-45720000D03*
X149860000Y-45720000D03*
X144860000Y-45720000D03*
D18*
X152400000Y-50800000D03*
D19*
X152400000Y-53340000D03*
X152400000Y-55880000D03*
X152400000Y-58420000D03*
X152400000Y-60960000D03*
X152400000Y-63500000D03*
X152400000Y-66040000D03*
X152400000Y-68580000D03*
X152400000Y-71120000D03*
X152400000Y-73660000D03*
X144780000Y-73660000D03*
X144780000Y-71120000D03*
X144780000Y-68580000D03*
X144780000Y-66040000D03*
X144780000Y-63500000D03*
X144780000Y-60960000D03*
X144780000Y-58420000D03*
X144780000Y-55880000D03*
X144780000Y-53340000D03*
X144780000Y-50800000D03*
D22*
X93980000Y-137160000D03*
D23*
X91440000Y-137160000D03*
D18*
X139700000Y-50800000D03*
D19*
X139700000Y-53340000D03*
X139700000Y-55880000D03*
X139700000Y-58420000D03*
X139700000Y-60960000D03*
X139700000Y-63500000D03*
X139700000Y-66040000D03*
X139700000Y-68580000D03*
X139700000Y-71120000D03*
X139700000Y-73660000D03*
X132080000Y-73660000D03*
X132080000Y-71120000D03*
X132080000Y-68580000D03*
X132080000Y-66040000D03*
X132080000Y-63500000D03*
X132080000Y-60960000D03*
X132080000Y-58420000D03*
X132080000Y-55880000D03*
X132080000Y-53340000D03*
X132080000Y-50800000D03*
D24*
X111760000Y-71120000D03*
D25*
X109220000Y-71120000D03*
X106680000Y-71120000D03*
X104140000Y-71120000D03*
X101600000Y-71120000D03*
X99060000Y-71120000D03*
X96520000Y-71120000D03*
X93980000Y-71120000D03*
X91440000Y-71120000D03*
X88900000Y-71120000D03*
X86360000Y-71120000D03*
X83820000Y-71120000D03*
X81280000Y-71120000D03*
X78740000Y-71120000D03*
X76200000Y-71120000D03*
X73660000Y-71120000D03*
X71120000Y-71120000D03*
X68580000Y-71120000D03*
X66040000Y-71120000D03*
X63500000Y-71120000D03*
X63500000Y-50800000D03*
X66040000Y-50800000D03*
X68580000Y-50800000D03*
X71120000Y-50800000D03*
X73660000Y-50800000D03*
X76200000Y-50800000D03*
X78740000Y-50800000D03*
X81280000Y-50800000D03*
X83820000Y-50800000D03*
X86360000Y-50800000D03*
X88900000Y-50800000D03*
X91440000Y-50800000D03*
X93980000Y-50800000D03*
X96520000Y-50800000D03*
X99060000Y-50800000D03*
X101600000Y-50800000D03*
X104140000Y-50800000D03*
X106680000Y-50800000D03*
X109220000Y-50800000D03*
X111760000Y-50800000D03*
D16*
X137160000Y-45720000D03*
X132160000Y-45720000D03*
D22*
X111760000Y-106680000D03*
D23*
X111760000Y-109220000D03*
M02*
