G04 #@! TF.GenerationSoftware,KiCad,Pcbnew,(6.0.9)*
G04 #@! TF.CreationDate,2024-04-26T19:01:12+02:00*
G04 #@! TF.ProjectId,Cartucho_MSX_LCD_Tang_Nano_20k,43617274-7563-4686-9f5f-4d53585f4c43,rev?*
G04 #@! TF.SameCoordinates,Original*
G04 #@! TF.FileFunction,Legend,Top*
G04 #@! TF.FilePolarity,Positive*
%FSLAX46Y46*%
G04 Gerber Fmt 4.6, Leading zero omitted, Abs format (unit mm)*
G04 Created by KiCad (PCBNEW (6.0.9)) date 2024-04-26 19:01:12*
%MOMM*%
%LPD*%
G01*
G04 APERTURE LIST*
%ADD10C,0.150000*%
%ADD11C,4.900000*%
%ADD12R,1.270000X7.620000*%
%ADD13C,1.600000*%
%ADD14O,1.600000X1.600000*%
%ADD15R,2.400000X1.600000*%
%ADD16O,2.400000X1.600000*%
%ADD17R,1.200000X1.200000*%
%ADD18C,1.200000*%
%ADD19R,1.700000X1.700000*%
%ADD20O,1.700000X1.700000*%
%ADD21R,1.600000X2.400000*%
%ADD22O,1.600000X2.400000*%
G04 APERTURE END LIST*
D10*
X118618095Y-151312619D02*
X118665714Y-151265000D01*
X118760952Y-151217380D01*
X118999047Y-151217380D01*
X119094285Y-151265000D01*
X119141904Y-151312619D01*
X119189523Y-151407857D01*
X119189523Y-151503095D01*
X119141904Y-151645952D01*
X118570476Y-152217380D01*
X119189523Y-152217380D01*
X119808571Y-151217380D02*
X119903809Y-151217380D01*
X119999047Y-151265000D01*
X120046666Y-151312619D01*
X120094285Y-151407857D01*
X120141904Y-151598333D01*
X120141904Y-151836428D01*
X120094285Y-152026904D01*
X120046666Y-152122142D01*
X119999047Y-152169761D01*
X119903809Y-152217380D01*
X119808571Y-152217380D01*
X119713333Y-152169761D01*
X119665714Y-152122142D01*
X119618095Y-152026904D01*
X119570476Y-151836428D01*
X119570476Y-151598333D01*
X119618095Y-151407857D01*
X119665714Y-151312619D01*
X119713333Y-151265000D01*
X119808571Y-151217380D01*
X83891428Y-150159404D02*
X83891428Y-149397500D01*
X84272380Y-149778452D02*
X83510476Y-149778452D01*
X84272380Y-148397500D02*
X84272380Y-148968928D01*
X84272380Y-148683214D02*
X83272380Y-148683214D01*
X83415238Y-148778452D01*
X83510476Y-148873690D01*
X83558095Y-148968928D01*
X83367619Y-148016547D02*
X83320000Y-147968928D01*
X83272380Y-147873690D01*
X83272380Y-147635595D01*
X83320000Y-147540357D01*
X83367619Y-147492738D01*
X83462857Y-147445119D01*
X83558095Y-147445119D01*
X83700952Y-147492738D01*
X84272380Y-148064166D01*
X84272380Y-147445119D01*
X129349523Y-152217380D02*
X128778095Y-152217380D01*
X129063809Y-152217380D02*
X129063809Y-151217380D01*
X128968571Y-151360238D01*
X128873333Y-151455476D01*
X128778095Y-151503095D01*
X129730476Y-151312619D02*
X129778095Y-151265000D01*
X129873333Y-151217380D01*
X130111428Y-151217380D01*
X130206666Y-151265000D01*
X130254285Y-151312619D01*
X130301904Y-151407857D01*
X130301904Y-151503095D01*
X130254285Y-151645952D01*
X129682857Y-152217380D01*
X130301904Y-152217380D01*
X126809523Y-152217380D02*
X126238095Y-152217380D01*
X126523809Y-152217380D02*
X126523809Y-151217380D01*
X126428571Y-151360238D01*
X126333333Y-151455476D01*
X126238095Y-151503095D01*
X127666666Y-151550714D02*
X127666666Y-152217380D01*
X127428571Y-151169761D02*
X127190476Y-151884047D01*
X127809523Y-151884047D01*
X91154285Y-151550714D02*
X91154285Y-152217380D01*
X90916190Y-151169761D02*
X90678095Y-151884047D01*
X91297142Y-151884047D01*
X91630476Y-151312619D02*
X91678095Y-151265000D01*
X91773333Y-151217380D01*
X92011428Y-151217380D01*
X92106666Y-151265000D01*
X92154285Y-151312619D01*
X92201904Y-151407857D01*
X92201904Y-151503095D01*
X92154285Y-151645952D01*
X91582857Y-152217380D01*
X92201904Y-152217380D01*
X86764761Y-150207023D02*
X86812380Y-150064166D01*
X86812380Y-149826071D01*
X86764761Y-149730833D01*
X86717142Y-149683214D01*
X86621904Y-149635595D01*
X86526666Y-149635595D01*
X86431428Y-149683214D01*
X86383809Y-149730833D01*
X86336190Y-149826071D01*
X86288571Y-150016547D01*
X86240952Y-150111785D01*
X86193333Y-150159404D01*
X86098095Y-150207023D01*
X86002857Y-150207023D01*
X85907619Y-150159404D01*
X85860000Y-150111785D01*
X85812380Y-150016547D01*
X85812380Y-149778452D01*
X85860000Y-149635595D01*
X85812380Y-149302261D02*
X86812380Y-149064166D01*
X86098095Y-148873690D01*
X86812380Y-148683214D01*
X85812380Y-148445119D01*
X116078095Y-151312619D02*
X116125714Y-151265000D01*
X116220952Y-151217380D01*
X116459047Y-151217380D01*
X116554285Y-151265000D01*
X116601904Y-151312619D01*
X116649523Y-151407857D01*
X116649523Y-151503095D01*
X116601904Y-151645952D01*
X116030476Y-152217380D01*
X116649523Y-152217380D01*
X117030476Y-151312619D02*
X117078095Y-151265000D01*
X117173333Y-151217380D01*
X117411428Y-151217380D01*
X117506666Y-151265000D01*
X117554285Y-151312619D01*
X117601904Y-151407857D01*
X117601904Y-151503095D01*
X117554285Y-151645952D01*
X116982857Y-152217380D01*
X117601904Y-152217380D01*
X114466666Y-150207023D02*
X114466666Y-149730833D01*
X114752380Y-150302261D02*
X113752380Y-149968928D01*
X114752380Y-149635595D01*
X114180952Y-149159404D02*
X114133333Y-149254642D01*
X114085714Y-149302261D01*
X113990476Y-149349880D01*
X113942857Y-149349880D01*
X113847619Y-149302261D01*
X113800000Y-149254642D01*
X113752380Y-149159404D01*
X113752380Y-148968928D01*
X113800000Y-148873690D01*
X113847619Y-148826071D01*
X113942857Y-148778452D01*
X113990476Y-148778452D01*
X114085714Y-148826071D01*
X114133333Y-148873690D01*
X114180952Y-148968928D01*
X114180952Y-149159404D01*
X114228571Y-149254642D01*
X114276190Y-149302261D01*
X114371428Y-149349880D01*
X114561904Y-149349880D01*
X114657142Y-149302261D01*
X114704761Y-149254642D01*
X114752380Y-149159404D01*
X114752380Y-148968928D01*
X114704761Y-148873690D01*
X114657142Y-148826071D01*
X114561904Y-148778452D01*
X114371428Y-148778452D01*
X114276190Y-148826071D01*
X114228571Y-148873690D01*
X114180952Y-148968928D01*
X122086666Y-150207023D02*
X122086666Y-149730833D01*
X122372380Y-150302261D02*
X121372380Y-149968928D01*
X122372380Y-149635595D01*
X122372380Y-148778452D02*
X122372380Y-149349880D01*
X122372380Y-149064166D02*
X121372380Y-149064166D01*
X121515238Y-149159404D01*
X121610476Y-149254642D01*
X121658095Y-149349880D01*
X121372380Y-147873690D02*
X121372380Y-148349880D01*
X121848571Y-148397500D01*
X121800952Y-148349880D01*
X121753333Y-148254642D01*
X121753333Y-148016547D01*
X121800952Y-147921309D01*
X121848571Y-147873690D01*
X121943809Y-147826071D01*
X122181904Y-147826071D01*
X122277142Y-147873690D01*
X122324761Y-147921309D01*
X122372380Y-148016547D01*
X122372380Y-148254642D01*
X122324761Y-148349880D01*
X122277142Y-148397500D01*
X81351428Y-150159404D02*
X81351428Y-149397500D01*
X81732380Y-148397500D02*
X81732380Y-148968928D01*
X81732380Y-148683214D02*
X80732380Y-148683214D01*
X80875238Y-148778452D01*
X80970476Y-148873690D01*
X81018095Y-148968928D01*
X80827619Y-148016547D02*
X80780000Y-147968928D01*
X80732380Y-147873690D01*
X80732380Y-147635595D01*
X80780000Y-147540357D01*
X80827619Y-147492738D01*
X80922857Y-147445119D01*
X81018095Y-147445119D01*
X81160952Y-147492738D01*
X81732380Y-148064166D01*
X81732380Y-147445119D01*
X95710476Y-151217380D02*
X96329523Y-151217380D01*
X95996190Y-151598333D01*
X96139047Y-151598333D01*
X96234285Y-151645952D01*
X96281904Y-151693571D01*
X96329523Y-151788809D01*
X96329523Y-152026904D01*
X96281904Y-152122142D01*
X96234285Y-152169761D01*
X96139047Y-152217380D01*
X95853333Y-152217380D01*
X95758095Y-152169761D01*
X95710476Y-152122142D01*
X96900952Y-151645952D02*
X96805714Y-151598333D01*
X96758095Y-151550714D01*
X96710476Y-151455476D01*
X96710476Y-151407857D01*
X96758095Y-151312619D01*
X96805714Y-151265000D01*
X96900952Y-151217380D01*
X97091428Y-151217380D01*
X97186666Y-151265000D01*
X97234285Y-151312619D01*
X97281904Y-151407857D01*
X97281904Y-151455476D01*
X97234285Y-151550714D01*
X97186666Y-151598333D01*
X97091428Y-151645952D01*
X96900952Y-151645952D01*
X96805714Y-151693571D01*
X96758095Y-151741190D01*
X96710476Y-151836428D01*
X96710476Y-152026904D01*
X96758095Y-152122142D01*
X96805714Y-152169761D01*
X96900952Y-152217380D01*
X97091428Y-152217380D01*
X97186666Y-152169761D01*
X97234285Y-152122142D01*
X97281904Y-152026904D01*
X97281904Y-151836428D01*
X97234285Y-151741190D01*
X97186666Y-151693571D01*
X97091428Y-151645952D01*
X142597142Y-149587976D02*
X142644761Y-149635595D01*
X142692380Y-149778452D01*
X142692380Y-149873690D01*
X142644761Y-150016547D01*
X142549523Y-150111785D01*
X142454285Y-150159404D01*
X142263809Y-150207023D01*
X142120952Y-150207023D01*
X141930476Y-150159404D01*
X141835238Y-150111785D01*
X141740000Y-150016547D01*
X141692380Y-149873690D01*
X141692380Y-149778452D01*
X141740000Y-149635595D01*
X141787619Y-149587976D01*
X142644761Y-149207023D02*
X142692380Y-149064166D01*
X142692380Y-148826071D01*
X142644761Y-148730833D01*
X142597142Y-148683214D01*
X142501904Y-148635595D01*
X142406666Y-148635595D01*
X142311428Y-148683214D01*
X142263809Y-148730833D01*
X142216190Y-148826071D01*
X142168571Y-149016547D01*
X142120952Y-149111785D01*
X142073333Y-149159404D01*
X141978095Y-149207023D01*
X141882857Y-149207023D01*
X141787619Y-149159404D01*
X141740000Y-149111785D01*
X141692380Y-149016547D01*
X141692380Y-148778452D01*
X141740000Y-148635595D01*
X141787619Y-148254642D02*
X141740000Y-148207023D01*
X141692380Y-148111785D01*
X141692380Y-147873690D01*
X141740000Y-147778452D01*
X141787619Y-147730833D01*
X141882857Y-147683214D01*
X141978095Y-147683214D01*
X142120952Y-147730833D01*
X142692380Y-148302261D01*
X142692380Y-147683214D01*
X105870476Y-151217380D02*
X106489523Y-151217380D01*
X106156190Y-151598333D01*
X106299047Y-151598333D01*
X106394285Y-151645952D01*
X106441904Y-151693571D01*
X106489523Y-151788809D01*
X106489523Y-152026904D01*
X106441904Y-152122142D01*
X106394285Y-152169761D01*
X106299047Y-152217380D01*
X106013333Y-152217380D01*
X105918095Y-152169761D01*
X105870476Y-152122142D01*
X107108571Y-151217380D02*
X107203809Y-151217380D01*
X107299047Y-151265000D01*
X107346666Y-151312619D01*
X107394285Y-151407857D01*
X107441904Y-151598333D01*
X107441904Y-151836428D01*
X107394285Y-152026904D01*
X107346666Y-152122142D01*
X107299047Y-152169761D01*
X107203809Y-152217380D01*
X107108571Y-152217380D01*
X107013333Y-152169761D01*
X106965714Y-152122142D01*
X106918095Y-152026904D01*
X106870476Y-151836428D01*
X106870476Y-151598333D01*
X106918095Y-151407857D01*
X106965714Y-151312619D01*
X107013333Y-151265000D01*
X107108571Y-151217380D01*
X96972380Y-150159404D02*
X95972380Y-150159404D01*
X95972380Y-149921309D01*
X96020000Y-149778452D01*
X96115238Y-149683214D01*
X96210476Y-149635595D01*
X96400952Y-149587976D01*
X96543809Y-149587976D01*
X96734285Y-149635595D01*
X96829523Y-149683214D01*
X96924761Y-149778452D01*
X96972380Y-149921309D01*
X96972380Y-150159404D01*
X96305714Y-148730833D02*
X96972380Y-148730833D01*
X95924761Y-148968928D02*
X96639047Y-149207023D01*
X96639047Y-148587976D01*
X91797142Y-149587976D02*
X91844761Y-149635595D01*
X91892380Y-149778452D01*
X91892380Y-149873690D01*
X91844761Y-150016547D01*
X91749523Y-150111785D01*
X91654285Y-150159404D01*
X91463809Y-150207023D01*
X91320952Y-150207023D01*
X91130476Y-150159404D01*
X91035238Y-150111785D01*
X90940000Y-150016547D01*
X90892380Y-149873690D01*
X90892380Y-149778452D01*
X90940000Y-149635595D01*
X90987619Y-149587976D01*
X91892380Y-148683214D02*
X91892380Y-149159404D01*
X90892380Y-149159404D01*
X91892380Y-148349880D02*
X90892380Y-148349880D01*
X91892380Y-147778452D02*
X91320952Y-148207023D01*
X90892380Y-147778452D02*
X91463809Y-148349880D01*
X119546666Y-150207023D02*
X119546666Y-149730833D01*
X119832380Y-150302261D02*
X118832380Y-149968928D01*
X119832380Y-149635595D01*
X119832380Y-148778452D02*
X119832380Y-149349880D01*
X119832380Y-149064166D02*
X118832380Y-149064166D01*
X118975238Y-149159404D01*
X119070476Y-149254642D01*
X119118095Y-149349880D01*
X118832380Y-148159404D02*
X118832380Y-148064166D01*
X118880000Y-147968928D01*
X118927619Y-147921309D01*
X119022857Y-147873690D01*
X119213333Y-147826071D01*
X119451428Y-147826071D01*
X119641904Y-147873690D01*
X119737142Y-147921309D01*
X119784761Y-147968928D01*
X119832380Y-148064166D01*
X119832380Y-148159404D01*
X119784761Y-148254642D01*
X119737142Y-148302261D01*
X119641904Y-148349880D01*
X119451428Y-148397500D01*
X119213333Y-148397500D01*
X119022857Y-148349880D01*
X118927619Y-148302261D01*
X118880000Y-148254642D01*
X118832380Y-148159404D01*
X113538095Y-151312619D02*
X113585714Y-151265000D01*
X113680952Y-151217380D01*
X113919047Y-151217380D01*
X114014285Y-151265000D01*
X114061904Y-151312619D01*
X114109523Y-151407857D01*
X114109523Y-151503095D01*
X114061904Y-151645952D01*
X113490476Y-152217380D01*
X114109523Y-152217380D01*
X114966666Y-151550714D02*
X114966666Y-152217380D01*
X114728571Y-151169761D02*
X114490476Y-151884047D01*
X115109523Y-151884047D01*
X83534285Y-151550714D02*
X83534285Y-152217380D01*
X83296190Y-151169761D02*
X83058095Y-151884047D01*
X83677142Y-151884047D01*
X84200952Y-151645952D02*
X84105714Y-151598333D01*
X84058095Y-151550714D01*
X84010476Y-151455476D01*
X84010476Y-151407857D01*
X84058095Y-151312619D01*
X84105714Y-151265000D01*
X84200952Y-151217380D01*
X84391428Y-151217380D01*
X84486666Y-151265000D01*
X84534285Y-151312619D01*
X84581904Y-151407857D01*
X84581904Y-151455476D01*
X84534285Y-151550714D01*
X84486666Y-151598333D01*
X84391428Y-151645952D01*
X84200952Y-151645952D01*
X84105714Y-151693571D01*
X84058095Y-151741190D01*
X84010476Y-151836428D01*
X84010476Y-152026904D01*
X84058095Y-152122142D01*
X84105714Y-152169761D01*
X84200952Y-152217380D01*
X84391428Y-152217380D01*
X84486666Y-152169761D01*
X84534285Y-152122142D01*
X84581904Y-152026904D01*
X84581904Y-151836428D01*
X84534285Y-151741190D01*
X84486666Y-151693571D01*
X84391428Y-151645952D01*
X86074285Y-151550714D02*
X86074285Y-152217380D01*
X85836190Y-151169761D02*
X85598095Y-151884047D01*
X86217142Y-151884047D01*
X87026666Y-151217380D02*
X86836190Y-151217380D01*
X86740952Y-151265000D01*
X86693333Y-151312619D01*
X86598095Y-151455476D01*
X86550476Y-151645952D01*
X86550476Y-152026904D01*
X86598095Y-152122142D01*
X86645714Y-152169761D01*
X86740952Y-152217380D01*
X86931428Y-152217380D01*
X87026666Y-152169761D01*
X87074285Y-152122142D01*
X87121904Y-152026904D01*
X87121904Y-151788809D01*
X87074285Y-151693571D01*
X87026666Y-151645952D01*
X86931428Y-151598333D01*
X86740952Y-151598333D01*
X86645714Y-151645952D01*
X86598095Y-151693571D01*
X86550476Y-151788809D01*
X134524761Y-151645952D02*
X134429523Y-151598333D01*
X134381904Y-151550714D01*
X134334285Y-151455476D01*
X134334285Y-151407857D01*
X134381904Y-151312619D01*
X134429523Y-151265000D01*
X134524761Y-151217380D01*
X134715238Y-151217380D01*
X134810476Y-151265000D01*
X134858095Y-151312619D01*
X134905714Y-151407857D01*
X134905714Y-151455476D01*
X134858095Y-151550714D01*
X134810476Y-151598333D01*
X134715238Y-151645952D01*
X134524761Y-151645952D01*
X134429523Y-151693571D01*
X134381904Y-151741190D01*
X134334285Y-151836428D01*
X134334285Y-152026904D01*
X134381904Y-152122142D01*
X134429523Y-152169761D01*
X134524761Y-152217380D01*
X134715238Y-152217380D01*
X134810476Y-152169761D01*
X134858095Y-152122142D01*
X134905714Y-152026904D01*
X134905714Y-151836428D01*
X134858095Y-151741190D01*
X134810476Y-151693571D01*
X134715238Y-151645952D01*
X100790476Y-151217380D02*
X101409523Y-151217380D01*
X101076190Y-151598333D01*
X101219047Y-151598333D01*
X101314285Y-151645952D01*
X101361904Y-151693571D01*
X101409523Y-151788809D01*
X101409523Y-152026904D01*
X101361904Y-152122142D01*
X101314285Y-152169761D01*
X101219047Y-152217380D01*
X100933333Y-152217380D01*
X100838095Y-152169761D01*
X100790476Y-152122142D01*
X102266666Y-151550714D02*
X102266666Y-152217380D01*
X102028571Y-151169761D02*
X101790476Y-151884047D01*
X102409523Y-151884047D01*
X132008571Y-149826071D02*
X132056190Y-149683214D01*
X132103809Y-149635595D01*
X132199047Y-149587976D01*
X132341904Y-149587976D01*
X132437142Y-149635595D01*
X132484761Y-149683214D01*
X132532380Y-149778452D01*
X132532380Y-150159404D01*
X131532380Y-150159404D01*
X131532380Y-149826071D01*
X131580000Y-149730833D01*
X131627619Y-149683214D01*
X131722857Y-149635595D01*
X131818095Y-149635595D01*
X131913333Y-149683214D01*
X131960952Y-149730833D01*
X132008571Y-149826071D01*
X132008571Y-150159404D01*
X132532380Y-149159404D02*
X131532380Y-149159404D01*
X131532380Y-148921309D01*
X131580000Y-148778452D01*
X131675238Y-148683214D01*
X131770476Y-148635595D01*
X131960952Y-148587976D01*
X132103809Y-148587976D01*
X132294285Y-148635595D01*
X132389523Y-148683214D01*
X132484761Y-148778452D01*
X132532380Y-148921309D01*
X132532380Y-149159404D01*
X132532380Y-148159404D02*
X131532380Y-148159404D01*
X132532380Y-147111785D02*
X132056190Y-147445119D01*
X132532380Y-147683214D02*
X131532380Y-147683214D01*
X131532380Y-147302261D01*
X131580000Y-147207023D01*
X131627619Y-147159404D01*
X131722857Y-147111785D01*
X131865714Y-147111785D01*
X131960952Y-147159404D01*
X132008571Y-147207023D01*
X132056190Y-147302261D01*
X132056190Y-147683214D01*
X108458095Y-151312619D02*
X108505714Y-151265000D01*
X108600952Y-151217380D01*
X108839047Y-151217380D01*
X108934285Y-151265000D01*
X108981904Y-151312619D01*
X109029523Y-151407857D01*
X109029523Y-151503095D01*
X108981904Y-151645952D01*
X108410476Y-152217380D01*
X109029523Y-152217380D01*
X109600952Y-151645952D02*
X109505714Y-151598333D01*
X109458095Y-151550714D01*
X109410476Y-151455476D01*
X109410476Y-151407857D01*
X109458095Y-151312619D01*
X109505714Y-151265000D01*
X109600952Y-151217380D01*
X109791428Y-151217380D01*
X109886666Y-151265000D01*
X109934285Y-151312619D01*
X109981904Y-151407857D01*
X109981904Y-151455476D01*
X109934285Y-151550714D01*
X109886666Y-151598333D01*
X109791428Y-151645952D01*
X109600952Y-151645952D01*
X109505714Y-151693571D01*
X109458095Y-151741190D01*
X109410476Y-151836428D01*
X109410476Y-152026904D01*
X109458095Y-152122142D01*
X109505714Y-152169761D01*
X109600952Y-152217380D01*
X109791428Y-152217380D01*
X109886666Y-152169761D01*
X109934285Y-152122142D01*
X109981904Y-152026904D01*
X109981904Y-151836428D01*
X109934285Y-151741190D01*
X109886666Y-151693571D01*
X109791428Y-151645952D01*
X81041904Y-151217380D02*
X80565714Y-151217380D01*
X80518095Y-151693571D01*
X80565714Y-151645952D01*
X80660952Y-151598333D01*
X80899047Y-151598333D01*
X80994285Y-151645952D01*
X81041904Y-151693571D01*
X81089523Y-151788809D01*
X81089523Y-152026904D01*
X81041904Y-152122142D01*
X80994285Y-152169761D01*
X80899047Y-152217380D01*
X80660952Y-152217380D01*
X80565714Y-152169761D01*
X80518095Y-152122142D01*
X81708571Y-151217380D02*
X81803809Y-151217380D01*
X81899047Y-151265000D01*
X81946666Y-151312619D01*
X81994285Y-151407857D01*
X82041904Y-151598333D01*
X82041904Y-151836428D01*
X81994285Y-152026904D01*
X81946666Y-152122142D01*
X81899047Y-152169761D01*
X81803809Y-152217380D01*
X81708571Y-152217380D01*
X81613333Y-152169761D01*
X81565714Y-152122142D01*
X81518095Y-152026904D01*
X81470476Y-151836428D01*
X81470476Y-151598333D01*
X81518095Y-151407857D01*
X81565714Y-151312619D01*
X81613333Y-151265000D01*
X81708571Y-151217380D01*
X98250476Y-151217380D02*
X98869523Y-151217380D01*
X98536190Y-151598333D01*
X98679047Y-151598333D01*
X98774285Y-151645952D01*
X98821904Y-151693571D01*
X98869523Y-151788809D01*
X98869523Y-152026904D01*
X98821904Y-152122142D01*
X98774285Y-152169761D01*
X98679047Y-152217380D01*
X98393333Y-152217380D01*
X98298095Y-152169761D01*
X98250476Y-152122142D01*
X99726666Y-151217380D02*
X99536190Y-151217380D01*
X99440952Y-151265000D01*
X99393333Y-151312619D01*
X99298095Y-151455476D01*
X99250476Y-151645952D01*
X99250476Y-152026904D01*
X99298095Y-152122142D01*
X99345714Y-152169761D01*
X99440952Y-152217380D01*
X99631428Y-152217380D01*
X99726666Y-152169761D01*
X99774285Y-152122142D01*
X99821904Y-152026904D01*
X99821904Y-151788809D01*
X99774285Y-151693571D01*
X99726666Y-151645952D01*
X99631428Y-151598333D01*
X99440952Y-151598333D01*
X99345714Y-151645952D01*
X99298095Y-151693571D01*
X99250476Y-151788809D01*
X99512380Y-150159404D02*
X98512380Y-150159404D01*
X98512380Y-149921309D01*
X98560000Y-149778452D01*
X98655238Y-149683214D01*
X98750476Y-149635595D01*
X98940952Y-149587976D01*
X99083809Y-149587976D01*
X99274285Y-149635595D01*
X99369523Y-149683214D01*
X99464761Y-149778452D01*
X99512380Y-149921309D01*
X99512380Y-150159404D01*
X98607619Y-149207023D02*
X98560000Y-149159404D01*
X98512380Y-149064166D01*
X98512380Y-148826071D01*
X98560000Y-148730833D01*
X98607619Y-148683214D01*
X98702857Y-148635595D01*
X98798095Y-148635595D01*
X98940952Y-148683214D01*
X99512380Y-149254642D01*
X99512380Y-148635595D01*
X111926666Y-150207023D02*
X111926666Y-149730833D01*
X112212380Y-150302261D02*
X111212380Y-149968928D01*
X112212380Y-149635595D01*
X112212380Y-148778452D02*
X112212380Y-149349880D01*
X112212380Y-149064166D02*
X111212380Y-149064166D01*
X111355238Y-149159404D01*
X111450476Y-149254642D01*
X111498095Y-149349880D01*
X111212380Y-148445119D02*
X111212380Y-147826071D01*
X111593333Y-148159404D01*
X111593333Y-148016547D01*
X111640952Y-147921309D01*
X111688571Y-147873690D01*
X111783809Y-147826071D01*
X112021904Y-147826071D01*
X112117142Y-147873690D01*
X112164761Y-147921309D01*
X112212380Y-148016547D01*
X112212380Y-148302261D01*
X112164761Y-148397500D01*
X112117142Y-148445119D01*
X109386666Y-150207023D02*
X109386666Y-149730833D01*
X109672380Y-150302261D02*
X108672380Y-149968928D01*
X109672380Y-149635595D01*
X108672380Y-149111785D02*
X108672380Y-149016547D01*
X108720000Y-148921309D01*
X108767619Y-148873690D01*
X108862857Y-148826071D01*
X109053333Y-148778452D01*
X109291428Y-148778452D01*
X109481904Y-148826071D01*
X109577142Y-148873690D01*
X109624761Y-148921309D01*
X109672380Y-149016547D01*
X109672380Y-149111785D01*
X109624761Y-149207023D01*
X109577142Y-149254642D01*
X109481904Y-149302261D01*
X109291428Y-149349880D01*
X109053333Y-149349880D01*
X108862857Y-149302261D01*
X108767619Y-149254642D01*
X108720000Y-149207023D01*
X108672380Y-149111785D01*
X117006666Y-150207023D02*
X117006666Y-149730833D01*
X117292380Y-150302261D02*
X116292380Y-149968928D01*
X117292380Y-149635595D01*
X116292380Y-148873690D02*
X116292380Y-149064166D01*
X116340000Y-149159404D01*
X116387619Y-149207023D01*
X116530476Y-149302261D01*
X116720952Y-149349880D01*
X117101904Y-149349880D01*
X117197142Y-149302261D01*
X117244761Y-149254642D01*
X117292380Y-149159404D01*
X117292380Y-148968928D01*
X117244761Y-148873690D01*
X117197142Y-148826071D01*
X117101904Y-148778452D01*
X116863809Y-148778452D01*
X116768571Y-148826071D01*
X116720952Y-148873690D01*
X116673333Y-148968928D01*
X116673333Y-149159404D01*
X116720952Y-149254642D01*
X116768571Y-149302261D01*
X116863809Y-149349880D01*
X121729523Y-152217380D02*
X121158095Y-152217380D01*
X121443809Y-152217380D02*
X121443809Y-151217380D01*
X121348571Y-151360238D01*
X121253333Y-151455476D01*
X121158095Y-151503095D01*
X122300952Y-151645952D02*
X122205714Y-151598333D01*
X122158095Y-151550714D01*
X122110476Y-151455476D01*
X122110476Y-151407857D01*
X122158095Y-151312619D01*
X122205714Y-151265000D01*
X122300952Y-151217380D01*
X122491428Y-151217380D01*
X122586666Y-151265000D01*
X122634285Y-151312619D01*
X122681904Y-151407857D01*
X122681904Y-151455476D01*
X122634285Y-151550714D01*
X122586666Y-151598333D01*
X122491428Y-151645952D01*
X122300952Y-151645952D01*
X122205714Y-151693571D01*
X122158095Y-151741190D01*
X122110476Y-151836428D01*
X122110476Y-152026904D01*
X122158095Y-152122142D01*
X122205714Y-152169761D01*
X122300952Y-152217380D01*
X122491428Y-152217380D01*
X122586666Y-152169761D01*
X122634285Y-152122142D01*
X122681904Y-152026904D01*
X122681904Y-151836428D01*
X122634285Y-151741190D01*
X122586666Y-151693571D01*
X122491428Y-151645952D01*
X141954285Y-151312619D02*
X142001904Y-151265000D01*
X142097142Y-151217380D01*
X142335238Y-151217380D01*
X142430476Y-151265000D01*
X142478095Y-151312619D01*
X142525714Y-151407857D01*
X142525714Y-151503095D01*
X142478095Y-151645952D01*
X141906666Y-152217380D01*
X142525714Y-152217380D01*
X127452380Y-149587976D02*
X126976190Y-149921309D01*
X127452380Y-150159404D02*
X126452380Y-150159404D01*
X126452380Y-149778452D01*
X126500000Y-149683214D01*
X126547619Y-149635595D01*
X126642857Y-149587976D01*
X126785714Y-149587976D01*
X126880952Y-149635595D01*
X126928571Y-149683214D01*
X126976190Y-149778452D01*
X126976190Y-150159404D01*
X127452380Y-149159404D02*
X126452380Y-149159404D01*
X126452380Y-148921309D01*
X126500000Y-148778452D01*
X126595238Y-148683214D01*
X126690476Y-148635595D01*
X126880952Y-148587976D01*
X127023809Y-148587976D01*
X127214285Y-148635595D01*
X127309523Y-148683214D01*
X127404761Y-148778452D01*
X127452380Y-148921309D01*
X127452380Y-149159404D01*
X110998095Y-151312619D02*
X111045714Y-151265000D01*
X111140952Y-151217380D01*
X111379047Y-151217380D01*
X111474285Y-151265000D01*
X111521904Y-151312619D01*
X111569523Y-151407857D01*
X111569523Y-151503095D01*
X111521904Y-151645952D01*
X110950476Y-152217380D01*
X111569523Y-152217380D01*
X112426666Y-151217380D02*
X112236190Y-151217380D01*
X112140952Y-151265000D01*
X112093333Y-151312619D01*
X111998095Y-151455476D01*
X111950476Y-151645952D01*
X111950476Y-152026904D01*
X111998095Y-152122142D01*
X112045714Y-152169761D01*
X112140952Y-152217380D01*
X112331428Y-152217380D01*
X112426666Y-152169761D01*
X112474285Y-152122142D01*
X112521904Y-152026904D01*
X112521904Y-151788809D01*
X112474285Y-151693571D01*
X112426666Y-151645952D01*
X112331428Y-151598333D01*
X112140952Y-151598333D01*
X112045714Y-151645952D01*
X111998095Y-151693571D01*
X111950476Y-151788809D01*
X139890476Y-151550714D02*
X139890476Y-152217380D01*
X139652380Y-151169761D02*
X139414285Y-151884047D01*
X140033333Y-151884047D01*
X93694285Y-151550714D02*
X93694285Y-152217380D01*
X93456190Y-151169761D02*
X93218095Y-151884047D01*
X93837142Y-151884047D01*
X94408571Y-151217380D02*
X94503809Y-151217380D01*
X94599047Y-151265000D01*
X94646666Y-151312619D01*
X94694285Y-151407857D01*
X94741904Y-151598333D01*
X94741904Y-151836428D01*
X94694285Y-152026904D01*
X94646666Y-152122142D01*
X94599047Y-152169761D01*
X94503809Y-152217380D01*
X94408571Y-152217380D01*
X94313333Y-152169761D01*
X94265714Y-152122142D01*
X94218095Y-152026904D01*
X94170476Y-151836428D01*
X94170476Y-151598333D01*
X94218095Y-151407857D01*
X94265714Y-151312619D01*
X94313333Y-151265000D01*
X94408571Y-151217380D01*
X135072380Y-150159404D02*
X134072380Y-150159404D01*
X135072380Y-149683214D02*
X134072380Y-149683214D01*
X135072380Y-149111785D01*
X134072380Y-149111785D01*
X134072380Y-148778452D02*
X134072380Y-148207023D01*
X135072380Y-148492738D02*
X134072380Y-148492738D01*
X103330476Y-151217380D02*
X103949523Y-151217380D01*
X103616190Y-151598333D01*
X103759047Y-151598333D01*
X103854285Y-151645952D01*
X103901904Y-151693571D01*
X103949523Y-151788809D01*
X103949523Y-152026904D01*
X103901904Y-152122142D01*
X103854285Y-152169761D01*
X103759047Y-152217380D01*
X103473333Y-152217380D01*
X103378095Y-152169761D01*
X103330476Y-152122142D01*
X104330476Y-151312619D02*
X104378095Y-151265000D01*
X104473333Y-151217380D01*
X104711428Y-151217380D01*
X104806666Y-151265000D01*
X104854285Y-151312619D01*
X104901904Y-151407857D01*
X104901904Y-151503095D01*
X104854285Y-151645952D01*
X104282857Y-152217380D01*
X104901904Y-152217380D01*
X89304761Y-150207023D02*
X89352380Y-150064166D01*
X89352380Y-149826071D01*
X89304761Y-149730833D01*
X89257142Y-149683214D01*
X89161904Y-149635595D01*
X89066666Y-149635595D01*
X88971428Y-149683214D01*
X88923809Y-149730833D01*
X88876190Y-149826071D01*
X88828571Y-150016547D01*
X88780952Y-150111785D01*
X88733333Y-150159404D01*
X88638095Y-150207023D01*
X88542857Y-150207023D01*
X88447619Y-150159404D01*
X88400000Y-150111785D01*
X88352380Y-150016547D01*
X88352380Y-149778452D01*
X88400000Y-149635595D01*
X88352380Y-149302261D02*
X89352380Y-149064166D01*
X88638095Y-148873690D01*
X89352380Y-148683214D01*
X88352380Y-148445119D01*
X94432380Y-150159404D02*
X93432380Y-150159404D01*
X93432380Y-149921309D01*
X93480000Y-149778452D01*
X93575238Y-149683214D01*
X93670476Y-149635595D01*
X93860952Y-149587976D01*
X94003809Y-149587976D01*
X94194285Y-149635595D01*
X94289523Y-149683214D01*
X94384761Y-149778452D01*
X94432380Y-149921309D01*
X94432380Y-150159404D01*
X93432380Y-148730833D02*
X93432380Y-148921309D01*
X93480000Y-149016547D01*
X93527619Y-149064166D01*
X93670476Y-149159404D01*
X93860952Y-149207023D01*
X94241904Y-149207023D01*
X94337142Y-149159404D01*
X94384761Y-149111785D01*
X94432380Y-149016547D01*
X94432380Y-148826071D01*
X94384761Y-148730833D01*
X94337142Y-148683214D01*
X94241904Y-148635595D01*
X94003809Y-148635595D01*
X93908571Y-148683214D01*
X93860952Y-148730833D01*
X93813333Y-148826071D01*
X93813333Y-149016547D01*
X93860952Y-149111785D01*
X93908571Y-149159404D01*
X94003809Y-149207023D01*
X137612380Y-149587976D02*
X137136190Y-149921309D01*
X137612380Y-150159404D02*
X136612380Y-150159404D01*
X136612380Y-149778452D01*
X136660000Y-149683214D01*
X136707619Y-149635595D01*
X136802857Y-149587976D01*
X136945714Y-149587976D01*
X137040952Y-149635595D01*
X137088571Y-149683214D01*
X137136190Y-149778452D01*
X137136190Y-150159404D01*
X137088571Y-148826071D02*
X137088571Y-149159404D01*
X137612380Y-149159404D02*
X136612380Y-149159404D01*
X136612380Y-148683214D01*
X137564761Y-148349880D02*
X137612380Y-148207023D01*
X137612380Y-147968928D01*
X137564761Y-147873690D01*
X137517142Y-147826071D01*
X137421904Y-147778452D01*
X137326666Y-147778452D01*
X137231428Y-147826071D01*
X137183809Y-147873690D01*
X137136190Y-147968928D01*
X137088571Y-148159404D01*
X137040952Y-148254642D01*
X136993333Y-148302261D01*
X136898095Y-148349880D01*
X136802857Y-148349880D01*
X136707619Y-148302261D01*
X136660000Y-148254642D01*
X136612380Y-148159404D01*
X136612380Y-147921309D01*
X136660000Y-147778452D01*
X137612380Y-147349880D02*
X136612380Y-147349880D01*
X137088571Y-147349880D02*
X137088571Y-146778452D01*
X137612380Y-146778452D02*
X136612380Y-146778452D01*
X137350476Y-151217380D02*
X137160000Y-151217380D01*
X137064761Y-151265000D01*
X137017142Y-151312619D01*
X136921904Y-151455476D01*
X136874285Y-151645952D01*
X136874285Y-152026904D01*
X136921904Y-152122142D01*
X136969523Y-152169761D01*
X137064761Y-152217380D01*
X137255238Y-152217380D01*
X137350476Y-152169761D01*
X137398095Y-152122142D01*
X137445714Y-152026904D01*
X137445714Y-151788809D01*
X137398095Y-151693571D01*
X137350476Y-151645952D01*
X137255238Y-151598333D01*
X137064761Y-151598333D01*
X136969523Y-151645952D01*
X136921904Y-151693571D01*
X136874285Y-151788809D01*
X104306666Y-150207023D02*
X104306666Y-149730833D01*
X104592380Y-150302261D02*
X103592380Y-149968928D01*
X104592380Y-149635595D01*
X103925714Y-148873690D02*
X104592380Y-148873690D01*
X103544761Y-149111785D02*
X104259047Y-149349880D01*
X104259047Y-148730833D01*
X106846666Y-150207023D02*
X106846666Y-149730833D01*
X107132380Y-150302261D02*
X106132380Y-149968928D01*
X107132380Y-149635595D01*
X106227619Y-149349880D02*
X106180000Y-149302261D01*
X106132380Y-149207023D01*
X106132380Y-148968928D01*
X106180000Y-148873690D01*
X106227619Y-148826071D01*
X106322857Y-148778452D01*
X106418095Y-148778452D01*
X106560952Y-148826071D01*
X107132380Y-149397500D01*
X107132380Y-148778452D01*
X124269523Y-152217380D02*
X123698095Y-152217380D01*
X123983809Y-152217380D02*
X123983809Y-151217380D01*
X123888571Y-151360238D01*
X123793333Y-151455476D01*
X123698095Y-151503095D01*
X125126666Y-151217380D02*
X124936190Y-151217380D01*
X124840952Y-151265000D01*
X124793333Y-151312619D01*
X124698095Y-151455476D01*
X124650476Y-151645952D01*
X124650476Y-152026904D01*
X124698095Y-152122142D01*
X124745714Y-152169761D01*
X124840952Y-152217380D01*
X125031428Y-152217380D01*
X125126666Y-152169761D01*
X125174285Y-152122142D01*
X125221904Y-152026904D01*
X125221904Y-151788809D01*
X125174285Y-151693571D01*
X125126666Y-151645952D01*
X125031428Y-151598333D01*
X124840952Y-151598333D01*
X124745714Y-151645952D01*
X124698095Y-151693571D01*
X124650476Y-151788809D01*
X140104761Y-150207023D02*
X140152380Y-150064166D01*
X140152380Y-149826071D01*
X140104761Y-149730833D01*
X140057142Y-149683214D01*
X139961904Y-149635595D01*
X139866666Y-149635595D01*
X139771428Y-149683214D01*
X139723809Y-149730833D01*
X139676190Y-149826071D01*
X139628571Y-150016547D01*
X139580952Y-150111785D01*
X139533333Y-150159404D01*
X139438095Y-150207023D01*
X139342857Y-150207023D01*
X139247619Y-150159404D01*
X139200000Y-150111785D01*
X139152380Y-150016547D01*
X139152380Y-149778452D01*
X139200000Y-149635595D01*
X140152380Y-148730833D02*
X140152380Y-149207023D01*
X139152380Y-149207023D01*
X139152380Y-148540357D02*
X139152380Y-147968928D01*
X140152380Y-148254642D02*
X139152380Y-148254642D01*
X140104761Y-147683214D02*
X140152380Y-147540357D01*
X140152380Y-147302261D01*
X140104761Y-147207023D01*
X140057142Y-147159404D01*
X139961904Y-147111785D01*
X139866666Y-147111785D01*
X139771428Y-147159404D01*
X139723809Y-147207023D01*
X139676190Y-147302261D01*
X139628571Y-147492738D01*
X139580952Y-147587976D01*
X139533333Y-147635595D01*
X139438095Y-147683214D01*
X139342857Y-147683214D01*
X139247619Y-147635595D01*
X139200000Y-147587976D01*
X139152380Y-147492738D01*
X139152380Y-147254642D01*
X139200000Y-147111785D01*
X140152380Y-146207023D02*
X140152380Y-146683214D01*
X139152380Y-146683214D01*
X131889523Y-152217380D02*
X131318095Y-152217380D01*
X131603809Y-152217380D02*
X131603809Y-151217380D01*
X131508571Y-151360238D01*
X131413333Y-151455476D01*
X131318095Y-151503095D01*
X132508571Y-151217380D02*
X132603809Y-151217380D01*
X132699047Y-151265000D01*
X132746666Y-151312619D01*
X132794285Y-151407857D01*
X132841904Y-151598333D01*
X132841904Y-151836428D01*
X132794285Y-152026904D01*
X132746666Y-152122142D01*
X132699047Y-152169761D01*
X132603809Y-152217380D01*
X132508571Y-152217380D01*
X132413333Y-152169761D01*
X132365714Y-152122142D01*
X132318095Y-152026904D01*
X132270476Y-151836428D01*
X132270476Y-151598333D01*
X132318095Y-151407857D01*
X132365714Y-151312619D01*
X132413333Y-151265000D01*
X132508571Y-151217380D01*
X102052380Y-150159404D02*
X101052380Y-150159404D01*
X101052380Y-149921309D01*
X101100000Y-149778452D01*
X101195238Y-149683214D01*
X101290476Y-149635595D01*
X101480952Y-149587976D01*
X101623809Y-149587976D01*
X101814285Y-149635595D01*
X101909523Y-149683214D01*
X102004761Y-149778452D01*
X102052380Y-149921309D01*
X102052380Y-150159404D01*
X101052380Y-148968928D02*
X101052380Y-148873690D01*
X101100000Y-148778452D01*
X101147619Y-148730833D01*
X101242857Y-148683214D01*
X101433333Y-148635595D01*
X101671428Y-148635595D01*
X101861904Y-148683214D01*
X101957142Y-148730833D01*
X102004761Y-148778452D01*
X102052380Y-148873690D01*
X102052380Y-148968928D01*
X102004761Y-149064166D01*
X101957142Y-149111785D01*
X101861904Y-149159404D01*
X101671428Y-149207023D01*
X101433333Y-149207023D01*
X101242857Y-149159404D01*
X101147619Y-149111785D01*
X101100000Y-149064166D01*
X101052380Y-148968928D01*
X129992380Y-150159404D02*
X128992380Y-150159404D01*
X129706666Y-149826071D01*
X128992380Y-149492738D01*
X129992380Y-149492738D01*
X129992380Y-148445119D02*
X129516190Y-148778452D01*
X129992380Y-149016547D02*
X128992380Y-149016547D01*
X128992380Y-148635595D01*
X129040000Y-148540357D01*
X129087619Y-148492738D01*
X129182857Y-148445119D01*
X129325714Y-148445119D01*
X129420952Y-148492738D01*
X129468571Y-148540357D01*
X129516190Y-148635595D01*
X129516190Y-149016547D01*
X130087619Y-147349880D02*
X130040000Y-147445119D01*
X129944761Y-147540357D01*
X129801904Y-147683214D01*
X129754285Y-147778452D01*
X129754285Y-147873690D01*
X129992380Y-147826071D02*
X129944761Y-147921309D01*
X129849523Y-148016547D01*
X129659047Y-148064166D01*
X129325714Y-148064166D01*
X129135238Y-148016547D01*
X129040000Y-147921309D01*
X128992380Y-147826071D01*
X128992380Y-147635595D01*
X129040000Y-147540357D01*
X129135238Y-147445119D01*
X129325714Y-147397500D01*
X129659047Y-147397500D01*
X129849523Y-147445119D01*
X129944761Y-147540357D01*
X129992380Y-147635595D01*
X129992380Y-147826071D01*
%LPC*%
D11*
X139860000Y-145345000D03*
X83660000Y-140245000D03*
D12*
X142240000Y-157480000D03*
X139700000Y-157480000D03*
X137160000Y-157480000D03*
X134620000Y-157480000D03*
X132080000Y-157480000D03*
X129540000Y-157480000D03*
X127000000Y-157480000D03*
X124460000Y-157480000D03*
X121920000Y-157480000D03*
X119380000Y-157480000D03*
X116840000Y-157480000D03*
X114300000Y-157480000D03*
X111760000Y-157480000D03*
X109220000Y-157480000D03*
X106680000Y-157480000D03*
X104140000Y-157480000D03*
X101600000Y-157480000D03*
X99060000Y-157480000D03*
X96520000Y-157480000D03*
X93980000Y-157480000D03*
X91440000Y-157480000D03*
X88900000Y-156210000D03*
X86360000Y-157480000D03*
X83820000Y-157480000D03*
X81280000Y-157480000D03*
D13*
X124460000Y-45720000D03*
X119460000Y-45720000D03*
X86360000Y-76200000D03*
D14*
X93980000Y-76200000D03*
D15*
X127000000Y-50800000D03*
D16*
X127000000Y-53340000D03*
X127000000Y-55880000D03*
X127000000Y-58420000D03*
X127000000Y-60960000D03*
X127000000Y-63500000D03*
X127000000Y-66040000D03*
X127000000Y-68580000D03*
X127000000Y-71120000D03*
X127000000Y-73660000D03*
X119380000Y-73660000D03*
X119380000Y-71120000D03*
X119380000Y-68580000D03*
X119380000Y-66040000D03*
X119380000Y-63500000D03*
X119380000Y-60960000D03*
X119380000Y-58420000D03*
X119380000Y-55880000D03*
X119380000Y-53340000D03*
X119380000Y-50800000D03*
D17*
X101600000Y-76200000D03*
D18*
X99600000Y-76200000D03*
D17*
X109220000Y-76200000D03*
D18*
X107220000Y-76200000D03*
D13*
X111760000Y-45720000D03*
X106760000Y-45720000D03*
X149860000Y-45720000D03*
X144860000Y-45720000D03*
D15*
X152400000Y-50800000D03*
D16*
X152400000Y-53340000D03*
X152400000Y-55880000D03*
X152400000Y-58420000D03*
X152400000Y-60960000D03*
X152400000Y-63500000D03*
X152400000Y-66040000D03*
X152400000Y-68580000D03*
X152400000Y-71120000D03*
X152400000Y-73660000D03*
X144780000Y-73660000D03*
X144780000Y-71120000D03*
X144780000Y-68580000D03*
X144780000Y-66040000D03*
X144780000Y-63500000D03*
X144780000Y-60960000D03*
X144780000Y-58420000D03*
X144780000Y-55880000D03*
X144780000Y-53340000D03*
X144780000Y-50800000D03*
D19*
X93980000Y-137160000D03*
D20*
X91440000Y-137160000D03*
D15*
X139700000Y-50800000D03*
D16*
X139700000Y-53340000D03*
X139700000Y-55880000D03*
X139700000Y-58420000D03*
X139700000Y-60960000D03*
X139700000Y-63500000D03*
X139700000Y-66040000D03*
X139700000Y-68580000D03*
X139700000Y-71120000D03*
X139700000Y-73660000D03*
X132080000Y-73660000D03*
X132080000Y-71120000D03*
X132080000Y-68580000D03*
X132080000Y-66040000D03*
X132080000Y-63500000D03*
X132080000Y-60960000D03*
X132080000Y-58420000D03*
X132080000Y-55880000D03*
X132080000Y-53340000D03*
X132080000Y-50800000D03*
D21*
X111760000Y-71120000D03*
D22*
X109220000Y-71120000D03*
X106680000Y-71120000D03*
X104140000Y-71120000D03*
X101600000Y-71120000D03*
X99060000Y-71120000D03*
X96520000Y-71120000D03*
X93980000Y-71120000D03*
X91440000Y-71120000D03*
X88900000Y-71120000D03*
X86360000Y-71120000D03*
X83820000Y-71120000D03*
X81280000Y-71120000D03*
X78740000Y-71120000D03*
X76200000Y-71120000D03*
X73660000Y-71120000D03*
X71120000Y-71120000D03*
X68580000Y-71120000D03*
X66040000Y-71120000D03*
X63500000Y-71120000D03*
X63500000Y-50800000D03*
X66040000Y-50800000D03*
X68580000Y-50800000D03*
X71120000Y-50800000D03*
X73660000Y-50800000D03*
X76200000Y-50800000D03*
X78740000Y-50800000D03*
X81280000Y-50800000D03*
X83820000Y-50800000D03*
X86360000Y-50800000D03*
X88900000Y-50800000D03*
X91440000Y-50800000D03*
X93980000Y-50800000D03*
X96520000Y-50800000D03*
X99060000Y-50800000D03*
X101600000Y-50800000D03*
X104140000Y-50800000D03*
X106680000Y-50800000D03*
X109220000Y-50800000D03*
X111760000Y-50800000D03*
D13*
X137160000Y-45720000D03*
X132160000Y-45720000D03*
D19*
X111760000Y-106680000D03*
D20*
X111760000Y-109220000D03*
M02*
