G04 #@! TF.GenerationSoftware,KiCad,Pcbnew,(6.0.9)*
G04 #@! TF.CreationDate,2024-04-26T19:01:12+02:00*
G04 #@! TF.ProjectId,Cartucho_MSX_LCD_Tang_Nano_20k,43617274-7563-4686-9f5f-4d53585f4c43,rev?*
G04 #@! TF.SameCoordinates,Original*
G04 #@! TF.FileFunction,Copper,L2,Bot*
G04 #@! TF.FilePolarity,Positive*
%FSLAX46Y46*%
G04 Gerber Fmt 4.6, Leading zero omitted, Abs format (unit mm)*
G04 Created by KiCad (PCBNEW (6.0.9)) date 2024-04-26 19:01:12*
%MOMM*%
%LPD*%
G01*
G04 APERTURE LIST*
G04 #@! TA.AperFunction,SMDPad,CuDef*
%ADD10R,1.270000X7.620000*%
G04 #@! TD*
G04 #@! TA.AperFunction,ComponentPad*
%ADD11C,1.600000*%
G04 #@! TD*
G04 #@! TA.AperFunction,ComponentPad*
%ADD12O,1.600000X1.600000*%
G04 #@! TD*
G04 #@! TA.AperFunction,ComponentPad*
%ADD13R,2.400000X1.600000*%
G04 #@! TD*
G04 #@! TA.AperFunction,ComponentPad*
%ADD14O,2.400000X1.600000*%
G04 #@! TD*
G04 #@! TA.AperFunction,ComponentPad*
%ADD15R,1.200000X1.200000*%
G04 #@! TD*
G04 #@! TA.AperFunction,ComponentPad*
%ADD16C,1.200000*%
G04 #@! TD*
G04 #@! TA.AperFunction,ComponentPad*
%ADD17R,1.700000X1.700000*%
G04 #@! TD*
G04 #@! TA.AperFunction,ComponentPad*
%ADD18O,1.700000X1.700000*%
G04 #@! TD*
G04 #@! TA.AperFunction,ComponentPad*
%ADD19R,1.600000X2.400000*%
G04 #@! TD*
G04 #@! TA.AperFunction,ComponentPad*
%ADD20O,1.600000X2.400000*%
G04 #@! TD*
G04 #@! TA.AperFunction,ViaPad*
%ADD21C,0.800000*%
G04 #@! TD*
G04 #@! TA.AperFunction,Conductor*
%ADD22C,0.450000*%
G04 #@! TD*
G04 #@! TA.AperFunction,Conductor*
%ADD23C,0.300000*%
G04 #@! TD*
G04 APERTURE END LIST*
D10*
X142240000Y-157480000D03*
X139700000Y-157480000D03*
X137160000Y-157480000D03*
X134620000Y-157480000D03*
X132080000Y-157480000D03*
X129540000Y-157480000D03*
X127000000Y-157480000D03*
X124460000Y-157480000D03*
X121920000Y-157480000D03*
X119380000Y-157480000D03*
X116840000Y-157480000D03*
X114300000Y-157480000D03*
X111760000Y-157480000D03*
X109220000Y-157480000D03*
X106680000Y-157480000D03*
X104140000Y-157480000D03*
X101600000Y-157480000D03*
X99060000Y-157480000D03*
X96520000Y-157480000D03*
X93980000Y-157480000D03*
X91440000Y-157480000D03*
X88900000Y-157480000D03*
X86360000Y-157480000D03*
X83820000Y-157480000D03*
X81280000Y-157480000D03*
D11*
X124460000Y-45720000D03*
X119460000Y-45720000D03*
X86360000Y-76200000D03*
D12*
X93980000Y-76200000D03*
D13*
X127000000Y-50800000D03*
D14*
X127000000Y-53340000D03*
X127000000Y-55880000D03*
X127000000Y-58420000D03*
X127000000Y-60960000D03*
X127000000Y-63500000D03*
X127000000Y-66040000D03*
X127000000Y-68580000D03*
X127000000Y-71120000D03*
X127000000Y-73660000D03*
X119380000Y-73660000D03*
X119380000Y-71120000D03*
X119380000Y-68580000D03*
X119380000Y-66040000D03*
X119380000Y-63500000D03*
X119380000Y-60960000D03*
X119380000Y-58420000D03*
X119380000Y-55880000D03*
X119380000Y-53340000D03*
X119380000Y-50800000D03*
D15*
X101600000Y-76200000D03*
D16*
X99600000Y-76200000D03*
D15*
X109220000Y-76200000D03*
D16*
X107220000Y-76200000D03*
D11*
X111760000Y-45720000D03*
X106760000Y-45720000D03*
X149860000Y-45720000D03*
X144860000Y-45720000D03*
D13*
X152400000Y-50800000D03*
D14*
X152400000Y-53340000D03*
X152400000Y-55880000D03*
X152400000Y-58420000D03*
X152400000Y-60960000D03*
X152400000Y-63500000D03*
X152400000Y-66040000D03*
X152400000Y-68580000D03*
X152400000Y-71120000D03*
X152400000Y-73660000D03*
X144780000Y-73660000D03*
X144780000Y-71120000D03*
X144780000Y-68580000D03*
X144780000Y-66040000D03*
X144780000Y-63500000D03*
X144780000Y-60960000D03*
X144780000Y-58420000D03*
X144780000Y-55880000D03*
X144780000Y-53340000D03*
X144780000Y-50800000D03*
D17*
X93980000Y-137160000D03*
D18*
X91440000Y-137160000D03*
D13*
X139700000Y-50800000D03*
D14*
X139700000Y-53340000D03*
X139700000Y-55880000D03*
X139700000Y-58420000D03*
X139700000Y-60960000D03*
X139700000Y-63500000D03*
X139700000Y-66040000D03*
X139700000Y-68580000D03*
X139700000Y-71120000D03*
X139700000Y-73660000D03*
X132080000Y-73660000D03*
X132080000Y-71120000D03*
X132080000Y-68580000D03*
X132080000Y-66040000D03*
X132080000Y-63500000D03*
X132080000Y-60960000D03*
X132080000Y-58420000D03*
X132080000Y-55880000D03*
X132080000Y-53340000D03*
X132080000Y-50800000D03*
D19*
X111760000Y-71120000D03*
D20*
X109220000Y-71120000D03*
X106680000Y-71120000D03*
X104140000Y-71120000D03*
X101600000Y-71120000D03*
X99060000Y-71120000D03*
X96520000Y-71120000D03*
X93980000Y-71120000D03*
X91440000Y-71120000D03*
X88900000Y-71120000D03*
X86360000Y-71120000D03*
X83820000Y-71120000D03*
X81280000Y-71120000D03*
X78740000Y-71120000D03*
X76200000Y-71120000D03*
X73660000Y-71120000D03*
X71120000Y-71120000D03*
X68580000Y-71120000D03*
X66040000Y-71120000D03*
X63500000Y-71120000D03*
X63500000Y-50800000D03*
X66040000Y-50800000D03*
X68580000Y-50800000D03*
X71120000Y-50800000D03*
X73660000Y-50800000D03*
X76200000Y-50800000D03*
X78740000Y-50800000D03*
X81280000Y-50800000D03*
X83820000Y-50800000D03*
X86360000Y-50800000D03*
X88900000Y-50800000D03*
X91440000Y-50800000D03*
X93980000Y-50800000D03*
X96520000Y-50800000D03*
X99060000Y-50800000D03*
X101600000Y-50800000D03*
X104140000Y-50800000D03*
X106680000Y-50800000D03*
X109220000Y-50800000D03*
X111760000Y-50800000D03*
D11*
X137160000Y-45720000D03*
X132160000Y-45720000D03*
D17*
X111760000Y-106680000D03*
D18*
X111760000Y-109220000D03*
D21*
X92675600Y-150339400D03*
X125717500Y-119550400D03*
X124960400Y-128198800D03*
X124954800Y-126713100D03*
X123661600Y-66675100D03*
X124961100Y-124507500D03*
X116948800Y-146895100D03*
X136620500Y-123106800D03*
X133635100Y-67525200D03*
X141250100Y-117942000D03*
X138005200Y-128370600D03*
X121375000Y-63287100D03*
X117829900Y-75961000D03*
X110614100Y-75961000D03*
X116345100Y-73237200D03*
X107104000Y-73618800D03*
X114644800Y-74499900D03*
X114188900Y-72948800D03*
D22*
X114258000Y-75370100D02*
X114941500Y-75370100D01*
X151587500Y-71120000D02*
X151587500Y-68580000D01*
X132080000Y-53340000D02*
X130454900Y-53340000D01*
X143102600Y-47477400D02*
X133917400Y-47477400D01*
X139700000Y-73660000D02*
X141325100Y-73660000D01*
X144780000Y-53340000D02*
X143154900Y-53340000D01*
X136836700Y-74898200D02*
X129863300Y-74898200D01*
X151587500Y-66040000D02*
X150774900Y-66040000D01*
X119460000Y-45869800D02*
X119460000Y-45720000D01*
X111760000Y-109220000D02*
X113035100Y-109220000D01*
X100664100Y-75135900D02*
X114023800Y-75135900D01*
X152400000Y-71120000D02*
X151587500Y-71120000D01*
X123520800Y-75135900D02*
X123709900Y-75325000D01*
X143154900Y-47529700D02*
X143102600Y-47477400D01*
X130454900Y-53340000D02*
X129140100Y-52025200D01*
X150774900Y-66852600D02*
X150774900Y-68580000D01*
X106760000Y-45720000D02*
X79654900Y-45720000D01*
X129140100Y-52025200D02*
X125615400Y-52025200D01*
X142595100Y-72390000D02*
X141325100Y-73660000D01*
X127000000Y-73660000D02*
X128625100Y-73660000D01*
X127000000Y-73660000D02*
X125374900Y-73660000D01*
X151587500Y-73660000D02*
X150774900Y-72847400D01*
X133917400Y-47477400D02*
X132160000Y-45720000D01*
X150774900Y-72847400D02*
X150774900Y-72390000D01*
X118233800Y-46946200D02*
X107986200Y-46946200D01*
X151587500Y-68580000D02*
X150774900Y-68580000D01*
X129863300Y-74898200D02*
X128625100Y-73660000D01*
X150774900Y-66040000D02*
X150774900Y-57709800D01*
X144780000Y-53340000D02*
X146405100Y-53340000D01*
X93980000Y-138435100D02*
X91440000Y-140975100D01*
X93980000Y-137160000D02*
X93980000Y-138435100D01*
X152400000Y-68580000D02*
X151587500Y-68580000D01*
X91440000Y-157480000D02*
X91440000Y-153244900D01*
X150774900Y-57709800D02*
X146405100Y-53340000D01*
X143102600Y-47477400D02*
X144860000Y-45720000D01*
X114941500Y-75370100D02*
X115175700Y-75135900D01*
X139700000Y-73660000D02*
X138074900Y-73660000D01*
X151587500Y-66040000D02*
X150774900Y-66852600D01*
X125399100Y-77014200D02*
X123709900Y-75325000D01*
X99600000Y-76200000D02*
X100664100Y-75135900D01*
X125399100Y-99465200D02*
X125399100Y-77014200D01*
X113035100Y-109220000D02*
X115644300Y-109220000D01*
X91440000Y-140975100D02*
X91440000Y-153244900D01*
X88900000Y-153244900D02*
X91440000Y-153244900D01*
X114023800Y-75135900D02*
X114258000Y-75370100D01*
X152400000Y-73660000D02*
X151587500Y-73660000D01*
X115644300Y-109220000D02*
X125399100Y-99465200D01*
X138074900Y-73660000D02*
X136836700Y-74898200D01*
X107986200Y-46946200D02*
X106760000Y-45720000D01*
X150774900Y-72390000D02*
X150774900Y-71120000D01*
X119460000Y-45720000D02*
X118233800Y-46946200D01*
X88900000Y-157480000D02*
X88900000Y-153244900D01*
X123709900Y-75325000D02*
X125374900Y-73660000D01*
X76200000Y-50800000D02*
X76200000Y-49174900D01*
X151587500Y-71120000D02*
X150774900Y-71120000D01*
X79654900Y-45720000D02*
X76200000Y-49174900D01*
X152400000Y-66040000D02*
X151587500Y-66040000D01*
X115175700Y-75135900D02*
X123520800Y-75135900D01*
X150774900Y-72390000D02*
X142595100Y-72390000D01*
X143154900Y-53340000D02*
X143154900Y-47529700D01*
X125615400Y-52025200D02*
X119460000Y-45869800D01*
D23*
X155484800Y-54874700D02*
X155484800Y-122566300D01*
X155484800Y-122566300D02*
X129540000Y-148511100D01*
X129540000Y-148511100D02*
X129540000Y-157480000D01*
X152400000Y-53340000D02*
X153950100Y-53340000D01*
X153950100Y-53340000D02*
X155484800Y-54874700D01*
X152400000Y-58420000D02*
X153950100Y-58420000D01*
X154984600Y-59454500D02*
X154984600Y-121298600D01*
X127000000Y-149283200D02*
X127000000Y-157480000D01*
X154984600Y-121298600D02*
X127000000Y-149283200D01*
X153950100Y-58420000D02*
X154984600Y-59454500D01*
X154484400Y-121091400D02*
X124460000Y-151115800D01*
X153950100Y-60960000D02*
X154484400Y-61494300D01*
X152400000Y-60960000D02*
X153950100Y-60960000D01*
X124460000Y-151115800D02*
X124460000Y-157480000D01*
X154484400Y-61494300D02*
X154484400Y-121091400D01*
X152400000Y-63500000D02*
X153950100Y-63500000D01*
X153950100Y-63500000D02*
X153950100Y-89064900D01*
X153950100Y-89064900D02*
X92675600Y-150339400D01*
X125717500Y-129202400D02*
X125717500Y-119550400D01*
X101600000Y-157480000D02*
X101600000Y-153319900D01*
X101600000Y-153319900D02*
X125717500Y-129202400D01*
X99839300Y-153319900D02*
X124960400Y-128198800D01*
X99060000Y-153319900D02*
X99839300Y-153319900D01*
X99060000Y-157480000D02*
X99060000Y-153319900D01*
X96520000Y-157480000D02*
X96520000Y-153319900D01*
X98348000Y-153319900D02*
X124954800Y-126713100D01*
X96520000Y-153319900D02*
X98348000Y-153319900D01*
X125449900Y-68580000D02*
X125449900Y-68463400D01*
X125449900Y-68463400D02*
X123661600Y-66675100D01*
X127000000Y-68580000D02*
X125449900Y-68580000D01*
X93980000Y-157480000D02*
X93980000Y-153319900D01*
X93980000Y-153319900D02*
X122792400Y-124507500D01*
X122792400Y-124507500D02*
X124961100Y-124507500D01*
X110524000Y-153319900D02*
X109220000Y-153319900D01*
X109220000Y-157480000D02*
X109220000Y-153319900D01*
X116948800Y-146895100D02*
X110524000Y-153319900D01*
X136620500Y-123106800D02*
X136620500Y-123379400D01*
X106680000Y-157480000D02*
X106680000Y-153319900D01*
X136620500Y-123379400D02*
X106680000Y-153319900D01*
X139700000Y-63500000D02*
X138149900Y-63500000D01*
X134124700Y-67525200D02*
X133635100Y-67525200D01*
X138149900Y-63500000D02*
X134124700Y-67525200D01*
X139517900Y-117942000D02*
X104140000Y-153319900D01*
X141250100Y-117942000D02*
X139517900Y-117942000D01*
X104140000Y-157480000D02*
X104140000Y-153319900D01*
X138005200Y-128370600D02*
X116840000Y-149535800D01*
X116840000Y-149535800D02*
X116840000Y-157480000D01*
X111760000Y-71120000D02*
X116579800Y-71120000D01*
X117960400Y-72500600D02*
X129370500Y-72500600D01*
X129370500Y-72500600D02*
X130529900Y-73660000D01*
X116579800Y-71120000D02*
X117960400Y-72500600D01*
X132080000Y-73660000D02*
X130529900Y-73660000D01*
X121375000Y-63287100D02*
X121375000Y-65480500D01*
X125744500Y-69850000D02*
X128154500Y-69850000D01*
X121375000Y-65480500D02*
X125744500Y-69850000D01*
X129424500Y-71120000D02*
X132080000Y-71120000D01*
X128154500Y-69850000D02*
X129424500Y-71120000D01*
X132080000Y-68580000D02*
X130529900Y-68580000D01*
X115248100Y-56347500D02*
X118590600Y-59690000D01*
X114535900Y-52350100D02*
X115248100Y-53062300D01*
X130529900Y-67504200D02*
X130529900Y-68580000D01*
X104140000Y-52350100D02*
X114535900Y-52350100D01*
X104140000Y-50800000D02*
X104140000Y-52350100D01*
X118590600Y-59690000D02*
X120237000Y-59690000D01*
X120237000Y-59690000D02*
X125317000Y-64770000D01*
X127795700Y-64770000D02*
X130529900Y-67504200D01*
X125317000Y-64770000D02*
X127795700Y-64770000D01*
X115248100Y-53062300D02*
X115248100Y-56347500D01*
X127785600Y-62230000D02*
X125869000Y-62230000D01*
X125869000Y-62230000D02*
X120789000Y-57150000D01*
X112296300Y-49249900D02*
X96520000Y-49249900D01*
X132080000Y-66040000D02*
X130529900Y-66040000D01*
X116175000Y-53128600D02*
X112296300Y-49249900D01*
X96520000Y-50800000D02*
X96520000Y-49249900D01*
X130529900Y-66040000D02*
X130529900Y-64974300D01*
X120789000Y-57150000D02*
X118617000Y-57150000D01*
X116175000Y-54708000D02*
X116175000Y-53128600D01*
X130529900Y-64974300D02*
X127785600Y-62230000D01*
X118617000Y-57150000D02*
X116175000Y-54708000D01*
X112680500Y-48749800D02*
X91940100Y-48749800D01*
X118540700Y-54610000D02*
X112680500Y-48749800D01*
X129259900Y-59690000D02*
X125282000Y-59690000D01*
X120202000Y-54610000D02*
X118540700Y-54610000D01*
X91940100Y-48749800D02*
X91440000Y-49249900D01*
X91440000Y-50800000D02*
X91440000Y-49249900D01*
X130529900Y-60960000D02*
X129259900Y-59690000D01*
X125282000Y-59690000D02*
X120202000Y-54610000D01*
X132080000Y-60960000D02*
X130529900Y-60960000D01*
X132080000Y-58420000D02*
X130529900Y-58420000D01*
X130529900Y-58420000D02*
X129259900Y-57150000D01*
X120202700Y-52070000D02*
X117238100Y-52070000D01*
X86360000Y-50800000D02*
X86360000Y-49249900D01*
X117238100Y-52070000D02*
X113417800Y-48249700D01*
X125282700Y-57150000D02*
X120202700Y-52070000D01*
X129259900Y-57150000D02*
X125282700Y-57150000D01*
X113417800Y-48249700D02*
X87360200Y-48249700D01*
X87360200Y-48249700D02*
X86360000Y-49249900D01*
X132080000Y-55880000D02*
X130529900Y-55880000D01*
X125516900Y-54490200D02*
X118776300Y-47749600D01*
X82780300Y-47749600D02*
X81280000Y-49249900D01*
X130529900Y-55880000D02*
X129140100Y-54490200D01*
X81280000Y-50800000D02*
X81280000Y-49249900D01*
X129140100Y-54490200D02*
X125516900Y-54490200D01*
X118776300Y-47749600D02*
X82780300Y-47749600D01*
X122125100Y-63211600D02*
X122125100Y-62976400D01*
X79313200Y-52923300D02*
X78740000Y-52350100D01*
X144780000Y-66040000D02*
X143229900Y-66040000D01*
X140590100Y-69745500D02*
X130928300Y-69745500D01*
X114674900Y-53211300D02*
X114386900Y-52923300D01*
X118604600Y-62230000D02*
X114674900Y-58300300D01*
X143229900Y-67105700D02*
X140590100Y-69745500D01*
X122125100Y-62976400D02*
X121378700Y-62230000D01*
X121378700Y-62230000D02*
X118604600Y-62230000D01*
X143229900Y-66040000D02*
X143229900Y-67105700D01*
X78740000Y-50800000D02*
X78740000Y-52350100D01*
X126223500Y-67310000D02*
X122125100Y-63211600D01*
X128492800Y-67310000D02*
X126223500Y-67310000D01*
X130928300Y-69745500D02*
X128492800Y-67310000D01*
X114674900Y-58300300D02*
X114674900Y-53211300D01*
X114386900Y-52923300D02*
X79313200Y-52923300D01*
X132581700Y-49274800D02*
X136938800Y-53631900D01*
X71120000Y-49249900D02*
X76454400Y-43915500D01*
X71120000Y-50800000D02*
X71120000Y-49249900D01*
X138874600Y-62230000D02*
X141959900Y-62230000D01*
X136938800Y-53631900D02*
X136938800Y-60294200D01*
X124282000Y-43915500D02*
X129641300Y-49274800D01*
X76454400Y-43915500D02*
X124282000Y-43915500D01*
X144780000Y-63500000D02*
X143229900Y-63500000D01*
X129641300Y-49274800D02*
X132581700Y-49274800D01*
X136938800Y-60294200D02*
X138874600Y-62230000D01*
X141959900Y-62230000D02*
X143229900Y-63500000D01*
X143229900Y-60960000D02*
X141959900Y-59690000D01*
X141959900Y-59690000D02*
X138940500Y-59690000D01*
X137456700Y-53442400D02*
X132767800Y-48753500D01*
X68580000Y-50800000D02*
X68580000Y-49249900D01*
X138940500Y-59690000D02*
X137456700Y-58206200D01*
X74467100Y-43362800D02*
X68580000Y-49249900D01*
X125243800Y-43362800D02*
X74467100Y-43362800D01*
X144780000Y-60960000D02*
X143229900Y-60960000D01*
X132767800Y-48753500D02*
X130634500Y-48753500D01*
X130634500Y-48753500D02*
X125243800Y-43362800D01*
X137456700Y-58206200D02*
X137456700Y-53442400D01*
X141959900Y-57150000D02*
X138930500Y-57150000D01*
X138103400Y-53381900D02*
X132974900Y-48253400D01*
X138103400Y-56322900D02*
X138103400Y-53381900D01*
X144780000Y-58420000D02*
X143229900Y-58420000D01*
X66040000Y-50800000D02*
X66040000Y-49249900D01*
X130841600Y-48253400D02*
X125450900Y-42862700D01*
X132974900Y-48253400D02*
X130841600Y-48253400D01*
X143229900Y-58420000D02*
X141959900Y-57150000D01*
X138930500Y-57150000D02*
X138103400Y-56322900D01*
X72427200Y-42862700D02*
X66040000Y-49249900D01*
X125450900Y-42862700D02*
X72427200Y-42862700D01*
X137378900Y-51950200D02*
X133182000Y-47753300D01*
X127172600Y-42362600D02*
X70387300Y-42362600D01*
X140365800Y-51950200D02*
X137378900Y-51950200D01*
X132563300Y-47753300D02*
X127172600Y-42362600D01*
X70387300Y-42362600D02*
X63500000Y-49249900D01*
X143229900Y-55880000D02*
X143229900Y-54814300D01*
X143229900Y-54814300D02*
X140365800Y-51950200D01*
X144780000Y-55880000D02*
X143229900Y-55880000D01*
X133182000Y-47753300D02*
X132563300Y-47753300D01*
X63500000Y-50800000D02*
X63500000Y-49249900D01*
X117829900Y-73660000D02*
X116360000Y-72190100D01*
X119380000Y-73660000D02*
X117829900Y-73660000D01*
X116360000Y-72190100D02*
X113485500Y-72190100D01*
X113485500Y-72190100D02*
X113005500Y-72670100D01*
X109220000Y-71120000D02*
X109220000Y-72670100D01*
X113005500Y-72670100D02*
X109220000Y-72670100D01*
X104140000Y-71120000D02*
X104140000Y-69569900D01*
X119380000Y-71120000D02*
X117829900Y-71120000D01*
X117829900Y-71120000D02*
X116279800Y-69569900D01*
X116279800Y-69569900D02*
X104140000Y-69569900D01*
X110614100Y-75961000D02*
X117829900Y-75961000D01*
X107234900Y-73749700D02*
X115832600Y-73749700D01*
X107104000Y-73618800D02*
X107234900Y-73749700D01*
X115832600Y-73749700D02*
X116345100Y-73237200D01*
X76200000Y-71120000D02*
X76200000Y-69569900D01*
X119380000Y-63500000D02*
X117829900Y-63500000D01*
X114393700Y-68981300D02*
X76788600Y-68981300D01*
X117829900Y-65545100D02*
X114393700Y-68981300D01*
X117829900Y-63500000D02*
X117829900Y-65545100D01*
X76788600Y-68981300D02*
X76200000Y-69569900D01*
X73660000Y-72670100D02*
X75489800Y-74499900D01*
X73660000Y-71120000D02*
X73660000Y-72670100D01*
X75489800Y-74499900D02*
X114644800Y-74499900D01*
X107716300Y-73170300D02*
X107414700Y-72868700D01*
X113967400Y-73170300D02*
X107716300Y-73170300D01*
X74209300Y-69569900D02*
X71120000Y-69569900D01*
X74930000Y-71887700D02*
X74930000Y-70290600D01*
X74930000Y-70290600D02*
X74209300Y-69569900D01*
X114188900Y-72948800D02*
X113967400Y-73170300D01*
X107414700Y-72868700D02*
X75911000Y-72868700D01*
X75911000Y-72868700D02*
X74930000Y-71887700D01*
X71120000Y-71120000D02*
X71120000Y-69569900D01*
D22*
X124460000Y-45720000D02*
X123233600Y-44493600D01*
X132080000Y-50800000D02*
X127000000Y-50800000D01*
X78341300Y-44493600D02*
X73660000Y-49174900D01*
X123233600Y-44493600D02*
X78341300Y-44493600D01*
X73660000Y-50800000D02*
X73660000Y-49174900D01*
X83820000Y-153244900D02*
X86360000Y-153244900D01*
X87420100Y-152184800D02*
X86360000Y-153244900D01*
X83820000Y-157480000D02*
X83820000Y-153244900D01*
X91440000Y-138435100D02*
X87420100Y-142455000D01*
X87420100Y-142455000D02*
X87420100Y-152184800D01*
X91440000Y-137160000D02*
X91440000Y-138435100D01*
X86360000Y-157480000D02*
X86360000Y-153244900D01*
D23*
X101600000Y-76200000D02*
X100649900Y-76200000D01*
X96094500Y-77164400D02*
X95130100Y-76200000D01*
X100649900Y-76556300D02*
X100041800Y-77164400D01*
X100041800Y-77164400D02*
X96094500Y-77164400D01*
X100649900Y-76200000D02*
X100649900Y-76556300D01*
X93980000Y-76200000D02*
X95130100Y-76200000D01*
X107220000Y-76200000D02*
X116267700Y-85247700D01*
X116267700Y-85247700D02*
X122574500Y-85247700D01*
X124823900Y-99191300D02*
X117335200Y-106680000D01*
X122574500Y-85247700D02*
X124823900Y-87497100D01*
X124823900Y-87497100D02*
X124823900Y-99191300D01*
X117335200Y-106680000D02*
X111760000Y-106680000D01*
M02*
