%TF.GenerationSoftware,KiCad,Pcbnew,(6.0.9)*%
%TF.CreationDate,2024-04-26T19:01:18+02:00*%
%TF.ProjectId,Cartucho_MSX_LCD_Tang_Nano_20k,43617274-7563-4686-9f5f-4d53585f4c43,rev?*%
%TF.SameCoordinates,Original*%
%TF.FileFunction,Drillmap*%
%TF.FilePolarity,Positive*%
%FSLAX45Y45*%
G04 Gerber Fmt 4.5, Leading zero omitted, Abs format (unit mm)*
G04 Created by KiCad (PCBNEW (6.0.9)) date 2024-04-26 19:01:18*
%MOMM*%
%LPD*%
G01*
G04 APERTURE LIST*
%ADD10C,0.200000*%
%ADD11C,0.490000*%
G04 APERTURE END LIST*
D10*
D11*
X8121000Y-13779500D02*
X8611000Y-14269500D01*
X8611000Y-13779500D02*
X8121000Y-14269500D01*
X13741000Y-14289500D02*
X14231000Y-14779500D01*
X14231000Y-14289500D02*
X13741000Y-14779500D01*
D10*
X5896419Y-16452176D02*
X5896419Y-16252176D01*
X5944038Y-16252176D01*
X5972609Y-16261700D01*
X5991657Y-16280748D01*
X6001181Y-16299795D01*
X6010705Y-16337890D01*
X6010705Y-16366462D01*
X6001181Y-16404557D01*
X5991657Y-16423605D01*
X5972609Y-16442652D01*
X5944038Y-16452176D01*
X5896419Y-16452176D01*
X6096419Y-16452176D02*
X6096419Y-16318843D01*
X6096419Y-16356938D02*
X6105943Y-16337890D01*
X6115467Y-16328367D01*
X6134514Y-16318843D01*
X6153562Y-16318843D01*
X6220228Y-16452176D02*
X6220228Y-16318843D01*
X6220228Y-16252176D02*
X6210705Y-16261700D01*
X6220228Y-16271224D01*
X6229752Y-16261700D01*
X6220228Y-16252176D01*
X6220228Y-16271224D01*
X6344038Y-16452176D02*
X6324990Y-16442652D01*
X6315467Y-16423605D01*
X6315467Y-16252176D01*
X6448800Y-16452176D02*
X6429752Y-16442652D01*
X6420228Y-16423605D01*
X6420228Y-16252176D01*
X6677371Y-16452176D02*
X6677371Y-16252176D01*
X6744038Y-16395033D01*
X6810705Y-16252176D01*
X6810705Y-16452176D01*
X6991657Y-16452176D02*
X6991657Y-16347414D01*
X6982133Y-16328367D01*
X6963086Y-16318843D01*
X6924990Y-16318843D01*
X6905943Y-16328367D01*
X6991657Y-16442652D02*
X6972609Y-16452176D01*
X6924990Y-16452176D01*
X6905943Y-16442652D01*
X6896419Y-16423605D01*
X6896419Y-16404557D01*
X6905943Y-16385509D01*
X6924990Y-16375986D01*
X6972609Y-16375986D01*
X6991657Y-16366462D01*
X7086895Y-16318843D02*
X7086895Y-16518843D01*
X7086895Y-16328367D02*
X7105943Y-16318843D01*
X7144038Y-16318843D01*
X7163086Y-16328367D01*
X7172609Y-16337890D01*
X7182133Y-16356938D01*
X7182133Y-16414081D01*
X7172609Y-16433128D01*
X7163086Y-16442652D01*
X7144038Y-16452176D01*
X7105943Y-16452176D01*
X7086895Y-16442652D01*
X7267848Y-16433128D02*
X7277371Y-16442652D01*
X7267848Y-16452176D01*
X7258324Y-16442652D01*
X7267848Y-16433128D01*
X7267848Y-16452176D01*
X7267848Y-16328367D02*
X7277371Y-16337890D01*
X7267848Y-16347414D01*
X7258324Y-16337890D01*
X7267848Y-16328367D01*
X7267848Y-16347414D01*
X5438800Y-16681700D02*
X5638800Y-16881700D01*
X5638800Y-16681700D02*
X5438800Y-16881700D01*
X5982133Y-16738843D02*
X5982133Y-16872176D01*
X5934514Y-16662652D02*
X5886895Y-16805510D01*
X6010705Y-16805510D01*
X6086895Y-16853129D02*
X6096419Y-16862652D01*
X6086895Y-16872176D01*
X6077371Y-16862652D01*
X6086895Y-16853129D01*
X6086895Y-16872176D01*
X6191657Y-16872176D02*
X6229752Y-16872176D01*
X6248800Y-16862652D01*
X6258324Y-16853129D01*
X6277371Y-16824557D01*
X6286895Y-16786462D01*
X6286895Y-16710271D01*
X6277371Y-16691224D01*
X6267848Y-16681700D01*
X6248800Y-16672176D01*
X6210705Y-16672176D01*
X6191657Y-16681700D01*
X6182133Y-16691224D01*
X6172609Y-16710271D01*
X6172609Y-16757890D01*
X6182133Y-16776938D01*
X6191657Y-16786462D01*
X6210705Y-16795986D01*
X6248800Y-16795986D01*
X6267848Y-16786462D01*
X6277371Y-16776938D01*
X6286895Y-16757890D01*
X6410705Y-16672176D02*
X6429752Y-16672176D01*
X6448800Y-16681700D01*
X6458324Y-16691224D01*
X6467848Y-16710271D01*
X6477371Y-16748367D01*
X6477371Y-16795986D01*
X6467848Y-16834081D01*
X6458324Y-16853129D01*
X6448800Y-16862652D01*
X6429752Y-16872176D01*
X6410705Y-16872176D01*
X6391657Y-16862652D01*
X6382133Y-16853129D01*
X6372609Y-16834081D01*
X6363086Y-16795986D01*
X6363086Y-16748367D01*
X6372609Y-16710271D01*
X6382133Y-16691224D01*
X6391657Y-16681700D01*
X6410705Y-16672176D01*
X6601181Y-16672176D02*
X6620228Y-16672176D01*
X6639276Y-16681700D01*
X6648800Y-16691224D01*
X6658324Y-16710271D01*
X6667848Y-16748367D01*
X6667848Y-16795986D01*
X6658324Y-16834081D01*
X6648800Y-16853129D01*
X6639276Y-16862652D01*
X6620228Y-16872176D01*
X6601181Y-16872176D01*
X6582133Y-16862652D01*
X6572609Y-16853129D01*
X6563086Y-16834081D01*
X6553562Y-16795986D01*
X6553562Y-16748367D01*
X6563086Y-16710271D01*
X6572609Y-16691224D01*
X6582133Y-16681700D01*
X6601181Y-16672176D01*
X6753562Y-16872176D02*
X6753562Y-16738843D01*
X6753562Y-16757890D02*
X6763086Y-16748367D01*
X6782133Y-16738843D01*
X6810705Y-16738843D01*
X6829752Y-16748367D01*
X6839276Y-16767414D01*
X6839276Y-16872176D01*
X6839276Y-16767414D02*
X6848800Y-16748367D01*
X6867848Y-16738843D01*
X6896419Y-16738843D01*
X6915467Y-16748367D01*
X6924990Y-16767414D01*
X6924990Y-16872176D01*
X7020228Y-16872176D02*
X7020228Y-16738843D01*
X7020228Y-16757890D02*
X7029752Y-16748367D01*
X7048800Y-16738843D01*
X7077371Y-16738843D01*
X7096419Y-16748367D01*
X7105943Y-16767414D01*
X7105943Y-16872176D01*
X7105943Y-16767414D02*
X7115467Y-16748367D01*
X7134514Y-16738843D01*
X7163086Y-16738843D01*
X7182133Y-16748367D01*
X7191657Y-16767414D01*
X7191657Y-16872176D01*
X7582133Y-16662652D02*
X7410705Y-16919795D01*
X7839276Y-16672176D02*
X7858324Y-16672176D01*
X7877371Y-16681700D01*
X7886895Y-16691224D01*
X7896419Y-16710271D01*
X7905943Y-16748367D01*
X7905943Y-16795986D01*
X7896419Y-16834081D01*
X7886895Y-16853129D01*
X7877371Y-16862652D01*
X7858324Y-16872176D01*
X7839276Y-16872176D01*
X7820228Y-16862652D01*
X7810705Y-16853129D01*
X7801181Y-16834081D01*
X7791657Y-16795986D01*
X7791657Y-16748367D01*
X7801181Y-16710271D01*
X7810705Y-16691224D01*
X7820228Y-16681700D01*
X7839276Y-16672176D01*
X7991657Y-16853129D02*
X8001181Y-16862652D01*
X7991657Y-16872176D01*
X7982133Y-16862652D01*
X7991657Y-16853129D01*
X7991657Y-16872176D01*
X8191657Y-16872176D02*
X8077371Y-16872176D01*
X8134514Y-16872176D02*
X8134514Y-16672176D01*
X8115467Y-16700748D01*
X8096419Y-16719795D01*
X8077371Y-16729319D01*
X8286895Y-16872176D02*
X8324990Y-16872176D01*
X8344038Y-16862652D01*
X8353562Y-16853129D01*
X8372609Y-16824557D01*
X8382133Y-16786462D01*
X8382133Y-16710271D01*
X8372609Y-16691224D01*
X8363086Y-16681700D01*
X8344038Y-16672176D01*
X8305943Y-16672176D01*
X8286895Y-16681700D01*
X8277371Y-16691224D01*
X8267848Y-16710271D01*
X8267848Y-16757890D01*
X8277371Y-16776938D01*
X8286895Y-16786462D01*
X8305943Y-16795986D01*
X8344038Y-16795986D01*
X8363086Y-16786462D01*
X8372609Y-16776938D01*
X8382133Y-16757890D01*
X8458324Y-16691224D02*
X8467848Y-16681700D01*
X8486895Y-16672176D01*
X8534514Y-16672176D01*
X8553562Y-16681700D01*
X8563086Y-16691224D01*
X8572610Y-16710271D01*
X8572610Y-16729319D01*
X8563086Y-16757890D01*
X8448800Y-16872176D01*
X8572610Y-16872176D01*
X8667848Y-16872176D02*
X8705943Y-16872176D01*
X8724990Y-16862652D01*
X8734514Y-16853129D01*
X8753562Y-16824557D01*
X8763086Y-16786462D01*
X8763086Y-16710271D01*
X8753562Y-16691224D01*
X8744038Y-16681700D01*
X8724990Y-16672176D01*
X8686895Y-16672176D01*
X8667848Y-16681700D01*
X8658324Y-16691224D01*
X8648800Y-16710271D01*
X8648800Y-16757890D01*
X8658324Y-16776938D01*
X8667848Y-16786462D01*
X8686895Y-16795986D01*
X8724990Y-16795986D01*
X8744038Y-16786462D01*
X8753562Y-16776938D01*
X8763086Y-16757890D01*
X8839276Y-16672176D02*
X8839276Y-16710271D01*
X8915467Y-16672176D02*
X8915467Y-16710271D01*
X9210705Y-16948367D02*
X9201181Y-16938843D01*
X9182133Y-16910271D01*
X9172610Y-16891224D01*
X9163086Y-16862652D01*
X9153562Y-16815033D01*
X9153562Y-16776938D01*
X9163086Y-16729319D01*
X9172610Y-16700748D01*
X9182133Y-16681700D01*
X9201181Y-16653128D01*
X9210705Y-16643605D01*
X9277371Y-16691224D02*
X9286895Y-16681700D01*
X9305943Y-16672176D01*
X9353562Y-16672176D01*
X9372610Y-16681700D01*
X9382133Y-16691224D01*
X9391657Y-16710271D01*
X9391657Y-16729319D01*
X9382133Y-16757890D01*
X9267848Y-16872176D01*
X9391657Y-16872176D01*
X9629752Y-16872176D02*
X9629752Y-16672176D01*
X9715467Y-16872176D02*
X9715467Y-16767414D01*
X9705943Y-16748367D01*
X9686895Y-16738843D01*
X9658324Y-16738843D01*
X9639276Y-16748367D01*
X9629752Y-16757890D01*
X9839276Y-16872176D02*
X9820229Y-16862652D01*
X9810705Y-16853129D01*
X9801181Y-16834081D01*
X9801181Y-16776938D01*
X9810705Y-16757890D01*
X9820229Y-16748367D01*
X9839276Y-16738843D01*
X9867848Y-16738843D01*
X9886895Y-16748367D01*
X9896419Y-16757890D01*
X9905943Y-16776938D01*
X9905943Y-16834081D01*
X9896419Y-16853129D01*
X9886895Y-16862652D01*
X9867848Y-16872176D01*
X9839276Y-16872176D01*
X10020229Y-16872176D02*
X10001181Y-16862652D01*
X9991657Y-16843605D01*
X9991657Y-16672176D01*
X10172610Y-16862652D02*
X10153562Y-16872176D01*
X10115467Y-16872176D01*
X10096419Y-16862652D01*
X10086895Y-16843605D01*
X10086895Y-16767414D01*
X10096419Y-16748367D01*
X10115467Y-16738843D01*
X10153562Y-16738843D01*
X10172610Y-16748367D01*
X10182133Y-16767414D01*
X10182133Y-16786462D01*
X10086895Y-16805510D01*
X10258324Y-16862652D02*
X10277371Y-16872176D01*
X10315467Y-16872176D01*
X10334514Y-16862652D01*
X10344038Y-16843605D01*
X10344038Y-16834081D01*
X10334514Y-16815033D01*
X10315467Y-16805510D01*
X10286895Y-16805510D01*
X10267848Y-16795986D01*
X10258324Y-16776938D01*
X10258324Y-16767414D01*
X10267848Y-16748367D01*
X10286895Y-16738843D01*
X10315467Y-16738843D01*
X10334514Y-16748367D01*
X10410705Y-16948367D02*
X10420229Y-16938843D01*
X10439276Y-16910271D01*
X10448800Y-16891224D01*
X10458324Y-16862652D01*
X10467848Y-16815033D01*
X10467848Y-16776938D01*
X10458324Y-16729319D01*
X10448800Y-16700748D01*
X10439276Y-16681700D01*
X10420229Y-16653128D01*
X10410705Y-16643605D01*
X10772610Y-16948367D02*
X10763086Y-16938843D01*
X10744038Y-16910271D01*
X10734514Y-16891224D01*
X10724990Y-16862652D01*
X10715467Y-16815033D01*
X10715467Y-16776938D01*
X10724990Y-16729319D01*
X10734514Y-16700748D01*
X10744038Y-16681700D01*
X10763086Y-16653128D01*
X10772610Y-16643605D01*
X10848800Y-16738843D02*
X10848800Y-16872176D01*
X10848800Y-16757890D02*
X10858324Y-16748367D01*
X10877371Y-16738843D01*
X10905943Y-16738843D01*
X10924990Y-16748367D01*
X10934514Y-16767414D01*
X10934514Y-16872176D01*
X11058324Y-16872176D02*
X11039276Y-16862652D01*
X11029752Y-16853129D01*
X11020229Y-16834081D01*
X11020229Y-16776938D01*
X11029752Y-16757890D01*
X11039276Y-16748367D01*
X11058324Y-16738843D01*
X11086895Y-16738843D01*
X11105943Y-16748367D01*
X11115467Y-16757890D01*
X11124990Y-16776938D01*
X11124990Y-16834081D01*
X11115467Y-16853129D01*
X11105943Y-16862652D01*
X11086895Y-16872176D01*
X11058324Y-16872176D01*
X11182133Y-16738843D02*
X11258324Y-16738843D01*
X11210705Y-16672176D02*
X11210705Y-16843605D01*
X11220228Y-16862652D01*
X11239276Y-16872176D01*
X11258324Y-16872176D01*
X11477371Y-16738843D02*
X11477371Y-16938843D01*
X11477371Y-16748367D02*
X11496419Y-16738843D01*
X11534514Y-16738843D01*
X11553562Y-16748367D01*
X11563086Y-16757890D01*
X11572609Y-16776938D01*
X11572609Y-16834081D01*
X11563086Y-16853129D01*
X11553562Y-16862652D01*
X11534514Y-16872176D01*
X11496419Y-16872176D01*
X11477371Y-16862652D01*
X11686895Y-16872176D02*
X11667848Y-16862652D01*
X11658324Y-16843605D01*
X11658324Y-16672176D01*
X11848800Y-16872176D02*
X11848800Y-16767414D01*
X11839276Y-16748367D01*
X11820228Y-16738843D01*
X11782133Y-16738843D01*
X11763086Y-16748367D01*
X11848800Y-16862652D02*
X11829752Y-16872176D01*
X11782133Y-16872176D01*
X11763086Y-16862652D01*
X11753562Y-16843605D01*
X11753562Y-16824557D01*
X11763086Y-16805510D01*
X11782133Y-16795986D01*
X11829752Y-16795986D01*
X11848800Y-16786462D01*
X11915467Y-16738843D02*
X11991657Y-16738843D01*
X11944038Y-16672176D02*
X11944038Y-16843605D01*
X11953562Y-16862652D01*
X11972609Y-16872176D01*
X11991657Y-16872176D01*
X12134514Y-16862652D02*
X12115467Y-16872176D01*
X12077371Y-16872176D01*
X12058324Y-16862652D01*
X12048800Y-16843605D01*
X12048800Y-16767414D01*
X12058324Y-16748367D01*
X12077371Y-16738843D01*
X12115467Y-16738843D01*
X12134514Y-16748367D01*
X12144038Y-16767414D01*
X12144038Y-16786462D01*
X12048800Y-16805510D01*
X12315467Y-16872176D02*
X12315467Y-16672176D01*
X12315467Y-16862652D02*
X12296419Y-16872176D01*
X12258324Y-16872176D01*
X12239276Y-16862652D01*
X12229752Y-16853129D01*
X12220228Y-16834081D01*
X12220228Y-16776938D01*
X12229752Y-16757890D01*
X12239276Y-16748367D01*
X12258324Y-16738843D01*
X12296419Y-16738843D01*
X12315467Y-16748367D01*
X12391657Y-16948367D02*
X12401181Y-16938843D01*
X12420228Y-16910271D01*
X12429752Y-16891224D01*
X12439276Y-16862652D01*
X12448800Y-16815033D01*
X12448800Y-16776938D01*
X12439276Y-16729319D01*
X12429752Y-16700748D01*
X12420228Y-16681700D01*
X12401181Y-16653128D01*
X12391657Y-16643605D01*
M02*
